G04 #@! TF.GenerationSoftware,KiCad,Pcbnew,(5.0.1)-3*
G04 #@! TF.CreationDate,2018-11-05T23:25:50+01:00*
G04 #@! TF.ProjectId,project,70726F6A6563742E6B696361645F7063,rev?*
G04 #@! TF.SameCoordinates,Original*
G04 #@! TF.FileFunction,Legend,Top*
G04 #@! TF.FilePolarity,Positive*
%FSLAX46Y46*%
G04 Gerber Fmt 4.6, Leading zero omitted, Abs format (unit mm)*
G04 Created by KiCad (PCBNEW (5.0.1)-3) date 11/05/18 23:25:50*
%MOMM*%
%LPD*%
G01*
G04 APERTURE LIST*
%ADD10C,0.175000*%
%ADD11C,0.250000*%
%ADD12C,0.150000*%
%ADD13C,0.120000*%
%ADD14C,0.100000*%
G04 APERTURE END LIST*
D10*
X130501826Y-69467983D02*
X129801826Y-69467983D01*
X130068493Y-69467983D02*
X130035160Y-69401316D01*
X130035160Y-69267983D01*
X130068493Y-69201316D01*
X130101826Y-69167983D01*
X130168493Y-69134650D01*
X130368493Y-69134650D01*
X130435160Y-69167983D01*
X130468493Y-69201316D01*
X130501826Y-69267983D01*
X130501826Y-69401316D01*
X130468493Y-69467983D01*
X130501826Y-68834650D02*
X130035160Y-68834650D01*
X130168493Y-68834650D02*
X130101826Y-68801316D01*
X130068493Y-68767983D01*
X130035160Y-68701316D01*
X130035160Y-68634650D01*
X130468493Y-68134650D02*
X130501826Y-68201316D01*
X130501826Y-68334650D01*
X130468493Y-68401316D01*
X130401826Y-68434650D01*
X130135160Y-68434650D01*
X130068493Y-68401316D01*
X130035160Y-68334650D01*
X130035160Y-68201316D01*
X130068493Y-68134650D01*
X130135160Y-68101316D01*
X130201826Y-68101316D01*
X130268493Y-68434650D01*
X130501826Y-67501316D02*
X130135160Y-67501316D01*
X130068493Y-67534650D01*
X130035160Y-67601316D01*
X130035160Y-67734650D01*
X130068493Y-67801316D01*
X130468493Y-67501316D02*
X130501826Y-67567983D01*
X130501826Y-67734650D01*
X130468493Y-67801316D01*
X130401826Y-67834650D01*
X130335160Y-67834650D01*
X130268493Y-67801316D01*
X130235160Y-67734650D01*
X130235160Y-67567983D01*
X130201826Y-67501316D01*
X130501826Y-67167983D02*
X129801826Y-67167983D01*
X130235160Y-67101316D02*
X130501826Y-66901316D01*
X130035160Y-66901316D02*
X130301826Y-67167983D01*
X130501826Y-66501316D02*
X130468493Y-66567983D01*
X130435160Y-66601316D01*
X130368493Y-66634650D01*
X130168493Y-66634650D01*
X130101826Y-66601316D01*
X130068493Y-66567983D01*
X130035160Y-66501316D01*
X130035160Y-66401316D01*
X130068493Y-66334650D01*
X130101826Y-66301316D01*
X130168493Y-66267983D01*
X130368493Y-66267983D01*
X130435160Y-66301316D01*
X130468493Y-66334650D01*
X130501826Y-66401316D01*
X130501826Y-66501316D01*
X130035160Y-65667983D02*
X130501826Y-65667983D01*
X130035160Y-65967983D02*
X130401826Y-65967983D01*
X130468493Y-65934650D01*
X130501826Y-65867983D01*
X130501826Y-65767983D01*
X130468493Y-65701316D01*
X130435160Y-65667983D01*
X130035160Y-65434650D02*
X130035160Y-65167983D01*
X129801826Y-65334650D02*
X130401826Y-65334650D01*
X130468493Y-65301316D01*
X130501826Y-65234650D01*
X130501826Y-65167983D01*
X130501826Y-64401316D02*
X129801826Y-64401316D01*
X130068493Y-64401316D02*
X130035160Y-64334650D01*
X130035160Y-64201316D01*
X130068493Y-64134650D01*
X130101826Y-64101316D01*
X130168493Y-64067983D01*
X130368493Y-64067983D01*
X130435160Y-64101316D01*
X130468493Y-64134650D01*
X130501826Y-64201316D01*
X130501826Y-64334650D01*
X130468493Y-64401316D01*
X130501826Y-63667983D02*
X130468493Y-63734650D01*
X130435160Y-63767983D01*
X130368493Y-63801316D01*
X130168493Y-63801316D01*
X130101826Y-63767983D01*
X130068493Y-63734650D01*
X130035160Y-63667983D01*
X130035160Y-63567983D01*
X130068493Y-63501316D01*
X130101826Y-63467983D01*
X130168493Y-63434650D01*
X130368493Y-63434650D01*
X130435160Y-63467983D01*
X130468493Y-63501316D01*
X130501826Y-63567983D01*
X130501826Y-63667983D01*
X130501826Y-62834650D02*
X130135160Y-62834650D01*
X130068493Y-62867983D01*
X130035160Y-62934650D01*
X130035160Y-63067983D01*
X130068493Y-63134650D01*
X130468493Y-62834650D02*
X130501826Y-62901316D01*
X130501826Y-63067983D01*
X130468493Y-63134650D01*
X130401826Y-63167983D01*
X130335160Y-63167983D01*
X130268493Y-63134650D01*
X130235160Y-63067983D01*
X130235160Y-62901316D01*
X130201826Y-62834650D01*
X130501826Y-62501316D02*
X130035160Y-62501316D01*
X130168493Y-62501316D02*
X130101826Y-62467983D01*
X130068493Y-62434650D01*
X130035160Y-62367983D01*
X130035160Y-62301316D01*
X130501826Y-61767983D02*
X129801826Y-61767983D01*
X130468493Y-61767983D02*
X130501826Y-61834650D01*
X130501826Y-61967983D01*
X130468493Y-62034650D01*
X130435160Y-62067983D01*
X130368493Y-62101316D01*
X130168493Y-62101316D01*
X130101826Y-62067983D01*
X130068493Y-62034650D01*
X130035160Y-61967983D01*
X130035160Y-61834650D01*
X130068493Y-61767983D01*
D11*
X128296420Y-71177221D02*
X128296420Y-70605793D01*
X129296420Y-70891507D02*
X128296420Y-70891507D01*
X128772611Y-70272460D02*
X128772611Y-69939126D01*
X129296420Y-69796269D02*
X129296420Y-70272460D01*
X128296420Y-70272460D01*
X128296420Y-69796269D01*
X129248801Y-69415317D02*
X129296420Y-69272460D01*
X129296420Y-69034364D01*
X129248801Y-68939126D01*
X129201182Y-68891507D01*
X129105944Y-68843888D01*
X129010706Y-68843888D01*
X128915468Y-68891507D01*
X128867849Y-68939126D01*
X128820230Y-69034364D01*
X128772611Y-69224840D01*
X128724992Y-69320079D01*
X128677373Y-69367698D01*
X128582135Y-69415317D01*
X128486897Y-69415317D01*
X128391659Y-69367698D01*
X128344040Y-69320079D01*
X128296420Y-69224840D01*
X128296420Y-68986745D01*
X128344040Y-68843888D01*
X128772611Y-68415317D02*
X128772611Y-68081983D01*
X129296420Y-67939126D02*
X129296420Y-68415317D01*
X128296420Y-68415317D01*
X128296420Y-67939126D01*
X128296420Y-67320079D02*
X128296420Y-67129602D01*
X128344040Y-67034364D01*
X128439278Y-66939126D01*
X128629754Y-66891507D01*
X128963087Y-66891507D01*
X129153563Y-66939126D01*
X129248801Y-67034364D01*
X129296420Y-67129602D01*
X129296420Y-67320079D01*
X129248801Y-67415317D01*
X129153563Y-67510555D01*
X128963087Y-67558174D01*
X128629754Y-67558174D01*
X128439278Y-67510555D01*
X128344040Y-67415317D01*
X128296420Y-67320079D01*
X128915468Y-66462936D02*
X128915468Y-65701031D01*
X129296420Y-64748650D02*
X129296420Y-65224840D01*
X128296420Y-65224840D01*
X129296420Y-64415317D02*
X128296420Y-64415317D01*
X128296420Y-64081983D02*
X129296420Y-63748650D01*
X128296420Y-63415317D01*
X128296420Y-63177221D02*
X128296420Y-62558174D01*
X128677373Y-62891507D01*
X128677373Y-62748650D01*
X128724992Y-62653412D01*
X128772611Y-62605793D01*
X128867849Y-62558174D01*
X129105944Y-62558174D01*
X129201182Y-62605793D01*
X129248801Y-62653412D01*
X129296420Y-62748650D01*
X129296420Y-63034364D01*
X129248801Y-63129602D01*
X129201182Y-63177221D01*
X128772611Y-61796269D02*
X128772611Y-62129602D01*
X129296420Y-62129602D02*
X128296420Y-62129602D01*
X128296420Y-61653412D01*
D10*
X138618480Y-65369373D02*
X138585146Y-65436040D01*
X138585146Y-65536040D01*
X138618480Y-65636040D01*
X138685146Y-65702706D01*
X138751813Y-65736040D01*
X138885146Y-65769373D01*
X138985146Y-65769373D01*
X139118480Y-65736040D01*
X139185146Y-65702706D01*
X139251813Y-65636040D01*
X139285146Y-65536040D01*
X139285146Y-65469373D01*
X139251813Y-65369373D01*
X139218480Y-65336040D01*
X138985146Y-65336040D01*
X138985146Y-65469373D01*
X139285146Y-65036040D02*
X138585146Y-65036040D01*
X139285146Y-64636040D01*
X138585146Y-64636040D01*
X139285146Y-64302706D02*
X138585146Y-64302706D01*
X138585146Y-64136040D01*
X138618480Y-64036040D01*
X138685146Y-63969373D01*
X138751813Y-63936040D01*
X138885146Y-63902706D01*
X138985146Y-63902706D01*
X139118480Y-63936040D01*
X139185146Y-63969373D01*
X139251813Y-64036040D01*
X139285146Y-64136040D01*
X139285146Y-64302706D01*
X139085146Y-68204293D02*
X139085146Y-67870960D01*
X139285146Y-68270960D02*
X138585146Y-68037626D01*
X139285146Y-67804293D01*
X138585146Y-67437626D02*
X138585146Y-67304293D01*
X138618480Y-67237626D01*
X138685146Y-67170960D01*
X138818480Y-67137626D01*
X139051813Y-67137626D01*
X139185146Y-67170960D01*
X139251813Y-67237626D01*
X139285146Y-67304293D01*
X139285146Y-67437626D01*
X139251813Y-67504293D01*
X139185146Y-67570960D01*
X139051813Y-67604293D01*
X138818480Y-67604293D01*
X138685146Y-67570960D01*
X138618480Y-67504293D01*
X138585146Y-67437626D01*
X138918480Y-66604293D02*
X138918480Y-66837626D01*
X139285146Y-66837626D02*
X138585146Y-66837626D01*
X138585146Y-66504293D01*
X138585146Y-70834933D02*
X139285146Y-70601600D01*
X138585146Y-70368266D01*
X139285146Y-69734933D02*
X138951813Y-69968266D01*
X139285146Y-70134933D02*
X138585146Y-70134933D01*
X138585146Y-69868266D01*
X138618480Y-69801600D01*
X138651813Y-69768266D01*
X138718480Y-69734933D01*
X138818480Y-69734933D01*
X138885146Y-69768266D01*
X138918480Y-69801600D01*
X138951813Y-69868266D01*
X138951813Y-70134933D01*
X138918480Y-69201600D02*
X138918480Y-69434933D01*
X139285146Y-69434933D02*
X138585146Y-69434933D01*
X138585146Y-69101600D01*
X138618480Y-85679213D02*
X138585146Y-85745880D01*
X138585146Y-85845880D01*
X138618480Y-85945880D01*
X138685146Y-86012546D01*
X138751813Y-86045880D01*
X138885146Y-86079213D01*
X138985146Y-86079213D01*
X139118480Y-86045880D01*
X139185146Y-86012546D01*
X139251813Y-85945880D01*
X139285146Y-85845880D01*
X139285146Y-85779213D01*
X139251813Y-85679213D01*
X139218480Y-85645880D01*
X138985146Y-85645880D01*
X138985146Y-85779213D01*
X139285146Y-85345880D02*
X138585146Y-85345880D01*
X139285146Y-84945880D01*
X138585146Y-84945880D01*
X139285146Y-84612546D02*
X138585146Y-84612546D01*
X138585146Y-84445880D01*
X138618480Y-84345880D01*
X138685146Y-84279213D01*
X138751813Y-84245880D01*
X138885146Y-84212546D01*
X138985146Y-84212546D01*
X139118480Y-84245880D01*
X139185146Y-84279213D01*
X139251813Y-84345880D01*
X139285146Y-84445880D01*
X139285146Y-84612546D01*
X138618480Y-62798893D02*
X138585146Y-62865560D01*
X138585146Y-62965560D01*
X138618480Y-63065560D01*
X138685146Y-63132226D01*
X138751813Y-63165560D01*
X138885146Y-63198893D01*
X138985146Y-63198893D01*
X139118480Y-63165560D01*
X139185146Y-63132226D01*
X139251813Y-63065560D01*
X139285146Y-62965560D01*
X139285146Y-62898893D01*
X139251813Y-62798893D01*
X139218480Y-62765560D01*
X138985146Y-62765560D01*
X138985146Y-62898893D01*
X139285146Y-62465560D02*
X138585146Y-62465560D01*
X139285146Y-62065560D01*
X138585146Y-62065560D01*
X139285146Y-61732226D02*
X138585146Y-61732226D01*
X138585146Y-61565560D01*
X138618480Y-61465560D01*
X138685146Y-61398893D01*
X138751813Y-61365560D01*
X138885146Y-61332226D01*
X138985146Y-61332226D01*
X139118480Y-61365560D01*
X139185146Y-61398893D01*
X139251813Y-61465560D01*
X139285146Y-61565560D01*
X139285146Y-61732226D01*
X138585146Y-73420480D02*
X139285146Y-73253813D01*
X138785146Y-73120480D01*
X139285146Y-72987146D01*
X138585146Y-72820480D01*
X139285146Y-72553813D02*
X138585146Y-72553813D01*
X139285146Y-72153813D02*
X138885146Y-72453813D01*
X138585146Y-72153813D02*
X138985146Y-72553813D01*
X139285146Y-71853813D02*
X138585146Y-71853813D01*
X138585146Y-71587146D01*
X138618480Y-71520480D01*
X138651813Y-71487146D01*
X138718480Y-71453813D01*
X138818480Y-71453813D01*
X138885146Y-71487146D01*
X138918480Y-71520480D01*
X138951813Y-71587146D01*
X138951813Y-71853813D01*
X138585146Y-75856200D02*
X139285146Y-75622866D01*
X138585146Y-75389533D01*
X138918480Y-74922866D02*
X138951813Y-74822866D01*
X138985146Y-74789533D01*
X139051813Y-74756200D01*
X139151813Y-74756200D01*
X139218480Y-74789533D01*
X139251813Y-74822866D01*
X139285146Y-74889533D01*
X139285146Y-75156200D01*
X138585146Y-75156200D01*
X138585146Y-74922866D01*
X138618480Y-74856200D01*
X138651813Y-74822866D01*
X138718480Y-74789533D01*
X138785146Y-74789533D01*
X138851813Y-74822866D01*
X138885146Y-74856200D01*
X138918480Y-74922866D01*
X138918480Y-75156200D01*
X138585146Y-74556200D02*
X138585146Y-74156200D01*
X139285146Y-74356200D02*
X138585146Y-74356200D01*
X138585146Y-78297626D02*
X139285146Y-78064293D01*
X138585146Y-77830960D01*
X139285146Y-77597626D02*
X138585146Y-77597626D01*
X138585146Y-77130960D02*
X138585146Y-76997626D01*
X138618480Y-76930960D01*
X138685146Y-76864293D01*
X138818480Y-76830960D01*
X139051813Y-76830960D01*
X139185146Y-76864293D01*
X139251813Y-76930960D01*
X139285146Y-76997626D01*
X139285146Y-77130960D01*
X139251813Y-77197626D01*
X139185146Y-77264293D01*
X139051813Y-77297626D01*
X138818480Y-77297626D01*
X138685146Y-77264293D01*
X138618480Y-77197626D01*
X138585146Y-77130960D01*
X138585146Y-80978893D02*
X139285146Y-80745560D01*
X138585146Y-80512226D01*
X139218480Y-79878893D02*
X139251813Y-79912226D01*
X139285146Y-80012226D01*
X139285146Y-80078893D01*
X139251813Y-80178893D01*
X139185146Y-80245560D01*
X139118480Y-80278893D01*
X138985146Y-80312226D01*
X138885146Y-80312226D01*
X138751813Y-80278893D01*
X138685146Y-80245560D01*
X138618480Y-80178893D01*
X138585146Y-80078893D01*
X138585146Y-80012226D01*
X138618480Y-79912226D01*
X138651813Y-79878893D01*
X139218480Y-79178893D02*
X139251813Y-79212226D01*
X139285146Y-79312226D01*
X139285146Y-79378893D01*
X139251813Y-79478893D01*
X139185146Y-79545560D01*
X139118480Y-79578893D01*
X138985146Y-79612226D01*
X138885146Y-79612226D01*
X138751813Y-79578893D01*
X138685146Y-79545560D01*
X138618480Y-79478893D01*
X138585146Y-79378893D01*
X138585146Y-79312226D01*
X138618480Y-79212226D01*
X138651813Y-79178893D01*
X139285146Y-83055253D02*
X138951813Y-83288586D01*
X139285146Y-83455253D02*
X138585146Y-83455253D01*
X138585146Y-83188586D01*
X138618480Y-83121920D01*
X138651813Y-83088586D01*
X138718480Y-83055253D01*
X138818480Y-83055253D01*
X138885146Y-83088586D01*
X138918480Y-83121920D01*
X138951813Y-83188586D01*
X138951813Y-83455253D01*
X139251813Y-82788586D02*
X139285146Y-82688586D01*
X139285146Y-82521920D01*
X139251813Y-82455253D01*
X139218480Y-82421920D01*
X139151813Y-82388586D01*
X139085146Y-82388586D01*
X139018480Y-82421920D01*
X138985146Y-82455253D01*
X138951813Y-82521920D01*
X138918480Y-82655253D01*
X138885146Y-82721920D01*
X138851813Y-82755253D01*
X138785146Y-82788586D01*
X138718480Y-82788586D01*
X138651813Y-82755253D01*
X138618480Y-82721920D01*
X138585146Y-82655253D01*
X138585146Y-82488586D01*
X138618480Y-82388586D01*
X138585146Y-82188586D02*
X138585146Y-81788586D01*
X139285146Y-81988586D02*
X138585146Y-81988586D01*
D12*
X138531600Y-60998100D02*
X141579600Y-60998100D01*
X138531600Y-63563500D02*
X141579600Y-63563500D01*
X138531600Y-66116200D02*
X141579600Y-66116200D01*
X138531600Y-68630800D02*
X141579600Y-68630800D01*
X138531600Y-71170800D02*
X141579600Y-71170800D01*
X138531600Y-73710800D02*
X141579600Y-73710800D01*
X138531600Y-76250800D02*
X141579600Y-76250800D01*
X138531600Y-78790800D02*
X141579600Y-78790800D01*
X138531600Y-86423500D02*
X141579600Y-86423500D01*
X138531600Y-83845400D02*
X141579600Y-83845400D01*
X138531600Y-81343500D02*
X141579600Y-81343500D01*
D10*
X126451566Y-80632233D02*
X126451566Y-80232233D01*
X127151566Y-80432233D02*
X126451566Y-80432233D01*
X126451566Y-80065566D02*
X127151566Y-79598900D01*
X126451566Y-79598900D02*
X127151566Y-80065566D01*
X127151566Y-77650166D02*
X126818233Y-77883500D01*
X127151566Y-78050166D02*
X126451566Y-78050166D01*
X126451566Y-77783500D01*
X126484900Y-77716833D01*
X126518233Y-77683500D01*
X126584900Y-77650166D01*
X126684900Y-77650166D01*
X126751566Y-77683500D01*
X126784900Y-77716833D01*
X126818233Y-77783500D01*
X126818233Y-78050166D01*
X126451566Y-77416833D02*
X127151566Y-76950166D01*
X126451566Y-76950166D02*
X127151566Y-77416833D01*
X127151566Y-75847466D02*
X126451566Y-75847466D01*
X126451566Y-75580800D01*
X126484900Y-75514133D01*
X126518233Y-75480800D01*
X126584900Y-75447466D01*
X126684900Y-75447466D01*
X126751566Y-75480800D01*
X126784900Y-75514133D01*
X126818233Y-75580800D01*
X126818233Y-75847466D01*
X127151566Y-75147466D02*
X126451566Y-75147466D01*
X126451566Y-74880800D01*
X126484900Y-74814133D01*
X126518233Y-74780800D01*
X126584900Y-74747466D01*
X126684900Y-74747466D01*
X126751566Y-74780800D01*
X126784900Y-74814133D01*
X126818233Y-74880800D01*
X126818233Y-75147466D01*
X127118233Y-74480800D02*
X127151566Y-74380800D01*
X127151566Y-74214133D01*
X127118233Y-74147466D01*
X127084900Y-74114133D01*
X127018233Y-74080800D01*
X126951566Y-74080800D01*
X126884900Y-74114133D01*
X126851566Y-74147466D01*
X126818233Y-74214133D01*
X126784900Y-74347466D01*
X126751566Y-74414133D01*
X126718233Y-74447466D01*
X126651566Y-74480800D01*
X126584900Y-74480800D01*
X126518233Y-74447466D01*
X126484900Y-74414133D01*
X126451566Y-74347466D01*
X126451566Y-74180800D01*
X126484900Y-74080800D01*
X127118233Y-73261433D02*
X127151566Y-73161433D01*
X127151566Y-72994766D01*
X127118233Y-72928100D01*
X127084900Y-72894766D01*
X127018233Y-72861433D01*
X126951566Y-72861433D01*
X126884900Y-72894766D01*
X126851566Y-72928100D01*
X126818233Y-72994766D01*
X126784900Y-73128100D01*
X126751566Y-73194766D01*
X126718233Y-73228100D01*
X126651566Y-73261433D01*
X126584900Y-73261433D01*
X126518233Y-73228100D01*
X126484900Y-73194766D01*
X126451566Y-73128100D01*
X126451566Y-72961433D01*
X126484900Y-72861433D01*
X127084900Y-72161433D02*
X127118233Y-72194766D01*
X127151566Y-72294766D01*
X127151566Y-72361433D01*
X127118233Y-72461433D01*
X127051566Y-72528100D01*
X126984900Y-72561433D01*
X126851566Y-72594766D01*
X126751566Y-72594766D01*
X126618233Y-72561433D01*
X126551566Y-72528100D01*
X126484900Y-72461433D01*
X126451566Y-72361433D01*
X126451566Y-72294766D01*
X126484900Y-72194766D01*
X126518233Y-72161433D01*
X127151566Y-71528100D02*
X127151566Y-71861433D01*
X126451566Y-71861433D01*
X127118233Y-70750800D02*
X127151566Y-70650800D01*
X127151566Y-70484133D01*
X127118233Y-70417466D01*
X127084900Y-70384133D01*
X127018233Y-70350800D01*
X126951566Y-70350800D01*
X126884900Y-70384133D01*
X126851566Y-70417466D01*
X126818233Y-70484133D01*
X126784900Y-70617466D01*
X126751566Y-70684133D01*
X126718233Y-70717466D01*
X126651566Y-70750800D01*
X126584900Y-70750800D01*
X126518233Y-70717466D01*
X126484900Y-70684133D01*
X126451566Y-70617466D01*
X126451566Y-70450800D01*
X126484900Y-70350800D01*
X127151566Y-70050800D02*
X126451566Y-70050800D01*
X126451566Y-69884133D01*
X126484900Y-69784133D01*
X126551566Y-69717466D01*
X126618233Y-69684133D01*
X126751566Y-69650800D01*
X126851566Y-69650800D01*
X126984900Y-69684133D01*
X127051566Y-69717466D01*
X127118233Y-69784133D01*
X127151566Y-69884133D01*
X127151566Y-70050800D01*
X126951566Y-69384133D02*
X126951566Y-69050800D01*
X127151566Y-69450800D02*
X126451566Y-69217466D01*
X127151566Y-68984133D01*
X126451566Y-67468733D02*
X126451566Y-67802066D01*
X126784900Y-67835400D01*
X126751566Y-67802066D01*
X126718233Y-67735400D01*
X126718233Y-67568733D01*
X126751566Y-67502066D01*
X126784900Y-67468733D01*
X126851566Y-67435400D01*
X127018233Y-67435400D01*
X127084900Y-67468733D01*
X127118233Y-67502066D01*
X127151566Y-67568733D01*
X127151566Y-67735400D01*
X127118233Y-67802066D01*
X127084900Y-67835400D01*
X126451566Y-67235400D02*
X127151566Y-67002066D01*
X126451566Y-66768733D01*
X126451566Y-65687466D02*
X126451566Y-65254133D01*
X126718233Y-65487466D01*
X126718233Y-65387466D01*
X126751566Y-65320800D01*
X126784900Y-65287466D01*
X126851566Y-65254133D01*
X127018233Y-65254133D01*
X127084900Y-65287466D01*
X127118233Y-65320800D01*
X127151566Y-65387466D01*
X127151566Y-65587466D01*
X127118233Y-65654133D01*
X127084900Y-65687466D01*
X126451566Y-65054133D02*
X127151566Y-64820800D01*
X126451566Y-64587466D01*
X126451566Y-64420800D02*
X126451566Y-63987466D01*
X126718233Y-64220800D01*
X126718233Y-64120800D01*
X126751566Y-64054133D01*
X126784900Y-64020800D01*
X126851566Y-63987466D01*
X127018233Y-63987466D01*
X127084900Y-64020800D01*
X127118233Y-64054133D01*
X127151566Y-64120800D01*
X127151566Y-64320800D01*
X127118233Y-64387466D01*
X127084900Y-64420800D01*
X126484900Y-62814133D02*
X126451566Y-62880800D01*
X126451566Y-62980800D01*
X126484900Y-63080800D01*
X126551566Y-63147466D01*
X126618233Y-63180800D01*
X126751566Y-63214133D01*
X126851566Y-63214133D01*
X126984900Y-63180800D01*
X127051566Y-63147466D01*
X127118233Y-63080800D01*
X127151566Y-62980800D01*
X127151566Y-62914133D01*
X127118233Y-62814133D01*
X127084900Y-62780800D01*
X126851566Y-62780800D01*
X126851566Y-62914133D01*
X127151566Y-62480800D02*
X126451566Y-62480800D01*
X127151566Y-62080800D01*
X126451566Y-62080800D01*
X127151566Y-61747466D02*
X126451566Y-61747466D01*
X126451566Y-61580800D01*
X126484900Y-61480800D01*
X126551566Y-61414133D01*
X126618233Y-61380800D01*
X126751566Y-61347466D01*
X126851566Y-61347466D01*
X126984900Y-61380800D01*
X127051566Y-61414133D01*
X127118233Y-61480800D01*
X127151566Y-61580800D01*
X127151566Y-61747466D01*
D12*
X124142500Y-61023500D02*
X127190500Y-61023500D01*
X124142500Y-63538100D02*
X127190500Y-63538100D01*
X124142500Y-66103500D02*
X127190500Y-66103500D01*
X124142500Y-68630800D02*
X127190500Y-68630800D01*
X124142500Y-71158100D02*
X127190500Y-71158100D01*
X124142500Y-73698100D02*
X127190500Y-73698100D01*
X124142500Y-76250800D02*
X127190500Y-76250800D01*
X124142500Y-78803500D02*
X127190500Y-78803500D01*
D10*
X126451566Y-83458733D02*
X127151566Y-83225400D01*
X126451566Y-82992066D01*
X127084900Y-82358733D02*
X127118233Y-82392066D01*
X127151566Y-82492066D01*
X127151566Y-82558733D01*
X127118233Y-82658733D01*
X127051566Y-82725400D01*
X126984900Y-82758733D01*
X126851566Y-82792066D01*
X126751566Y-82792066D01*
X126618233Y-82758733D01*
X126551566Y-82725400D01*
X126484900Y-82658733D01*
X126451566Y-82558733D01*
X126451566Y-82492066D01*
X126484900Y-82392066D01*
X126518233Y-82358733D01*
X126784900Y-81825400D02*
X126784900Y-82058733D01*
X127151566Y-82058733D02*
X126451566Y-82058733D01*
X126451566Y-81725400D01*
X126484900Y-85674133D02*
X126451566Y-85740800D01*
X126451566Y-85840800D01*
X126484900Y-85940800D01*
X126551566Y-86007466D01*
X126618233Y-86040800D01*
X126751566Y-86074133D01*
X126851566Y-86074133D01*
X126984900Y-86040800D01*
X127051566Y-86007466D01*
X127118233Y-85940800D01*
X127151566Y-85840800D01*
X127151566Y-85774133D01*
X127118233Y-85674133D01*
X127084900Y-85640800D01*
X126851566Y-85640800D01*
X126851566Y-85774133D01*
X127151566Y-85340800D02*
X126451566Y-85340800D01*
X127151566Y-84940800D01*
X126451566Y-84940800D01*
X127151566Y-84607466D02*
X126451566Y-84607466D01*
X126451566Y-84440800D01*
X126484900Y-84340800D01*
X126551566Y-84274133D01*
X126618233Y-84240800D01*
X126751566Y-84207466D01*
X126851566Y-84207466D01*
X126984900Y-84240800D01*
X127051566Y-84274133D01*
X127118233Y-84340800D01*
X127151566Y-84440800D01*
X127151566Y-84607466D01*
D12*
X124142500Y-86423500D02*
X127190500Y-86423500D01*
X124142500Y-81343500D02*
X127190500Y-81343500D01*
X124142500Y-83870800D02*
X127190500Y-83870800D01*
D13*
G04 #@! TO.C,J1*
X132127000Y-62058700D02*
X134827000Y-62058700D01*
X132717000Y-64778700D02*
X132717000Y-65408700D01*
X134877000Y-64778700D02*
X134237000Y-64778700D01*
X132077000Y-64778700D02*
X132717000Y-64778700D01*
G04 #@! TO.C,U1*
X132777000Y-71704200D02*
X132777000Y-71304200D01*
X134227000Y-72154200D02*
X134227000Y-71304200D01*
D14*
G04 #@! TO.C,U3*
X127689900Y-75546000D02*
X127889900Y-75546000D01*
X127689900Y-77546000D02*
X127689900Y-75546000D01*
X138089900Y-85546000D02*
X137889900Y-85546000D01*
X138089900Y-85546000D02*
X138089900Y-83546000D01*
X138089900Y-75546000D02*
X137889900Y-75546000D01*
X138089900Y-77546000D02*
X138089900Y-75546000D01*
X127689900Y-85746000D02*
X127689900Y-80546000D01*
D13*
G04 #@! TO.C,U2*
X133270700Y-74505820D02*
X134470700Y-74505820D01*
X134120700Y-72707500D02*
X133620700Y-72707500D01*
G04 #@! TO.C,C1*
D12*
X132557000Y-68315666D02*
X132590333Y-68349000D01*
X132623666Y-68449000D01*
X132623666Y-68515666D01*
X132590333Y-68615666D01*
X132523666Y-68682333D01*
X132457000Y-68715666D01*
X132323666Y-68749000D01*
X132223666Y-68749000D01*
X132090333Y-68715666D01*
X132023666Y-68682333D01*
X131957000Y-68615666D01*
X131923666Y-68515666D01*
X131923666Y-68449000D01*
X131957000Y-68349000D01*
X131990333Y-68315666D01*
X132623666Y-67649000D02*
X132623666Y-68049000D01*
X132623666Y-67849000D02*
X131923666Y-67849000D01*
X132023666Y-67915666D01*
X132090333Y-67982333D01*
X132123666Y-68049000D01*
G04 #@! TO.C,C2*
X132266500Y-74424366D02*
X132299833Y-74457700D01*
X132333166Y-74557700D01*
X132333166Y-74624366D01*
X132299833Y-74724366D01*
X132233166Y-74791033D01*
X132166500Y-74824366D01*
X132033166Y-74857700D01*
X131933166Y-74857700D01*
X131799833Y-74824366D01*
X131733166Y-74791033D01*
X131666500Y-74724366D01*
X131633166Y-74624366D01*
X131633166Y-74557700D01*
X131666500Y-74457700D01*
X131699833Y-74424366D01*
X131699833Y-74157700D02*
X131666500Y-74124366D01*
X131633166Y-74057700D01*
X131633166Y-73891033D01*
X131666500Y-73824366D01*
X131699833Y-73791033D01*
X131766500Y-73757700D01*
X131833166Y-73757700D01*
X131933166Y-73791033D01*
X132333166Y-74191033D01*
X132333166Y-73757700D01*
G04 #@! TO.C,C3*
X137587800Y-73751266D02*
X137621133Y-73784600D01*
X137654466Y-73884600D01*
X137654466Y-73951266D01*
X137621133Y-74051266D01*
X137554466Y-74117933D01*
X137487800Y-74151266D01*
X137354466Y-74184600D01*
X137254466Y-74184600D01*
X137121133Y-74151266D01*
X137054466Y-74117933D01*
X136987800Y-74051266D01*
X136954466Y-73951266D01*
X136954466Y-73884600D01*
X136987800Y-73784600D01*
X137021133Y-73751266D01*
X136954466Y-73517933D02*
X136954466Y-73084600D01*
X137221133Y-73317933D01*
X137221133Y-73217933D01*
X137254466Y-73151266D01*
X137287800Y-73117933D01*
X137354466Y-73084600D01*
X137521133Y-73084600D01*
X137587800Y-73117933D01*
X137621133Y-73151266D01*
X137654466Y-73217933D01*
X137654466Y-73417933D01*
X137621133Y-73484600D01*
X137587800Y-73517933D01*
G04 #@! TO.C,J1*
X136101026Y-63636813D02*
X136601026Y-63636813D01*
X136701026Y-63670146D01*
X136767693Y-63736813D01*
X136801026Y-63836813D01*
X136801026Y-63903480D01*
X136801026Y-62936813D02*
X136801026Y-63336813D01*
X136801026Y-63136813D02*
X136101026Y-63136813D01*
X136201026Y-63203480D01*
X136267693Y-63270146D01*
X136301026Y-63336813D01*
G04 #@! TO.C,L1*
X134963666Y-70271466D02*
X134963666Y-70604800D01*
X134263666Y-70604800D01*
X134963666Y-69671466D02*
X134963666Y-70071466D01*
X134963666Y-69871466D02*
X134263666Y-69871466D01*
X134363666Y-69938133D01*
X134430333Y-70004800D01*
X134463666Y-70071466D01*
G04 #@! TO.C,R1*
X130224966Y-74424366D02*
X129891633Y-74657700D01*
X130224966Y-74824366D02*
X129524966Y-74824366D01*
X129524966Y-74557700D01*
X129558300Y-74491033D01*
X129591633Y-74457700D01*
X129658300Y-74424366D01*
X129758300Y-74424366D01*
X129824966Y-74457700D01*
X129858300Y-74491033D01*
X129891633Y-74557700D01*
X129891633Y-74824366D01*
X130224966Y-73757700D02*
X130224966Y-74157700D01*
X130224966Y-73957700D02*
X129524966Y-73957700D01*
X129624966Y-74024366D01*
X129691633Y-74091033D01*
X129724966Y-74157700D01*
G04 #@! TO.C,U1*
X131671266Y-71754933D02*
X132237933Y-71754933D01*
X132304600Y-71721600D01*
X132337933Y-71688266D01*
X132371266Y-71621600D01*
X132371266Y-71488266D01*
X132337933Y-71421600D01*
X132304600Y-71388266D01*
X132237933Y-71354933D01*
X131671266Y-71354933D01*
X132371266Y-70654933D02*
X132371266Y-71054933D01*
X132371266Y-70854933D02*
X131671266Y-70854933D01*
X131771266Y-70921600D01*
X131837933Y-70988266D01*
X131871266Y-71054933D01*
G04 #@! TO.C,U3*
X128120346Y-74813093D02*
X128687013Y-74813093D01*
X128753680Y-74779760D01*
X128787013Y-74746426D01*
X128820346Y-74679760D01*
X128820346Y-74546426D01*
X128787013Y-74479760D01*
X128753680Y-74446426D01*
X128687013Y-74413093D01*
X128120346Y-74413093D01*
X128120346Y-74146426D02*
X128120346Y-73713093D01*
X128387013Y-73946426D01*
X128387013Y-73846426D01*
X128420346Y-73779760D01*
X128453680Y-73746426D01*
X128520346Y-73713093D01*
X128687013Y-73713093D01*
X128753680Y-73746426D01*
X128787013Y-73779760D01*
X128820346Y-73846426D01*
X128820346Y-74046426D01*
X128787013Y-74113093D01*
X128753680Y-74146426D01*
G04 #@! TO.C,U2*
X134744666Y-72821733D02*
X135311333Y-72821733D01*
X135378000Y-72788400D01*
X135411333Y-72755066D01*
X135444666Y-72688400D01*
X135444666Y-72555066D01*
X135411333Y-72488400D01*
X135378000Y-72455066D01*
X135311333Y-72421733D01*
X134744666Y-72421733D01*
X134811333Y-72121733D02*
X134778000Y-72088400D01*
X134744666Y-72021733D01*
X134744666Y-71855066D01*
X134778000Y-71788400D01*
X134811333Y-71755066D01*
X134878000Y-71721733D01*
X134944666Y-71721733D01*
X135044666Y-71755066D01*
X135444666Y-72155066D01*
X135444666Y-71721733D01*
G04 #@! TO.C,R2*
X135927266Y-66893266D02*
X135593933Y-67126600D01*
X135927266Y-67293266D02*
X135227266Y-67293266D01*
X135227266Y-67026600D01*
X135260600Y-66959933D01*
X135293933Y-66926600D01*
X135360600Y-66893266D01*
X135460600Y-66893266D01*
X135527266Y-66926600D01*
X135560600Y-66959933D01*
X135593933Y-67026600D01*
X135593933Y-67293266D01*
X135293933Y-66626600D02*
X135260600Y-66593266D01*
X135227266Y-66526600D01*
X135227266Y-66359933D01*
X135260600Y-66293266D01*
X135293933Y-66259933D01*
X135360600Y-66226600D01*
X135427266Y-66226600D01*
X135527266Y-66259933D01*
X135927266Y-66659933D01*
X135927266Y-66226600D01*
G04 #@! TO.C,R3*
X137668766Y-71947866D02*
X137335433Y-72181200D01*
X137668766Y-72347866D02*
X136968766Y-72347866D01*
X136968766Y-72081200D01*
X137002100Y-72014533D01*
X137035433Y-71981200D01*
X137102100Y-71947866D01*
X137202100Y-71947866D01*
X137268766Y-71981200D01*
X137302100Y-72014533D01*
X137335433Y-72081200D01*
X137335433Y-72347866D01*
X136968766Y-71714533D02*
X136968766Y-71281200D01*
X137235433Y-71514533D01*
X137235433Y-71414533D01*
X137268766Y-71347866D01*
X137302100Y-71314533D01*
X137368766Y-71281200D01*
X137535433Y-71281200D01*
X137602100Y-71314533D01*
X137635433Y-71347866D01*
X137668766Y-71414533D01*
X137668766Y-71614533D01*
X137635433Y-71681200D01*
X137602100Y-71714533D01*
G04 #@! TD*
M02*
