G04 #@! TF.GenerationSoftware,KiCad,Pcbnew,(5.0.1)-3*
G04 #@! TF.CreationDate,2018-11-05T23:25:50+01:00*
G04 #@! TF.ProjectId,project,70726F6A6563742E6B696361645F7063,rev?*
G04 #@! TF.SameCoordinates,Original*
G04 #@! TF.FileFunction,Paste,Top*
G04 #@! TF.FilePolarity,Positive*
%FSLAX46Y46*%
G04 Gerber Fmt 4.6, Leading zero omitted, Abs format (unit mm)*
G04 Created by KiCad (PCBNEW (5.0.1)-3) date 11/05/18 23:25:50*
%MOMM*%
%LPD*%
G01*
G04 APERTURE LIST*
%ADD10C,0.100000*%
%ADD11C,0.590000*%
%ADD12R,1.050000X2.200000*%
%ADD13R,1.000000X1.050000*%
%ADD14R,0.245000X0.245000*%
%ADD15R,0.900000X1.600000*%
%ADD16R,0.325000X0.250000*%
G04 APERTURE END LIST*
D10*
G04 #@! TO.C,C1*
G36*
X133663958Y-68389710D02*
X133678276Y-68391834D01*
X133692317Y-68395351D01*
X133705946Y-68400228D01*
X133719031Y-68406417D01*
X133731447Y-68413858D01*
X133743073Y-68422481D01*
X133753798Y-68432202D01*
X133763519Y-68442927D01*
X133772142Y-68454553D01*
X133779583Y-68466969D01*
X133785772Y-68480054D01*
X133790649Y-68493683D01*
X133794166Y-68507724D01*
X133796290Y-68522042D01*
X133797000Y-68536500D01*
X133797000Y-68831500D01*
X133796290Y-68845958D01*
X133794166Y-68860276D01*
X133790649Y-68874317D01*
X133785772Y-68887946D01*
X133779583Y-68901031D01*
X133772142Y-68913447D01*
X133763519Y-68925073D01*
X133753798Y-68935798D01*
X133743073Y-68945519D01*
X133731447Y-68954142D01*
X133719031Y-68961583D01*
X133705946Y-68967772D01*
X133692317Y-68972649D01*
X133678276Y-68976166D01*
X133663958Y-68978290D01*
X133649500Y-68979000D01*
X133304500Y-68979000D01*
X133290042Y-68978290D01*
X133275724Y-68976166D01*
X133261683Y-68972649D01*
X133248054Y-68967772D01*
X133234969Y-68961583D01*
X133222553Y-68954142D01*
X133210927Y-68945519D01*
X133200202Y-68935798D01*
X133190481Y-68925073D01*
X133181858Y-68913447D01*
X133174417Y-68901031D01*
X133168228Y-68887946D01*
X133163351Y-68874317D01*
X133159834Y-68860276D01*
X133157710Y-68845958D01*
X133157000Y-68831500D01*
X133157000Y-68536500D01*
X133157710Y-68522042D01*
X133159834Y-68507724D01*
X133163351Y-68493683D01*
X133168228Y-68480054D01*
X133174417Y-68466969D01*
X133181858Y-68454553D01*
X133190481Y-68442927D01*
X133200202Y-68432202D01*
X133210927Y-68422481D01*
X133222553Y-68413858D01*
X133234969Y-68406417D01*
X133248054Y-68400228D01*
X133261683Y-68395351D01*
X133275724Y-68391834D01*
X133290042Y-68389710D01*
X133304500Y-68389000D01*
X133649500Y-68389000D01*
X133663958Y-68389710D01*
X133663958Y-68389710D01*
G37*
D11*
X133477000Y-68684000D03*
D10*
G36*
X133663958Y-67419710D02*
X133678276Y-67421834D01*
X133692317Y-67425351D01*
X133705946Y-67430228D01*
X133719031Y-67436417D01*
X133731447Y-67443858D01*
X133743073Y-67452481D01*
X133753798Y-67462202D01*
X133763519Y-67472927D01*
X133772142Y-67484553D01*
X133779583Y-67496969D01*
X133785772Y-67510054D01*
X133790649Y-67523683D01*
X133794166Y-67537724D01*
X133796290Y-67552042D01*
X133797000Y-67566500D01*
X133797000Y-67861500D01*
X133796290Y-67875958D01*
X133794166Y-67890276D01*
X133790649Y-67904317D01*
X133785772Y-67917946D01*
X133779583Y-67931031D01*
X133772142Y-67943447D01*
X133763519Y-67955073D01*
X133753798Y-67965798D01*
X133743073Y-67975519D01*
X133731447Y-67984142D01*
X133719031Y-67991583D01*
X133705946Y-67997772D01*
X133692317Y-68002649D01*
X133678276Y-68006166D01*
X133663958Y-68008290D01*
X133649500Y-68009000D01*
X133304500Y-68009000D01*
X133290042Y-68008290D01*
X133275724Y-68006166D01*
X133261683Y-68002649D01*
X133248054Y-67997772D01*
X133234969Y-67991583D01*
X133222553Y-67984142D01*
X133210927Y-67975519D01*
X133200202Y-67965798D01*
X133190481Y-67955073D01*
X133181858Y-67943447D01*
X133174417Y-67931031D01*
X133168228Y-67917946D01*
X133163351Y-67904317D01*
X133159834Y-67890276D01*
X133157710Y-67875958D01*
X133157000Y-67861500D01*
X133157000Y-67566500D01*
X133157710Y-67552042D01*
X133159834Y-67537724D01*
X133163351Y-67523683D01*
X133168228Y-67510054D01*
X133174417Y-67496969D01*
X133181858Y-67484553D01*
X133190481Y-67472927D01*
X133200202Y-67462202D01*
X133210927Y-67452481D01*
X133222553Y-67443858D01*
X133234969Y-67436417D01*
X133248054Y-67430228D01*
X133261683Y-67425351D01*
X133275724Y-67421834D01*
X133290042Y-67419710D01*
X133304500Y-67419000D01*
X133649500Y-67419000D01*
X133663958Y-67419710D01*
X133663958Y-67419710D01*
G37*
D11*
X133477000Y-67714000D03*
G04 #@! TD*
D10*
G04 #@! TO.C,C2*
G36*
X131693458Y-72845410D02*
X131707776Y-72847534D01*
X131721817Y-72851051D01*
X131735446Y-72855928D01*
X131748531Y-72862117D01*
X131760947Y-72869558D01*
X131772573Y-72878181D01*
X131783298Y-72887902D01*
X131793019Y-72898627D01*
X131801642Y-72910253D01*
X131809083Y-72922669D01*
X131815272Y-72935754D01*
X131820149Y-72949383D01*
X131823666Y-72963424D01*
X131825790Y-72977742D01*
X131826500Y-72992200D01*
X131826500Y-73337200D01*
X131825790Y-73351658D01*
X131823666Y-73365976D01*
X131820149Y-73380017D01*
X131815272Y-73393646D01*
X131809083Y-73406731D01*
X131801642Y-73419147D01*
X131793019Y-73430773D01*
X131783298Y-73441498D01*
X131772573Y-73451219D01*
X131760947Y-73459842D01*
X131748531Y-73467283D01*
X131735446Y-73473472D01*
X131721817Y-73478349D01*
X131707776Y-73481866D01*
X131693458Y-73483990D01*
X131679000Y-73484700D01*
X131384000Y-73484700D01*
X131369542Y-73483990D01*
X131355224Y-73481866D01*
X131341183Y-73478349D01*
X131327554Y-73473472D01*
X131314469Y-73467283D01*
X131302053Y-73459842D01*
X131290427Y-73451219D01*
X131279702Y-73441498D01*
X131269981Y-73430773D01*
X131261358Y-73419147D01*
X131253917Y-73406731D01*
X131247728Y-73393646D01*
X131242851Y-73380017D01*
X131239334Y-73365976D01*
X131237210Y-73351658D01*
X131236500Y-73337200D01*
X131236500Y-72992200D01*
X131237210Y-72977742D01*
X131239334Y-72963424D01*
X131242851Y-72949383D01*
X131247728Y-72935754D01*
X131253917Y-72922669D01*
X131261358Y-72910253D01*
X131269981Y-72898627D01*
X131279702Y-72887902D01*
X131290427Y-72878181D01*
X131302053Y-72869558D01*
X131314469Y-72862117D01*
X131327554Y-72855928D01*
X131341183Y-72851051D01*
X131355224Y-72847534D01*
X131369542Y-72845410D01*
X131384000Y-72844700D01*
X131679000Y-72844700D01*
X131693458Y-72845410D01*
X131693458Y-72845410D01*
G37*
D11*
X131531500Y-73164700D03*
D10*
G36*
X132663458Y-72845410D02*
X132677776Y-72847534D01*
X132691817Y-72851051D01*
X132705446Y-72855928D01*
X132718531Y-72862117D01*
X132730947Y-72869558D01*
X132742573Y-72878181D01*
X132753298Y-72887902D01*
X132763019Y-72898627D01*
X132771642Y-72910253D01*
X132779083Y-72922669D01*
X132785272Y-72935754D01*
X132790149Y-72949383D01*
X132793666Y-72963424D01*
X132795790Y-72977742D01*
X132796500Y-72992200D01*
X132796500Y-73337200D01*
X132795790Y-73351658D01*
X132793666Y-73365976D01*
X132790149Y-73380017D01*
X132785272Y-73393646D01*
X132779083Y-73406731D01*
X132771642Y-73419147D01*
X132763019Y-73430773D01*
X132753298Y-73441498D01*
X132742573Y-73451219D01*
X132730947Y-73459842D01*
X132718531Y-73467283D01*
X132705446Y-73473472D01*
X132691817Y-73478349D01*
X132677776Y-73481866D01*
X132663458Y-73483990D01*
X132649000Y-73484700D01*
X132354000Y-73484700D01*
X132339542Y-73483990D01*
X132325224Y-73481866D01*
X132311183Y-73478349D01*
X132297554Y-73473472D01*
X132284469Y-73467283D01*
X132272053Y-73459842D01*
X132260427Y-73451219D01*
X132249702Y-73441498D01*
X132239981Y-73430773D01*
X132231358Y-73419147D01*
X132223917Y-73406731D01*
X132217728Y-73393646D01*
X132212851Y-73380017D01*
X132209334Y-73365976D01*
X132207210Y-73351658D01*
X132206500Y-73337200D01*
X132206500Y-72992200D01*
X132207210Y-72977742D01*
X132209334Y-72963424D01*
X132212851Y-72949383D01*
X132217728Y-72935754D01*
X132223917Y-72922669D01*
X132231358Y-72910253D01*
X132239981Y-72898627D01*
X132249702Y-72887902D01*
X132260427Y-72878181D01*
X132272053Y-72869558D01*
X132284469Y-72862117D01*
X132297554Y-72855928D01*
X132311183Y-72851051D01*
X132325224Y-72847534D01*
X132339542Y-72845410D01*
X132354000Y-72844700D01*
X132649000Y-72844700D01*
X132663458Y-72845410D01*
X132663458Y-72845410D01*
G37*
D11*
X132501500Y-73164700D03*
G04 #@! TD*
D10*
G04 #@! TO.C,C3*
G36*
X135376458Y-73289910D02*
X135390776Y-73292034D01*
X135404817Y-73295551D01*
X135418446Y-73300428D01*
X135431531Y-73306617D01*
X135443947Y-73314058D01*
X135455573Y-73322681D01*
X135466298Y-73332402D01*
X135476019Y-73343127D01*
X135484642Y-73354753D01*
X135492083Y-73367169D01*
X135498272Y-73380254D01*
X135503149Y-73393883D01*
X135506666Y-73407924D01*
X135508790Y-73422242D01*
X135509500Y-73436700D01*
X135509500Y-73781700D01*
X135508790Y-73796158D01*
X135506666Y-73810476D01*
X135503149Y-73824517D01*
X135498272Y-73838146D01*
X135492083Y-73851231D01*
X135484642Y-73863647D01*
X135476019Y-73875273D01*
X135466298Y-73885998D01*
X135455573Y-73895719D01*
X135443947Y-73904342D01*
X135431531Y-73911783D01*
X135418446Y-73917972D01*
X135404817Y-73922849D01*
X135390776Y-73926366D01*
X135376458Y-73928490D01*
X135362000Y-73929200D01*
X135067000Y-73929200D01*
X135052542Y-73928490D01*
X135038224Y-73926366D01*
X135024183Y-73922849D01*
X135010554Y-73917972D01*
X134997469Y-73911783D01*
X134985053Y-73904342D01*
X134973427Y-73895719D01*
X134962702Y-73885998D01*
X134952981Y-73875273D01*
X134944358Y-73863647D01*
X134936917Y-73851231D01*
X134930728Y-73838146D01*
X134925851Y-73824517D01*
X134922334Y-73810476D01*
X134920210Y-73796158D01*
X134919500Y-73781700D01*
X134919500Y-73436700D01*
X134920210Y-73422242D01*
X134922334Y-73407924D01*
X134925851Y-73393883D01*
X134930728Y-73380254D01*
X134936917Y-73367169D01*
X134944358Y-73354753D01*
X134952981Y-73343127D01*
X134962702Y-73332402D01*
X134973427Y-73322681D01*
X134985053Y-73314058D01*
X134997469Y-73306617D01*
X135010554Y-73300428D01*
X135024183Y-73295551D01*
X135038224Y-73292034D01*
X135052542Y-73289910D01*
X135067000Y-73289200D01*
X135362000Y-73289200D01*
X135376458Y-73289910D01*
X135376458Y-73289910D01*
G37*
D11*
X135214500Y-73609200D03*
D10*
G36*
X136346458Y-73289910D02*
X136360776Y-73292034D01*
X136374817Y-73295551D01*
X136388446Y-73300428D01*
X136401531Y-73306617D01*
X136413947Y-73314058D01*
X136425573Y-73322681D01*
X136436298Y-73332402D01*
X136446019Y-73343127D01*
X136454642Y-73354753D01*
X136462083Y-73367169D01*
X136468272Y-73380254D01*
X136473149Y-73393883D01*
X136476666Y-73407924D01*
X136478790Y-73422242D01*
X136479500Y-73436700D01*
X136479500Y-73781700D01*
X136478790Y-73796158D01*
X136476666Y-73810476D01*
X136473149Y-73824517D01*
X136468272Y-73838146D01*
X136462083Y-73851231D01*
X136454642Y-73863647D01*
X136446019Y-73875273D01*
X136436298Y-73885998D01*
X136425573Y-73895719D01*
X136413947Y-73904342D01*
X136401531Y-73911783D01*
X136388446Y-73917972D01*
X136374817Y-73922849D01*
X136360776Y-73926366D01*
X136346458Y-73928490D01*
X136332000Y-73929200D01*
X136037000Y-73929200D01*
X136022542Y-73928490D01*
X136008224Y-73926366D01*
X135994183Y-73922849D01*
X135980554Y-73917972D01*
X135967469Y-73911783D01*
X135955053Y-73904342D01*
X135943427Y-73895719D01*
X135932702Y-73885998D01*
X135922981Y-73875273D01*
X135914358Y-73863647D01*
X135906917Y-73851231D01*
X135900728Y-73838146D01*
X135895851Y-73824517D01*
X135892334Y-73810476D01*
X135890210Y-73796158D01*
X135889500Y-73781700D01*
X135889500Y-73436700D01*
X135890210Y-73422242D01*
X135892334Y-73407924D01*
X135895851Y-73393883D01*
X135900728Y-73380254D01*
X135906917Y-73367169D01*
X135914358Y-73354753D01*
X135922981Y-73343127D01*
X135932702Y-73332402D01*
X135943427Y-73322681D01*
X135955053Y-73314058D01*
X135967469Y-73306617D01*
X135980554Y-73300428D01*
X135994183Y-73295551D01*
X136008224Y-73292034D01*
X136022542Y-73289910D01*
X136037000Y-73289200D01*
X136332000Y-73289200D01*
X136346458Y-73289910D01*
X136346458Y-73289910D01*
G37*
D11*
X136184500Y-73609200D03*
G04 #@! TD*
D12*
G04 #@! TO.C,J1*
X134952000Y-63418700D03*
D13*
X133477000Y-64943700D03*
D12*
X132002000Y-63418700D03*
G04 #@! TD*
D10*
G04 #@! TO.C,L1*
G36*
X133663958Y-69375510D02*
X133678276Y-69377634D01*
X133692317Y-69381151D01*
X133705946Y-69386028D01*
X133719031Y-69392217D01*
X133731447Y-69399658D01*
X133743073Y-69408281D01*
X133753798Y-69418002D01*
X133763519Y-69428727D01*
X133772142Y-69440353D01*
X133779583Y-69452769D01*
X133785772Y-69465854D01*
X133790649Y-69479483D01*
X133794166Y-69493524D01*
X133796290Y-69507842D01*
X133797000Y-69522300D01*
X133797000Y-69817300D01*
X133796290Y-69831758D01*
X133794166Y-69846076D01*
X133790649Y-69860117D01*
X133785772Y-69873746D01*
X133779583Y-69886831D01*
X133772142Y-69899247D01*
X133763519Y-69910873D01*
X133753798Y-69921598D01*
X133743073Y-69931319D01*
X133731447Y-69939942D01*
X133719031Y-69947383D01*
X133705946Y-69953572D01*
X133692317Y-69958449D01*
X133678276Y-69961966D01*
X133663958Y-69964090D01*
X133649500Y-69964800D01*
X133304500Y-69964800D01*
X133290042Y-69964090D01*
X133275724Y-69961966D01*
X133261683Y-69958449D01*
X133248054Y-69953572D01*
X133234969Y-69947383D01*
X133222553Y-69939942D01*
X133210927Y-69931319D01*
X133200202Y-69921598D01*
X133190481Y-69910873D01*
X133181858Y-69899247D01*
X133174417Y-69886831D01*
X133168228Y-69873746D01*
X133163351Y-69860117D01*
X133159834Y-69846076D01*
X133157710Y-69831758D01*
X133157000Y-69817300D01*
X133157000Y-69522300D01*
X133157710Y-69507842D01*
X133159834Y-69493524D01*
X133163351Y-69479483D01*
X133168228Y-69465854D01*
X133174417Y-69452769D01*
X133181858Y-69440353D01*
X133190481Y-69428727D01*
X133200202Y-69418002D01*
X133210927Y-69408281D01*
X133222553Y-69399658D01*
X133234969Y-69392217D01*
X133248054Y-69386028D01*
X133261683Y-69381151D01*
X133275724Y-69377634D01*
X133290042Y-69375510D01*
X133304500Y-69374800D01*
X133649500Y-69374800D01*
X133663958Y-69375510D01*
X133663958Y-69375510D01*
G37*
D11*
X133477000Y-69669800D03*
D10*
G36*
X133663958Y-70345510D02*
X133678276Y-70347634D01*
X133692317Y-70351151D01*
X133705946Y-70356028D01*
X133719031Y-70362217D01*
X133731447Y-70369658D01*
X133743073Y-70378281D01*
X133753798Y-70388002D01*
X133763519Y-70398727D01*
X133772142Y-70410353D01*
X133779583Y-70422769D01*
X133785772Y-70435854D01*
X133790649Y-70449483D01*
X133794166Y-70463524D01*
X133796290Y-70477842D01*
X133797000Y-70492300D01*
X133797000Y-70787300D01*
X133796290Y-70801758D01*
X133794166Y-70816076D01*
X133790649Y-70830117D01*
X133785772Y-70843746D01*
X133779583Y-70856831D01*
X133772142Y-70869247D01*
X133763519Y-70880873D01*
X133753798Y-70891598D01*
X133743073Y-70901319D01*
X133731447Y-70909942D01*
X133719031Y-70917383D01*
X133705946Y-70923572D01*
X133692317Y-70928449D01*
X133678276Y-70931966D01*
X133663958Y-70934090D01*
X133649500Y-70934800D01*
X133304500Y-70934800D01*
X133290042Y-70934090D01*
X133275724Y-70931966D01*
X133261683Y-70928449D01*
X133248054Y-70923572D01*
X133234969Y-70917383D01*
X133222553Y-70909942D01*
X133210927Y-70901319D01*
X133200202Y-70891598D01*
X133190481Y-70880873D01*
X133181858Y-70869247D01*
X133174417Y-70856831D01*
X133168228Y-70843746D01*
X133163351Y-70830117D01*
X133159834Y-70816076D01*
X133157710Y-70801758D01*
X133157000Y-70787300D01*
X133157000Y-70492300D01*
X133157710Y-70477842D01*
X133159834Y-70463524D01*
X133163351Y-70449483D01*
X133168228Y-70435854D01*
X133174417Y-70422769D01*
X133181858Y-70410353D01*
X133190481Y-70398727D01*
X133200202Y-70388002D01*
X133210927Y-70378281D01*
X133222553Y-70369658D01*
X133234969Y-70362217D01*
X133248054Y-70356028D01*
X133261683Y-70351151D01*
X133275724Y-70347634D01*
X133290042Y-70345510D01*
X133304500Y-70344800D01*
X133649500Y-70344800D01*
X133663958Y-70345510D01*
X133663958Y-70345510D01*
G37*
D11*
X133477000Y-70639800D03*
G04 #@! TD*
D10*
G04 #@! TO.C,R1*
G36*
X130555258Y-72845410D02*
X130569576Y-72847534D01*
X130583617Y-72851051D01*
X130597246Y-72855928D01*
X130610331Y-72862117D01*
X130622747Y-72869558D01*
X130634373Y-72878181D01*
X130645098Y-72887902D01*
X130654819Y-72898627D01*
X130663442Y-72910253D01*
X130670883Y-72922669D01*
X130677072Y-72935754D01*
X130681949Y-72949383D01*
X130685466Y-72963424D01*
X130687590Y-72977742D01*
X130688300Y-72992200D01*
X130688300Y-73337200D01*
X130687590Y-73351658D01*
X130685466Y-73365976D01*
X130681949Y-73380017D01*
X130677072Y-73393646D01*
X130670883Y-73406731D01*
X130663442Y-73419147D01*
X130654819Y-73430773D01*
X130645098Y-73441498D01*
X130634373Y-73451219D01*
X130622747Y-73459842D01*
X130610331Y-73467283D01*
X130597246Y-73473472D01*
X130583617Y-73478349D01*
X130569576Y-73481866D01*
X130555258Y-73483990D01*
X130540800Y-73484700D01*
X130245800Y-73484700D01*
X130231342Y-73483990D01*
X130217024Y-73481866D01*
X130202983Y-73478349D01*
X130189354Y-73473472D01*
X130176269Y-73467283D01*
X130163853Y-73459842D01*
X130152227Y-73451219D01*
X130141502Y-73441498D01*
X130131781Y-73430773D01*
X130123158Y-73419147D01*
X130115717Y-73406731D01*
X130109528Y-73393646D01*
X130104651Y-73380017D01*
X130101134Y-73365976D01*
X130099010Y-73351658D01*
X130098300Y-73337200D01*
X130098300Y-72992200D01*
X130099010Y-72977742D01*
X130101134Y-72963424D01*
X130104651Y-72949383D01*
X130109528Y-72935754D01*
X130115717Y-72922669D01*
X130123158Y-72910253D01*
X130131781Y-72898627D01*
X130141502Y-72887902D01*
X130152227Y-72878181D01*
X130163853Y-72869558D01*
X130176269Y-72862117D01*
X130189354Y-72855928D01*
X130202983Y-72851051D01*
X130217024Y-72847534D01*
X130231342Y-72845410D01*
X130245800Y-72844700D01*
X130540800Y-72844700D01*
X130555258Y-72845410D01*
X130555258Y-72845410D01*
G37*
D11*
X130393300Y-73164700D03*
D10*
G36*
X129585258Y-72845410D02*
X129599576Y-72847534D01*
X129613617Y-72851051D01*
X129627246Y-72855928D01*
X129640331Y-72862117D01*
X129652747Y-72869558D01*
X129664373Y-72878181D01*
X129675098Y-72887902D01*
X129684819Y-72898627D01*
X129693442Y-72910253D01*
X129700883Y-72922669D01*
X129707072Y-72935754D01*
X129711949Y-72949383D01*
X129715466Y-72963424D01*
X129717590Y-72977742D01*
X129718300Y-72992200D01*
X129718300Y-73337200D01*
X129717590Y-73351658D01*
X129715466Y-73365976D01*
X129711949Y-73380017D01*
X129707072Y-73393646D01*
X129700883Y-73406731D01*
X129693442Y-73419147D01*
X129684819Y-73430773D01*
X129675098Y-73441498D01*
X129664373Y-73451219D01*
X129652747Y-73459842D01*
X129640331Y-73467283D01*
X129627246Y-73473472D01*
X129613617Y-73478349D01*
X129599576Y-73481866D01*
X129585258Y-73483990D01*
X129570800Y-73484700D01*
X129275800Y-73484700D01*
X129261342Y-73483990D01*
X129247024Y-73481866D01*
X129232983Y-73478349D01*
X129219354Y-73473472D01*
X129206269Y-73467283D01*
X129193853Y-73459842D01*
X129182227Y-73451219D01*
X129171502Y-73441498D01*
X129161781Y-73430773D01*
X129153158Y-73419147D01*
X129145717Y-73406731D01*
X129139528Y-73393646D01*
X129134651Y-73380017D01*
X129131134Y-73365976D01*
X129129010Y-73351658D01*
X129128300Y-73337200D01*
X129128300Y-72992200D01*
X129129010Y-72977742D01*
X129131134Y-72963424D01*
X129134651Y-72949383D01*
X129139528Y-72935754D01*
X129145717Y-72922669D01*
X129153158Y-72910253D01*
X129161781Y-72898627D01*
X129171502Y-72887902D01*
X129182227Y-72878181D01*
X129193853Y-72869558D01*
X129206269Y-72862117D01*
X129219354Y-72855928D01*
X129232983Y-72851051D01*
X129247024Y-72847534D01*
X129261342Y-72845410D01*
X129275800Y-72844700D01*
X129570800Y-72844700D01*
X129585258Y-72845410D01*
X129585258Y-72845410D01*
G37*
D11*
X129423300Y-73164700D03*
G04 #@! TD*
D14*
G04 #@! TO.C,U1*
X133077000Y-71904200D03*
X133477000Y-71904200D03*
X133877000Y-71904200D03*
X133877000Y-71504200D03*
X133477000Y-71504200D03*
X133077000Y-71504200D03*
G04 #@! TD*
D15*
G04 #@! TO.C,U3*
X137289900Y-75946000D03*
X136189900Y-75946000D03*
X135089900Y-75946000D03*
X133989900Y-75946000D03*
X132889900Y-75946000D03*
X131789900Y-75946000D03*
X130689900Y-75946000D03*
X129589900Y-75946000D03*
X128489900Y-75946000D03*
X137289900Y-85146000D03*
X136189900Y-85146000D03*
X135089900Y-85146000D03*
X133989900Y-85146000D03*
X132889900Y-85146000D03*
X131789900Y-85146000D03*
X130689900Y-85146000D03*
X129589900Y-85146000D03*
X128489900Y-85146000D03*
G04 #@! TD*
D16*
G04 #@! TO.C,U2*
X134158200Y-73609200D03*
X134158200Y-74109200D03*
X133583200Y-74109200D03*
X133583200Y-73609200D03*
X133870700Y-73109200D03*
G04 #@! TD*
D10*
G04 #@! TO.C,R2*
G36*
X133636558Y-66482710D02*
X133650876Y-66484834D01*
X133664917Y-66488351D01*
X133678546Y-66493228D01*
X133691631Y-66499417D01*
X133704047Y-66506858D01*
X133715673Y-66515481D01*
X133726398Y-66525202D01*
X133736119Y-66535927D01*
X133744742Y-66547553D01*
X133752183Y-66559969D01*
X133758372Y-66573054D01*
X133763249Y-66586683D01*
X133766766Y-66600724D01*
X133768890Y-66615042D01*
X133769600Y-66629500D01*
X133769600Y-66974500D01*
X133768890Y-66988958D01*
X133766766Y-67003276D01*
X133763249Y-67017317D01*
X133758372Y-67030946D01*
X133752183Y-67044031D01*
X133744742Y-67056447D01*
X133736119Y-67068073D01*
X133726398Y-67078798D01*
X133715673Y-67088519D01*
X133704047Y-67097142D01*
X133691631Y-67104583D01*
X133678546Y-67110772D01*
X133664917Y-67115649D01*
X133650876Y-67119166D01*
X133636558Y-67121290D01*
X133622100Y-67122000D01*
X133327100Y-67122000D01*
X133312642Y-67121290D01*
X133298324Y-67119166D01*
X133284283Y-67115649D01*
X133270654Y-67110772D01*
X133257569Y-67104583D01*
X133245153Y-67097142D01*
X133233527Y-67088519D01*
X133222802Y-67078798D01*
X133213081Y-67068073D01*
X133204458Y-67056447D01*
X133197017Y-67044031D01*
X133190828Y-67030946D01*
X133185951Y-67017317D01*
X133182434Y-67003276D01*
X133180310Y-66988958D01*
X133179600Y-66974500D01*
X133179600Y-66629500D01*
X133180310Y-66615042D01*
X133182434Y-66600724D01*
X133185951Y-66586683D01*
X133190828Y-66573054D01*
X133197017Y-66559969D01*
X133204458Y-66547553D01*
X133213081Y-66535927D01*
X133222802Y-66525202D01*
X133233527Y-66515481D01*
X133245153Y-66506858D01*
X133257569Y-66499417D01*
X133270654Y-66493228D01*
X133284283Y-66488351D01*
X133298324Y-66484834D01*
X133312642Y-66482710D01*
X133327100Y-66482000D01*
X133622100Y-66482000D01*
X133636558Y-66482710D01*
X133636558Y-66482710D01*
G37*
D11*
X133474600Y-66802000D03*
D10*
G36*
X134606558Y-66482710D02*
X134620876Y-66484834D01*
X134634917Y-66488351D01*
X134648546Y-66493228D01*
X134661631Y-66499417D01*
X134674047Y-66506858D01*
X134685673Y-66515481D01*
X134696398Y-66525202D01*
X134706119Y-66535927D01*
X134714742Y-66547553D01*
X134722183Y-66559969D01*
X134728372Y-66573054D01*
X134733249Y-66586683D01*
X134736766Y-66600724D01*
X134738890Y-66615042D01*
X134739600Y-66629500D01*
X134739600Y-66974500D01*
X134738890Y-66988958D01*
X134736766Y-67003276D01*
X134733249Y-67017317D01*
X134728372Y-67030946D01*
X134722183Y-67044031D01*
X134714742Y-67056447D01*
X134706119Y-67068073D01*
X134696398Y-67078798D01*
X134685673Y-67088519D01*
X134674047Y-67097142D01*
X134661631Y-67104583D01*
X134648546Y-67110772D01*
X134634917Y-67115649D01*
X134620876Y-67119166D01*
X134606558Y-67121290D01*
X134592100Y-67122000D01*
X134297100Y-67122000D01*
X134282642Y-67121290D01*
X134268324Y-67119166D01*
X134254283Y-67115649D01*
X134240654Y-67110772D01*
X134227569Y-67104583D01*
X134215153Y-67097142D01*
X134203527Y-67088519D01*
X134192802Y-67078798D01*
X134183081Y-67068073D01*
X134174458Y-67056447D01*
X134167017Y-67044031D01*
X134160828Y-67030946D01*
X134155951Y-67017317D01*
X134152434Y-67003276D01*
X134150310Y-66988958D01*
X134149600Y-66974500D01*
X134149600Y-66629500D01*
X134150310Y-66615042D01*
X134152434Y-66600724D01*
X134155951Y-66586683D01*
X134160828Y-66573054D01*
X134167017Y-66559969D01*
X134174458Y-66547553D01*
X134183081Y-66535927D01*
X134192802Y-66525202D01*
X134203527Y-66515481D01*
X134215153Y-66506858D01*
X134227569Y-66499417D01*
X134240654Y-66493228D01*
X134254283Y-66488351D01*
X134268324Y-66484834D01*
X134282642Y-66482710D01*
X134297100Y-66482000D01*
X134592100Y-66482000D01*
X134606558Y-66482710D01*
X134606558Y-66482710D01*
G37*
D11*
X134444600Y-66802000D03*
G04 #@! TD*
D10*
G04 #@! TO.C,R3*
G36*
X136369058Y-71051910D02*
X136383376Y-71054034D01*
X136397417Y-71057551D01*
X136411046Y-71062428D01*
X136424131Y-71068617D01*
X136436547Y-71076058D01*
X136448173Y-71084681D01*
X136458898Y-71094402D01*
X136468619Y-71105127D01*
X136477242Y-71116753D01*
X136484683Y-71129169D01*
X136490872Y-71142254D01*
X136495749Y-71155883D01*
X136499266Y-71169924D01*
X136501390Y-71184242D01*
X136502100Y-71198700D01*
X136502100Y-71493700D01*
X136501390Y-71508158D01*
X136499266Y-71522476D01*
X136495749Y-71536517D01*
X136490872Y-71550146D01*
X136484683Y-71563231D01*
X136477242Y-71575647D01*
X136468619Y-71587273D01*
X136458898Y-71597998D01*
X136448173Y-71607719D01*
X136436547Y-71616342D01*
X136424131Y-71623783D01*
X136411046Y-71629972D01*
X136397417Y-71634849D01*
X136383376Y-71638366D01*
X136369058Y-71640490D01*
X136354600Y-71641200D01*
X136009600Y-71641200D01*
X135995142Y-71640490D01*
X135980824Y-71638366D01*
X135966783Y-71634849D01*
X135953154Y-71629972D01*
X135940069Y-71623783D01*
X135927653Y-71616342D01*
X135916027Y-71607719D01*
X135905302Y-71597998D01*
X135895581Y-71587273D01*
X135886958Y-71575647D01*
X135879517Y-71563231D01*
X135873328Y-71550146D01*
X135868451Y-71536517D01*
X135864934Y-71522476D01*
X135862810Y-71508158D01*
X135862100Y-71493700D01*
X135862100Y-71198700D01*
X135862810Y-71184242D01*
X135864934Y-71169924D01*
X135868451Y-71155883D01*
X135873328Y-71142254D01*
X135879517Y-71129169D01*
X135886958Y-71116753D01*
X135895581Y-71105127D01*
X135905302Y-71094402D01*
X135916027Y-71084681D01*
X135927653Y-71076058D01*
X135940069Y-71068617D01*
X135953154Y-71062428D01*
X135966783Y-71057551D01*
X135980824Y-71054034D01*
X135995142Y-71051910D01*
X136009600Y-71051200D01*
X136354600Y-71051200D01*
X136369058Y-71051910D01*
X136369058Y-71051910D01*
G37*
D11*
X136182100Y-71346200D03*
D10*
G36*
X136369058Y-72021910D02*
X136383376Y-72024034D01*
X136397417Y-72027551D01*
X136411046Y-72032428D01*
X136424131Y-72038617D01*
X136436547Y-72046058D01*
X136448173Y-72054681D01*
X136458898Y-72064402D01*
X136468619Y-72075127D01*
X136477242Y-72086753D01*
X136484683Y-72099169D01*
X136490872Y-72112254D01*
X136495749Y-72125883D01*
X136499266Y-72139924D01*
X136501390Y-72154242D01*
X136502100Y-72168700D01*
X136502100Y-72463700D01*
X136501390Y-72478158D01*
X136499266Y-72492476D01*
X136495749Y-72506517D01*
X136490872Y-72520146D01*
X136484683Y-72533231D01*
X136477242Y-72545647D01*
X136468619Y-72557273D01*
X136458898Y-72567998D01*
X136448173Y-72577719D01*
X136436547Y-72586342D01*
X136424131Y-72593783D01*
X136411046Y-72599972D01*
X136397417Y-72604849D01*
X136383376Y-72608366D01*
X136369058Y-72610490D01*
X136354600Y-72611200D01*
X136009600Y-72611200D01*
X135995142Y-72610490D01*
X135980824Y-72608366D01*
X135966783Y-72604849D01*
X135953154Y-72599972D01*
X135940069Y-72593783D01*
X135927653Y-72586342D01*
X135916027Y-72577719D01*
X135905302Y-72567998D01*
X135895581Y-72557273D01*
X135886958Y-72545647D01*
X135879517Y-72533231D01*
X135873328Y-72520146D01*
X135868451Y-72506517D01*
X135864934Y-72492476D01*
X135862810Y-72478158D01*
X135862100Y-72463700D01*
X135862100Y-72168700D01*
X135862810Y-72154242D01*
X135864934Y-72139924D01*
X135868451Y-72125883D01*
X135873328Y-72112254D01*
X135879517Y-72099169D01*
X135886958Y-72086753D01*
X135895581Y-72075127D01*
X135905302Y-72064402D01*
X135916027Y-72054681D01*
X135927653Y-72046058D01*
X135940069Y-72038617D01*
X135953154Y-72032428D01*
X135966783Y-72027551D01*
X135980824Y-72024034D01*
X135995142Y-72021910D01*
X136009600Y-72021200D01*
X136354600Y-72021200D01*
X136369058Y-72021910D01*
X136369058Y-72021910D01*
G37*
D11*
X136182100Y-72316200D03*
G04 #@! TD*
M02*
