G04 #@! TF.GenerationSoftware,KiCad,Pcbnew,(5.0.1)-3*
G04 #@! TF.CreationDate,2018-11-05T23:25:50+01:00*
G04 #@! TF.ProjectId,project,70726F6A6563742E6B696361645F7063,rev?*
G04 #@! TF.SameCoordinates,Original*
G04 #@! TF.FileFunction,Soldermask,Bot*
G04 #@! TF.FilePolarity,Negative*
%FSLAX46Y46*%
G04 Gerber Fmt 4.6, Leading zero omitted, Abs format (unit mm)*
G04 Created by KiCad (PCBNEW (5.0.1)-3) date 11/05/18 23:25:50*
%MOMM*%
%LPD*%
G01*
G04 APERTURE LIST*
%ADD10C,0.100000*%
G04 APERTURE END LIST*
D10*
G36*
X141410900Y-86041000D02*
X139608900Y-86041000D01*
X139608900Y-84239000D01*
X141410900Y-84239000D01*
X141410900Y-86041000D01*
X141410900Y-86041000D01*
G37*
G36*
X125459412Y-84273624D02*
X125623384Y-84341544D01*
X125770954Y-84440147D01*
X125896453Y-84565646D01*
X125995056Y-84713216D01*
X126062976Y-84877188D01*
X126097600Y-85051259D01*
X126097600Y-85228741D01*
X126062976Y-85402812D01*
X125995056Y-85566784D01*
X125896453Y-85714354D01*
X125770954Y-85839853D01*
X125623384Y-85938456D01*
X125459412Y-86006376D01*
X125285341Y-86041000D01*
X125107859Y-86041000D01*
X124933788Y-86006376D01*
X124769816Y-85938456D01*
X124622246Y-85839853D01*
X124496747Y-85714354D01*
X124398144Y-85566784D01*
X124330224Y-85402812D01*
X124295600Y-85228741D01*
X124295600Y-85051259D01*
X124330224Y-84877188D01*
X124398144Y-84713216D01*
X124496747Y-84565646D01*
X124622246Y-84440147D01*
X124769816Y-84341544D01*
X124933788Y-84273624D01*
X125107859Y-84239000D01*
X125285341Y-84239000D01*
X125459412Y-84273624D01*
X125459412Y-84273624D01*
G37*
G36*
X130895870Y-84147903D02*
X130907579Y-84151455D01*
X130918362Y-84157219D01*
X130927820Y-84164980D01*
X130935581Y-84174438D01*
X130941345Y-84185221D01*
X130944897Y-84196930D01*
X130946700Y-84215238D01*
X130946700Y-84638962D01*
X130944897Y-84657270D01*
X130941346Y-84668975D01*
X130931083Y-84688176D01*
X130921706Y-84710815D01*
X130916926Y-84734849D01*
X130916926Y-84759353D01*
X130921707Y-84783386D01*
X130931083Y-84806024D01*
X130941346Y-84825225D01*
X130944897Y-84836930D01*
X130946700Y-84855238D01*
X130946700Y-85278962D01*
X130944897Y-85297270D01*
X130941345Y-85308979D01*
X130935581Y-85319762D01*
X130927820Y-85329220D01*
X130918362Y-85336981D01*
X130907579Y-85342745D01*
X130895870Y-85346297D01*
X130877562Y-85348100D01*
X130513838Y-85348100D01*
X130495530Y-85346297D01*
X130483821Y-85342745D01*
X130473038Y-85336981D01*
X130463580Y-85329220D01*
X130455819Y-85319762D01*
X130450055Y-85308979D01*
X130446503Y-85297270D01*
X130444700Y-85278962D01*
X130444700Y-84855238D01*
X130446503Y-84836930D01*
X130450054Y-84825225D01*
X130460317Y-84806024D01*
X130469694Y-84783385D01*
X130474474Y-84759351D01*
X130474474Y-84734847D01*
X130469693Y-84710814D01*
X130460317Y-84688176D01*
X130450054Y-84668975D01*
X130446503Y-84657270D01*
X130444700Y-84638962D01*
X130444700Y-84215238D01*
X130446503Y-84196930D01*
X130450055Y-84185221D01*
X130455819Y-84174438D01*
X130463580Y-84164980D01*
X130473038Y-84157219D01*
X130483821Y-84151455D01*
X130495530Y-84147903D01*
X130513838Y-84146100D01*
X130877562Y-84146100D01*
X130895870Y-84147903D01*
X130895870Y-84147903D01*
G37*
G36*
X131988070Y-84147903D02*
X131999779Y-84151455D01*
X132010562Y-84157219D01*
X132020020Y-84164980D01*
X132027781Y-84174438D01*
X132033545Y-84185221D01*
X132037097Y-84196930D01*
X132038900Y-84215238D01*
X132038900Y-84638962D01*
X132037097Y-84657270D01*
X132033546Y-84668975D01*
X132023283Y-84688176D01*
X132013906Y-84710815D01*
X132009126Y-84734849D01*
X132009126Y-84759353D01*
X132013907Y-84783386D01*
X132023283Y-84806024D01*
X132033546Y-84825225D01*
X132037097Y-84836930D01*
X132038900Y-84855238D01*
X132038900Y-85278962D01*
X132037097Y-85297270D01*
X132033545Y-85308979D01*
X132027781Y-85319762D01*
X132020020Y-85329220D01*
X132010562Y-85336981D01*
X131999779Y-85342745D01*
X131988070Y-85346297D01*
X131969762Y-85348100D01*
X131606038Y-85348100D01*
X131587730Y-85346297D01*
X131576021Y-85342745D01*
X131565238Y-85336981D01*
X131555780Y-85329220D01*
X131548019Y-85319762D01*
X131542255Y-85308979D01*
X131538703Y-85297270D01*
X131536900Y-85278962D01*
X131536900Y-84855238D01*
X131538703Y-84836930D01*
X131542254Y-84825225D01*
X131552517Y-84806024D01*
X131561894Y-84783385D01*
X131566674Y-84759351D01*
X131566674Y-84734847D01*
X131561893Y-84710814D01*
X131552517Y-84688176D01*
X131542254Y-84668975D01*
X131538703Y-84657270D01*
X131536900Y-84638962D01*
X131536900Y-84215238D01*
X131538703Y-84196930D01*
X131542255Y-84185221D01*
X131548019Y-84174438D01*
X131555780Y-84164980D01*
X131565238Y-84157219D01*
X131576021Y-84151455D01*
X131587730Y-84147903D01*
X131606038Y-84146100D01*
X131969762Y-84146100D01*
X131988070Y-84147903D01*
X131988070Y-84147903D01*
G37*
G36*
X136389890Y-84147903D02*
X136401599Y-84151455D01*
X136412382Y-84157219D01*
X136421840Y-84164980D01*
X136429601Y-84174438D01*
X136435365Y-84185221D01*
X136438917Y-84196930D01*
X136440720Y-84215238D01*
X136440720Y-84638962D01*
X136438917Y-84657270D01*
X136435366Y-84668975D01*
X136425103Y-84688176D01*
X136415726Y-84710815D01*
X136410946Y-84734849D01*
X136410946Y-84759353D01*
X136415727Y-84783386D01*
X136425103Y-84806024D01*
X136435366Y-84825225D01*
X136438917Y-84836930D01*
X136440720Y-84855238D01*
X136440720Y-85278962D01*
X136438917Y-85297270D01*
X136435365Y-85308979D01*
X136429601Y-85319762D01*
X136421840Y-85329220D01*
X136412382Y-85336981D01*
X136401599Y-85342745D01*
X136389890Y-85346297D01*
X136371582Y-85348100D01*
X136007858Y-85348100D01*
X135989550Y-85346297D01*
X135977841Y-85342745D01*
X135967058Y-85336981D01*
X135957600Y-85329220D01*
X135949839Y-85319762D01*
X135944075Y-85308979D01*
X135940523Y-85297270D01*
X135938720Y-85278962D01*
X135938720Y-84855238D01*
X135940523Y-84836930D01*
X135944074Y-84825225D01*
X135954337Y-84806024D01*
X135963714Y-84783385D01*
X135968494Y-84759351D01*
X135968494Y-84734847D01*
X135963713Y-84710814D01*
X135954337Y-84688176D01*
X135944074Y-84668975D01*
X135940523Y-84657270D01*
X135938720Y-84638962D01*
X135938720Y-84215238D01*
X135940523Y-84196930D01*
X135944075Y-84185221D01*
X135949839Y-84174438D01*
X135957600Y-84164980D01*
X135967058Y-84157219D01*
X135977841Y-84151455D01*
X135989550Y-84147903D01*
X136007858Y-84146100D01*
X136371582Y-84146100D01*
X136389890Y-84147903D01*
X136389890Y-84147903D01*
G37*
G36*
X129790970Y-84147903D02*
X129802679Y-84151455D01*
X129813462Y-84157219D01*
X129822920Y-84164980D01*
X129830681Y-84174438D01*
X129836445Y-84185221D01*
X129839997Y-84196930D01*
X129841800Y-84215238D01*
X129841800Y-84638962D01*
X129839997Y-84657270D01*
X129836446Y-84668975D01*
X129826183Y-84688176D01*
X129816806Y-84710815D01*
X129812026Y-84734849D01*
X129812026Y-84759353D01*
X129816807Y-84783386D01*
X129826183Y-84806024D01*
X129836446Y-84825225D01*
X129839997Y-84836930D01*
X129841800Y-84855238D01*
X129841800Y-85278962D01*
X129839997Y-85297270D01*
X129836445Y-85308979D01*
X129830681Y-85319762D01*
X129822920Y-85329220D01*
X129813462Y-85336981D01*
X129802679Y-85342745D01*
X129790970Y-85346297D01*
X129772662Y-85348100D01*
X129408938Y-85348100D01*
X129390630Y-85346297D01*
X129378921Y-85342745D01*
X129368138Y-85336981D01*
X129358680Y-85329220D01*
X129350919Y-85319762D01*
X129345155Y-85308979D01*
X129341603Y-85297270D01*
X129339800Y-85278962D01*
X129339800Y-84855238D01*
X129341603Y-84836930D01*
X129345154Y-84825225D01*
X129355417Y-84806024D01*
X129364794Y-84783385D01*
X129369574Y-84759351D01*
X129369574Y-84734847D01*
X129364793Y-84710814D01*
X129355417Y-84688176D01*
X129345154Y-84668975D01*
X129341603Y-84657270D01*
X129339800Y-84638962D01*
X129339800Y-84215238D01*
X129341603Y-84196930D01*
X129345155Y-84185221D01*
X129350919Y-84174438D01*
X129358680Y-84164980D01*
X129368138Y-84157219D01*
X129378921Y-84151455D01*
X129390630Y-84147903D01*
X129408938Y-84146100D01*
X129772662Y-84146100D01*
X129790970Y-84147903D01*
X129790970Y-84147903D01*
G37*
G36*
X125307043Y-81705519D02*
X125373227Y-81712037D01*
X125465504Y-81740029D01*
X125543067Y-81763557D01*
X125657482Y-81824714D01*
X125699591Y-81847222D01*
X125725893Y-81868808D01*
X125836786Y-81959814D01*
X125920048Y-82061271D01*
X125949378Y-82097009D01*
X125949379Y-82097011D01*
X126033043Y-82253533D01*
X126035125Y-82260396D01*
X126084563Y-82423373D01*
X126101959Y-82600000D01*
X126084563Y-82776627D01*
X126061555Y-82852474D01*
X126033043Y-82946467D01*
X125958948Y-83085087D01*
X125949378Y-83102991D01*
X125920048Y-83138729D01*
X125836786Y-83240186D01*
X125735329Y-83323448D01*
X125699591Y-83352778D01*
X125699589Y-83352779D01*
X125543067Y-83436443D01*
X125486453Y-83453616D01*
X125373227Y-83487963D01*
X125307042Y-83494482D01*
X125240860Y-83501000D01*
X125152340Y-83501000D01*
X125086158Y-83494482D01*
X125019973Y-83487963D01*
X124906747Y-83453616D01*
X124850133Y-83436443D01*
X124693611Y-83352779D01*
X124693609Y-83352778D01*
X124657871Y-83323448D01*
X124556414Y-83240186D01*
X124473152Y-83138729D01*
X124443822Y-83102991D01*
X124434252Y-83085087D01*
X124360157Y-82946467D01*
X124331645Y-82852474D01*
X124308637Y-82776627D01*
X124291241Y-82600000D01*
X124308637Y-82423373D01*
X124358075Y-82260396D01*
X124360157Y-82253533D01*
X124443821Y-82097011D01*
X124443822Y-82097009D01*
X124473152Y-82061271D01*
X124556414Y-81959814D01*
X124667307Y-81868808D01*
X124693609Y-81847222D01*
X124735718Y-81824714D01*
X124850133Y-81763557D01*
X124927696Y-81740029D01*
X125019973Y-81712037D01*
X125086157Y-81705519D01*
X125152340Y-81699000D01*
X125240860Y-81699000D01*
X125307043Y-81705519D01*
X125307043Y-81705519D01*
G37*
G36*
X140620343Y-81705519D02*
X140686527Y-81712037D01*
X140778804Y-81740029D01*
X140856367Y-81763557D01*
X140970782Y-81824714D01*
X141012891Y-81847222D01*
X141039193Y-81868808D01*
X141150086Y-81959814D01*
X141233348Y-82061271D01*
X141262678Y-82097009D01*
X141262679Y-82097011D01*
X141346343Y-82253533D01*
X141348425Y-82260396D01*
X141397863Y-82423373D01*
X141415259Y-82600000D01*
X141397863Y-82776627D01*
X141374855Y-82852474D01*
X141346343Y-82946467D01*
X141272248Y-83085087D01*
X141262678Y-83102991D01*
X141233348Y-83138729D01*
X141150086Y-83240186D01*
X141048629Y-83323448D01*
X141012891Y-83352778D01*
X141012889Y-83352779D01*
X140856367Y-83436443D01*
X140799753Y-83453616D01*
X140686527Y-83487963D01*
X140620342Y-83494482D01*
X140554160Y-83501000D01*
X140465640Y-83501000D01*
X140399458Y-83494482D01*
X140333273Y-83487963D01*
X140220047Y-83453616D01*
X140163433Y-83436443D01*
X140006911Y-83352779D01*
X140006909Y-83352778D01*
X139971171Y-83323448D01*
X139869714Y-83240186D01*
X139786452Y-83138729D01*
X139757122Y-83102991D01*
X139747552Y-83085087D01*
X139673457Y-82946467D01*
X139644945Y-82852474D01*
X139621937Y-82776627D01*
X139604541Y-82600000D01*
X139621937Y-82423373D01*
X139671375Y-82260396D01*
X139673457Y-82253533D01*
X139757121Y-82097011D01*
X139757122Y-82097009D01*
X139786452Y-82061271D01*
X139869714Y-81959814D01*
X139980607Y-81868808D01*
X140006909Y-81847222D01*
X140049018Y-81824714D01*
X140163433Y-81763557D01*
X140240996Y-81740029D01*
X140333273Y-81712037D01*
X140399457Y-81705519D01*
X140465640Y-81699000D01*
X140554160Y-81699000D01*
X140620343Y-81705519D01*
X140620343Y-81705519D01*
G37*
G36*
X127494438Y-82156316D02*
X127515056Y-82162570D01*
X127534056Y-82172726D01*
X127550708Y-82186392D01*
X127564374Y-82203044D01*
X127574530Y-82222044D01*
X127580784Y-82242662D01*
X127583500Y-82270240D01*
X127583500Y-82778960D01*
X127580784Y-82806538D01*
X127574530Y-82827156D01*
X127564374Y-82846156D01*
X127550708Y-82862808D01*
X127534056Y-82876474D01*
X127515056Y-82886630D01*
X127494438Y-82892884D01*
X127466860Y-82895600D01*
X127008140Y-82895600D01*
X126980562Y-82892884D01*
X126959944Y-82886630D01*
X126940944Y-82876474D01*
X126924292Y-82862808D01*
X126910626Y-82846156D01*
X126900470Y-82827156D01*
X126894216Y-82806538D01*
X126891500Y-82778960D01*
X126891500Y-82270240D01*
X126894216Y-82242662D01*
X126900470Y-82222044D01*
X126910626Y-82203044D01*
X126924292Y-82186392D01*
X126940944Y-82172726D01*
X126959944Y-82162570D01*
X126980562Y-82156316D01*
X127008140Y-82153600D01*
X127466860Y-82153600D01*
X127494438Y-82156316D01*
X127494438Y-82156316D01*
G37*
G36*
X128464438Y-82156316D02*
X128485056Y-82162570D01*
X128504056Y-82172726D01*
X128520708Y-82186392D01*
X128534374Y-82203044D01*
X128544530Y-82222044D01*
X128550784Y-82242662D01*
X128553500Y-82270240D01*
X128553500Y-82778960D01*
X128550784Y-82806538D01*
X128544530Y-82827156D01*
X128534374Y-82846156D01*
X128520708Y-82862808D01*
X128504056Y-82876474D01*
X128485056Y-82886630D01*
X128464438Y-82892884D01*
X128436860Y-82895600D01*
X127978140Y-82895600D01*
X127950562Y-82892884D01*
X127929944Y-82886630D01*
X127910944Y-82876474D01*
X127894292Y-82862808D01*
X127880626Y-82846156D01*
X127870470Y-82827156D01*
X127864216Y-82806538D01*
X127861500Y-82778960D01*
X127861500Y-82270240D01*
X127864216Y-82242662D01*
X127870470Y-82222044D01*
X127880626Y-82203044D01*
X127894292Y-82186392D01*
X127910944Y-82172726D01*
X127929944Y-82162570D01*
X127950562Y-82156316D01*
X127978140Y-82153600D01*
X128436860Y-82153600D01*
X128464438Y-82156316D01*
X128464438Y-82156316D01*
G37*
G36*
X134279638Y-82182316D02*
X134300256Y-82188570D01*
X134319256Y-82198726D01*
X134335908Y-82212392D01*
X134349574Y-82229044D01*
X134359730Y-82248044D01*
X134365984Y-82268662D01*
X134368700Y-82296240D01*
X134368700Y-82754960D01*
X134365984Y-82782538D01*
X134359730Y-82803156D01*
X134349574Y-82822156D01*
X134335908Y-82838808D01*
X134319256Y-82852474D01*
X134300256Y-82862630D01*
X134279638Y-82868884D01*
X134252060Y-82871600D01*
X133743340Y-82871600D01*
X133715762Y-82868884D01*
X133695144Y-82862630D01*
X133676144Y-82852474D01*
X133659492Y-82838808D01*
X133645826Y-82822156D01*
X133635670Y-82803156D01*
X133629416Y-82782538D01*
X133626700Y-82754960D01*
X133626700Y-82296240D01*
X133629416Y-82268662D01*
X133635670Y-82248044D01*
X133645826Y-82229044D01*
X133659492Y-82212392D01*
X133676144Y-82198726D01*
X133695144Y-82188570D01*
X133715762Y-82182316D01*
X133743340Y-82179600D01*
X134252060Y-82179600D01*
X134279638Y-82182316D01*
X134279638Y-82182316D01*
G37*
G36*
X134279638Y-81212316D02*
X134300256Y-81218570D01*
X134319256Y-81228726D01*
X134335908Y-81242392D01*
X134349574Y-81259044D01*
X134359730Y-81278044D01*
X134365984Y-81298662D01*
X134368700Y-81326240D01*
X134368700Y-81784960D01*
X134365984Y-81812538D01*
X134359730Y-81833156D01*
X134349574Y-81852156D01*
X134335908Y-81868808D01*
X134319256Y-81882474D01*
X134300256Y-81892630D01*
X134279638Y-81898884D01*
X134252060Y-81901600D01*
X133743340Y-81901600D01*
X133715762Y-81898884D01*
X133695144Y-81892630D01*
X133676144Y-81882474D01*
X133659492Y-81868808D01*
X133645826Y-81852156D01*
X133635670Y-81833156D01*
X133629416Y-81812538D01*
X133626700Y-81784960D01*
X133626700Y-81326240D01*
X133629416Y-81298662D01*
X133635670Y-81278044D01*
X133645826Y-81259044D01*
X133659492Y-81242392D01*
X133676144Y-81228726D01*
X133695144Y-81218570D01*
X133715762Y-81212316D01*
X133743340Y-81209600D01*
X134252060Y-81209600D01*
X134279638Y-81212316D01*
X134279638Y-81212316D01*
G37*
G36*
X128464438Y-81051416D02*
X128485056Y-81057670D01*
X128504056Y-81067826D01*
X128520708Y-81081492D01*
X128534374Y-81098144D01*
X128544530Y-81117144D01*
X128550784Y-81137762D01*
X128553500Y-81165340D01*
X128553500Y-81674060D01*
X128550784Y-81701638D01*
X128544530Y-81722256D01*
X128534374Y-81741256D01*
X128520708Y-81757908D01*
X128504056Y-81771574D01*
X128485056Y-81781730D01*
X128464438Y-81787984D01*
X128436860Y-81790700D01*
X127978140Y-81790700D01*
X127950562Y-81787984D01*
X127929944Y-81781730D01*
X127910944Y-81771574D01*
X127894292Y-81757908D01*
X127880626Y-81741256D01*
X127870470Y-81722256D01*
X127864216Y-81701638D01*
X127861500Y-81674060D01*
X127861500Y-81165340D01*
X127864216Y-81137762D01*
X127870470Y-81117144D01*
X127880626Y-81098144D01*
X127894292Y-81081492D01*
X127910944Y-81067826D01*
X127929944Y-81057670D01*
X127950562Y-81051416D01*
X127978140Y-81048700D01*
X128436860Y-81048700D01*
X128464438Y-81051416D01*
X128464438Y-81051416D01*
G37*
G36*
X127494438Y-81051416D02*
X127515056Y-81057670D01*
X127534056Y-81067826D01*
X127550708Y-81081492D01*
X127564374Y-81098144D01*
X127574530Y-81117144D01*
X127580784Y-81137762D01*
X127583500Y-81165340D01*
X127583500Y-81674060D01*
X127580784Y-81701638D01*
X127574530Y-81722256D01*
X127564374Y-81741256D01*
X127550708Y-81757908D01*
X127534056Y-81771574D01*
X127515056Y-81781730D01*
X127494438Y-81787984D01*
X127466860Y-81790700D01*
X127008140Y-81790700D01*
X126980562Y-81787984D01*
X126959944Y-81781730D01*
X126940944Y-81771574D01*
X126924292Y-81757908D01*
X126910626Y-81741256D01*
X126900470Y-81722256D01*
X126894216Y-81701638D01*
X126891500Y-81674060D01*
X126891500Y-81165340D01*
X126894216Y-81137762D01*
X126900470Y-81117144D01*
X126910626Y-81098144D01*
X126924292Y-81081492D01*
X126940944Y-81067826D01*
X126959944Y-81057670D01*
X126980562Y-81051416D01*
X127008140Y-81048700D01*
X127466860Y-81048700D01*
X127494438Y-81051416D01*
X127494438Y-81051416D01*
G37*
G36*
X125307042Y-79165518D02*
X125373227Y-79172037D01*
X125483148Y-79205381D01*
X125543067Y-79223557D01*
X125681687Y-79297652D01*
X125699591Y-79307222D01*
X125735329Y-79336552D01*
X125836786Y-79419814D01*
X125920048Y-79521271D01*
X125949378Y-79557009D01*
X125949379Y-79557011D01*
X126033043Y-79713533D01*
X126033043Y-79713534D01*
X126084563Y-79883373D01*
X126101959Y-80060000D01*
X126084563Y-80236627D01*
X126050216Y-80349853D01*
X126033043Y-80406467D01*
X125958948Y-80545087D01*
X125949378Y-80562991D01*
X125920048Y-80598729D01*
X125836786Y-80700186D01*
X125735329Y-80783448D01*
X125699591Y-80812778D01*
X125699589Y-80812779D01*
X125543067Y-80896443D01*
X125486453Y-80913616D01*
X125373227Y-80947963D01*
X125307043Y-80954481D01*
X125240860Y-80961000D01*
X125152340Y-80961000D01*
X125086157Y-80954481D01*
X125019973Y-80947963D01*
X124906747Y-80913616D01*
X124850133Y-80896443D01*
X124693611Y-80812779D01*
X124693609Y-80812778D01*
X124657871Y-80783448D01*
X124556414Y-80700186D01*
X124473152Y-80598729D01*
X124443822Y-80562991D01*
X124434252Y-80545087D01*
X124360157Y-80406467D01*
X124342984Y-80349853D01*
X124308637Y-80236627D01*
X124291241Y-80060000D01*
X124308637Y-79883373D01*
X124360157Y-79713534D01*
X124360157Y-79713533D01*
X124443821Y-79557011D01*
X124443822Y-79557009D01*
X124473152Y-79521271D01*
X124556414Y-79419814D01*
X124657871Y-79336552D01*
X124693609Y-79307222D01*
X124711513Y-79297652D01*
X124850133Y-79223557D01*
X124910052Y-79205381D01*
X125019973Y-79172037D01*
X125086158Y-79165518D01*
X125152340Y-79159000D01*
X125240860Y-79159000D01*
X125307042Y-79165518D01*
X125307042Y-79165518D01*
G37*
G36*
X140620342Y-79165518D02*
X140686527Y-79172037D01*
X140796448Y-79205381D01*
X140856367Y-79223557D01*
X140994987Y-79297652D01*
X141012891Y-79307222D01*
X141048629Y-79336552D01*
X141150086Y-79419814D01*
X141233348Y-79521271D01*
X141262678Y-79557009D01*
X141262679Y-79557011D01*
X141346343Y-79713533D01*
X141346343Y-79713534D01*
X141397863Y-79883373D01*
X141415259Y-80060000D01*
X141397863Y-80236627D01*
X141363516Y-80349853D01*
X141346343Y-80406467D01*
X141272248Y-80545087D01*
X141262678Y-80562991D01*
X141233348Y-80598729D01*
X141150086Y-80700186D01*
X141048629Y-80783448D01*
X141012891Y-80812778D01*
X141012889Y-80812779D01*
X140856367Y-80896443D01*
X140799753Y-80913616D01*
X140686527Y-80947963D01*
X140620343Y-80954481D01*
X140554160Y-80961000D01*
X140465640Y-80961000D01*
X140399457Y-80954481D01*
X140333273Y-80947963D01*
X140220047Y-80913616D01*
X140163433Y-80896443D01*
X140006911Y-80812779D01*
X140006909Y-80812778D01*
X139971171Y-80783448D01*
X139869714Y-80700186D01*
X139786452Y-80598729D01*
X139757122Y-80562991D01*
X139747552Y-80545087D01*
X139673457Y-80406467D01*
X139656284Y-80349853D01*
X139621937Y-80236627D01*
X139604541Y-80060000D01*
X139621937Y-79883373D01*
X139673457Y-79713534D01*
X139673457Y-79713533D01*
X139757121Y-79557011D01*
X139757122Y-79557009D01*
X139786452Y-79521271D01*
X139869714Y-79419814D01*
X139971171Y-79336552D01*
X140006909Y-79307222D01*
X140024813Y-79297652D01*
X140163433Y-79223557D01*
X140223352Y-79205381D01*
X140333273Y-79172037D01*
X140399458Y-79165518D01*
X140465640Y-79159000D01*
X140554160Y-79159000D01*
X140620342Y-79165518D01*
X140620342Y-79165518D01*
G37*
G36*
X133092970Y-78016303D02*
X133104679Y-78019855D01*
X133115462Y-78025619D01*
X133124920Y-78033380D01*
X133132681Y-78042838D01*
X133138445Y-78053621D01*
X133141997Y-78065330D01*
X133143800Y-78083638D01*
X133143800Y-78507362D01*
X133141997Y-78525670D01*
X133138446Y-78537375D01*
X133128183Y-78556576D01*
X133118806Y-78579215D01*
X133114026Y-78603249D01*
X133114026Y-78627753D01*
X133118807Y-78651786D01*
X133128183Y-78674424D01*
X133138446Y-78693625D01*
X133141997Y-78705330D01*
X133143800Y-78723638D01*
X133143800Y-79147362D01*
X133141997Y-79165670D01*
X133138445Y-79177379D01*
X133132681Y-79188162D01*
X133124920Y-79197620D01*
X133115462Y-79205381D01*
X133104679Y-79211145D01*
X133092970Y-79214697D01*
X133074662Y-79216500D01*
X132710938Y-79216500D01*
X132692630Y-79214697D01*
X132680921Y-79211145D01*
X132670138Y-79205381D01*
X132660680Y-79197620D01*
X132652919Y-79188162D01*
X132647155Y-79177379D01*
X132643603Y-79165670D01*
X132641800Y-79147362D01*
X132641800Y-78723638D01*
X132643603Y-78705330D01*
X132647154Y-78693625D01*
X132657417Y-78674424D01*
X132666794Y-78651785D01*
X132671574Y-78627751D01*
X132671574Y-78603247D01*
X132666793Y-78579214D01*
X132657417Y-78556576D01*
X132647154Y-78537375D01*
X132643603Y-78525670D01*
X132641800Y-78507362D01*
X132641800Y-78083638D01*
X132643603Y-78065330D01*
X132647155Y-78053621D01*
X132652919Y-78042838D01*
X132660680Y-78033380D01*
X132670138Y-78025619D01*
X132680921Y-78019855D01*
X132692630Y-78016303D01*
X132710938Y-78014500D01*
X133074662Y-78014500D01*
X133092970Y-78016303D01*
X133092970Y-78016303D01*
G37*
G36*
X125307043Y-76625519D02*
X125373227Y-76632037D01*
X125486453Y-76666384D01*
X125543067Y-76683557D01*
X125681687Y-76757652D01*
X125699591Y-76767222D01*
X125735329Y-76796552D01*
X125836786Y-76879814D01*
X125920048Y-76981271D01*
X125949378Y-77017009D01*
X125949379Y-77017011D01*
X126033043Y-77173533D01*
X126033043Y-77173534D01*
X126084563Y-77343373D01*
X126101959Y-77520000D01*
X126084563Y-77696627D01*
X126050216Y-77809853D01*
X126033043Y-77866467D01*
X125958948Y-78005087D01*
X125949378Y-78022991D01*
X125938988Y-78035651D01*
X125836786Y-78160186D01*
X125735329Y-78243448D01*
X125699591Y-78272778D01*
X125699589Y-78272779D01*
X125543067Y-78356443D01*
X125486453Y-78373616D01*
X125373227Y-78407963D01*
X125307042Y-78414482D01*
X125240860Y-78421000D01*
X125152340Y-78421000D01*
X125086158Y-78414482D01*
X125019973Y-78407963D01*
X124906747Y-78373616D01*
X124850133Y-78356443D01*
X124693611Y-78272779D01*
X124693609Y-78272778D01*
X124657871Y-78243448D01*
X124556414Y-78160186D01*
X124454212Y-78035651D01*
X124443822Y-78022991D01*
X124434252Y-78005087D01*
X124360157Y-77866467D01*
X124342984Y-77809853D01*
X124308637Y-77696627D01*
X124291241Y-77520000D01*
X124308637Y-77343373D01*
X124360157Y-77173534D01*
X124360157Y-77173533D01*
X124443821Y-77017011D01*
X124443822Y-77017009D01*
X124473152Y-76981271D01*
X124556414Y-76879814D01*
X124657871Y-76796552D01*
X124693609Y-76767222D01*
X124711513Y-76757652D01*
X124850133Y-76683557D01*
X124906747Y-76666384D01*
X125019973Y-76632037D01*
X125086157Y-76625519D01*
X125152340Y-76619000D01*
X125240860Y-76619000D01*
X125307043Y-76625519D01*
X125307043Y-76625519D01*
G37*
G36*
X140620343Y-76625519D02*
X140686527Y-76632037D01*
X140799753Y-76666384D01*
X140856367Y-76683557D01*
X140994987Y-76757652D01*
X141012891Y-76767222D01*
X141048629Y-76796552D01*
X141150086Y-76879814D01*
X141233348Y-76981271D01*
X141262678Y-77017009D01*
X141262679Y-77017011D01*
X141346343Y-77173533D01*
X141346343Y-77173534D01*
X141397863Y-77343373D01*
X141415259Y-77520000D01*
X141397863Y-77696627D01*
X141363516Y-77809853D01*
X141346343Y-77866467D01*
X141272248Y-78005087D01*
X141262678Y-78022991D01*
X141252288Y-78035651D01*
X141150086Y-78160186D01*
X141048629Y-78243448D01*
X141012891Y-78272778D01*
X141012889Y-78272779D01*
X140856367Y-78356443D01*
X140799753Y-78373616D01*
X140686527Y-78407963D01*
X140620342Y-78414482D01*
X140554160Y-78421000D01*
X140465640Y-78421000D01*
X140399458Y-78414482D01*
X140333273Y-78407963D01*
X140220047Y-78373616D01*
X140163433Y-78356443D01*
X140006911Y-78272779D01*
X140006909Y-78272778D01*
X139971171Y-78243448D01*
X139869714Y-78160186D01*
X139767512Y-78035651D01*
X139757122Y-78022991D01*
X139747552Y-78005087D01*
X139673457Y-77866467D01*
X139656284Y-77809853D01*
X139621937Y-77696627D01*
X139604541Y-77520000D01*
X139621937Y-77343373D01*
X139673457Y-77173534D01*
X139673457Y-77173533D01*
X139757121Y-77017011D01*
X139757122Y-77017009D01*
X139786452Y-76981271D01*
X139869714Y-76879814D01*
X139971171Y-76796552D01*
X140006909Y-76767222D01*
X140024813Y-76757652D01*
X140163433Y-76683557D01*
X140220047Y-76666384D01*
X140333273Y-76632037D01*
X140399457Y-76625519D01*
X140465640Y-76619000D01*
X140554160Y-76619000D01*
X140620343Y-76625519D01*
X140620343Y-76625519D01*
G37*
G36*
X125307042Y-74085518D02*
X125373227Y-74092037D01*
X125486453Y-74126384D01*
X125543067Y-74143557D01*
X125681687Y-74217652D01*
X125699591Y-74227222D01*
X125735329Y-74256552D01*
X125836786Y-74339814D01*
X125920048Y-74441271D01*
X125949378Y-74477009D01*
X125949379Y-74477011D01*
X126033043Y-74633533D01*
X126033043Y-74633534D01*
X126084563Y-74803373D01*
X126101959Y-74980000D01*
X126084563Y-75156627D01*
X126050216Y-75269853D01*
X126033043Y-75326467D01*
X125958948Y-75465087D01*
X125949378Y-75482991D01*
X125920048Y-75518729D01*
X125836786Y-75620186D01*
X125735329Y-75703448D01*
X125699591Y-75732778D01*
X125699589Y-75732779D01*
X125543067Y-75816443D01*
X125486453Y-75833616D01*
X125373227Y-75867963D01*
X125307042Y-75874482D01*
X125240860Y-75881000D01*
X125152340Y-75881000D01*
X125086158Y-75874482D01*
X125019973Y-75867963D01*
X124906747Y-75833616D01*
X124850133Y-75816443D01*
X124693611Y-75732779D01*
X124693609Y-75732778D01*
X124657871Y-75703448D01*
X124556414Y-75620186D01*
X124473152Y-75518729D01*
X124443822Y-75482991D01*
X124434252Y-75465087D01*
X124360157Y-75326467D01*
X124342984Y-75269853D01*
X124308637Y-75156627D01*
X124291241Y-74980000D01*
X124308637Y-74803373D01*
X124360157Y-74633534D01*
X124360157Y-74633533D01*
X124443821Y-74477011D01*
X124443822Y-74477009D01*
X124473152Y-74441271D01*
X124556414Y-74339814D01*
X124657871Y-74256552D01*
X124693609Y-74227222D01*
X124711513Y-74217652D01*
X124850133Y-74143557D01*
X124906747Y-74126384D01*
X125019973Y-74092037D01*
X125086158Y-74085518D01*
X125152340Y-74079000D01*
X125240860Y-74079000D01*
X125307042Y-74085518D01*
X125307042Y-74085518D01*
G37*
G36*
X140620342Y-74085518D02*
X140686527Y-74092037D01*
X140799753Y-74126384D01*
X140856367Y-74143557D01*
X140994987Y-74217652D01*
X141012891Y-74227222D01*
X141048629Y-74256552D01*
X141150086Y-74339814D01*
X141233348Y-74441271D01*
X141262678Y-74477009D01*
X141262679Y-74477011D01*
X141346343Y-74633533D01*
X141346343Y-74633534D01*
X141397863Y-74803373D01*
X141415259Y-74980000D01*
X141397863Y-75156627D01*
X141363516Y-75269853D01*
X141346343Y-75326467D01*
X141272248Y-75465087D01*
X141262678Y-75482991D01*
X141233348Y-75518729D01*
X141150086Y-75620186D01*
X141048629Y-75703448D01*
X141012891Y-75732778D01*
X141012889Y-75732779D01*
X140856367Y-75816443D01*
X140799753Y-75833616D01*
X140686527Y-75867963D01*
X140620342Y-75874482D01*
X140554160Y-75881000D01*
X140465640Y-75881000D01*
X140399458Y-75874482D01*
X140333273Y-75867963D01*
X140220047Y-75833616D01*
X140163433Y-75816443D01*
X140006911Y-75732779D01*
X140006909Y-75732778D01*
X139971171Y-75703448D01*
X139869714Y-75620186D01*
X139786452Y-75518729D01*
X139757122Y-75482991D01*
X139747552Y-75465087D01*
X139673457Y-75326467D01*
X139656284Y-75269853D01*
X139621937Y-75156627D01*
X139604541Y-74980000D01*
X139621937Y-74803373D01*
X139673457Y-74633534D01*
X139673457Y-74633533D01*
X139757121Y-74477011D01*
X139757122Y-74477009D01*
X139786452Y-74441271D01*
X139869714Y-74339814D01*
X139971171Y-74256552D01*
X140006909Y-74227222D01*
X140024813Y-74217652D01*
X140163433Y-74143557D01*
X140220047Y-74126384D01*
X140333273Y-74092037D01*
X140399458Y-74085518D01*
X140465640Y-74079000D01*
X140554160Y-74079000D01*
X140620342Y-74085518D01*
X140620342Y-74085518D01*
G37*
G36*
X128559826Y-72544645D02*
X128598497Y-72556376D01*
X128634139Y-72575428D01*
X128665377Y-72601063D01*
X128691012Y-72632301D01*
X128710064Y-72667943D01*
X128721795Y-72706614D01*
X128726360Y-72752968D01*
X128726360Y-73404192D01*
X128721795Y-73450546D01*
X128710064Y-73489217D01*
X128691012Y-73524859D01*
X128665377Y-73556097D01*
X128634139Y-73581732D01*
X128598497Y-73600784D01*
X128559826Y-73612515D01*
X128513472Y-73617080D01*
X127437248Y-73617080D01*
X127390894Y-73612515D01*
X127352223Y-73600784D01*
X127316581Y-73581732D01*
X127285343Y-73556097D01*
X127259708Y-73524859D01*
X127240656Y-73489217D01*
X127228925Y-73450546D01*
X127224360Y-73404192D01*
X127224360Y-72752968D01*
X127228925Y-72706614D01*
X127240656Y-72667943D01*
X127259708Y-72632301D01*
X127285343Y-72601063D01*
X127316581Y-72575428D01*
X127352223Y-72556376D01*
X127390894Y-72544645D01*
X127437248Y-72540080D01*
X128513472Y-72540080D01*
X128559826Y-72544645D01*
X128559826Y-72544645D01*
G37*
G36*
X125307043Y-71545519D02*
X125373227Y-71552037D01*
X125451787Y-71575868D01*
X125543067Y-71603557D01*
X125654685Y-71663219D01*
X125699591Y-71687222D01*
X125723364Y-71706732D01*
X125836786Y-71799814D01*
X125920048Y-71901271D01*
X125949378Y-71937009D01*
X125949379Y-71937011D01*
X126033043Y-72093533D01*
X126033043Y-72093534D01*
X126084563Y-72263373D01*
X126101959Y-72440000D01*
X126084563Y-72616627D01*
X126079808Y-72632301D01*
X126033043Y-72786467D01*
X126020822Y-72809330D01*
X125949378Y-72942991D01*
X125920048Y-72978729D01*
X125836786Y-73080186D01*
X125735329Y-73163448D01*
X125699591Y-73192778D01*
X125699589Y-73192779D01*
X125543067Y-73276443D01*
X125486453Y-73293616D01*
X125373227Y-73327963D01*
X125307043Y-73334481D01*
X125240860Y-73341000D01*
X125152340Y-73341000D01*
X125086157Y-73334481D01*
X125019973Y-73327963D01*
X124906747Y-73293616D01*
X124850133Y-73276443D01*
X124693611Y-73192779D01*
X124693609Y-73192778D01*
X124657871Y-73163448D01*
X124556414Y-73080186D01*
X124473152Y-72978729D01*
X124443822Y-72942991D01*
X124372378Y-72809330D01*
X124360157Y-72786467D01*
X124313392Y-72632301D01*
X124308637Y-72616627D01*
X124291241Y-72440000D01*
X124308637Y-72263373D01*
X124360157Y-72093534D01*
X124360157Y-72093533D01*
X124443821Y-71937011D01*
X124443822Y-71937009D01*
X124473152Y-71901271D01*
X124556414Y-71799814D01*
X124669836Y-71706732D01*
X124693609Y-71687222D01*
X124738515Y-71663219D01*
X124850133Y-71603557D01*
X124941413Y-71575868D01*
X125019973Y-71552037D01*
X125086157Y-71545519D01*
X125152340Y-71539000D01*
X125240860Y-71539000D01*
X125307043Y-71545519D01*
X125307043Y-71545519D01*
G37*
G36*
X140620343Y-71545519D02*
X140686527Y-71552037D01*
X140765087Y-71575868D01*
X140856367Y-71603557D01*
X140967985Y-71663219D01*
X141012891Y-71687222D01*
X141036664Y-71706732D01*
X141150086Y-71799814D01*
X141233348Y-71901271D01*
X141262678Y-71937009D01*
X141262679Y-71937011D01*
X141346343Y-72093533D01*
X141346343Y-72093534D01*
X141397863Y-72263373D01*
X141415259Y-72440000D01*
X141397863Y-72616627D01*
X141393108Y-72632301D01*
X141346343Y-72786467D01*
X141334122Y-72809330D01*
X141262678Y-72942991D01*
X141233348Y-72978729D01*
X141150086Y-73080186D01*
X141048629Y-73163448D01*
X141012891Y-73192778D01*
X141012889Y-73192779D01*
X140856367Y-73276443D01*
X140799753Y-73293616D01*
X140686527Y-73327963D01*
X140620343Y-73334481D01*
X140554160Y-73341000D01*
X140465640Y-73341000D01*
X140399457Y-73334481D01*
X140333273Y-73327963D01*
X140220047Y-73293616D01*
X140163433Y-73276443D01*
X140006911Y-73192779D01*
X140006909Y-73192778D01*
X139971171Y-73163448D01*
X139869714Y-73080186D01*
X139786452Y-72978729D01*
X139757122Y-72942991D01*
X139685678Y-72809330D01*
X139673457Y-72786467D01*
X139626692Y-72632301D01*
X139621937Y-72616627D01*
X139604541Y-72440000D01*
X139621937Y-72263373D01*
X139673457Y-72093534D01*
X139673457Y-72093533D01*
X139757121Y-71937011D01*
X139757122Y-71937009D01*
X139786452Y-71901271D01*
X139869714Y-71799814D01*
X139983136Y-71706732D01*
X140006909Y-71687222D01*
X140051815Y-71663219D01*
X140163433Y-71603557D01*
X140254713Y-71575868D01*
X140333273Y-71552037D01*
X140399457Y-71545519D01*
X140465640Y-71539000D01*
X140554160Y-71539000D01*
X140620343Y-71545519D01*
X140620343Y-71545519D01*
G37*
G36*
X128559826Y-70669645D02*
X128598497Y-70681376D01*
X128634139Y-70700428D01*
X128665377Y-70726063D01*
X128691012Y-70757301D01*
X128710064Y-70792943D01*
X128721795Y-70831614D01*
X128726360Y-70877968D01*
X128726360Y-71529192D01*
X128721795Y-71575546D01*
X128710064Y-71614217D01*
X128691012Y-71649859D01*
X128665377Y-71681097D01*
X128634139Y-71706732D01*
X128598497Y-71725784D01*
X128559826Y-71737515D01*
X128513472Y-71742080D01*
X127437248Y-71742080D01*
X127390894Y-71737515D01*
X127352223Y-71725784D01*
X127316581Y-71706732D01*
X127285343Y-71681097D01*
X127259708Y-71649859D01*
X127240656Y-71614217D01*
X127228925Y-71575546D01*
X127224360Y-71529192D01*
X127224360Y-70877968D01*
X127228925Y-70831614D01*
X127240656Y-70792943D01*
X127259708Y-70757301D01*
X127285343Y-70726063D01*
X127316581Y-70700428D01*
X127352223Y-70681376D01*
X127390894Y-70669645D01*
X127437248Y-70665080D01*
X128513472Y-70665080D01*
X128559826Y-70669645D01*
X128559826Y-70669645D01*
G37*
G36*
X125307042Y-69005518D02*
X125373227Y-69012037D01*
X125486453Y-69046384D01*
X125543067Y-69063557D01*
X125681687Y-69137652D01*
X125699591Y-69147222D01*
X125735329Y-69176552D01*
X125836786Y-69259814D01*
X125920048Y-69361271D01*
X125949378Y-69397009D01*
X125949379Y-69397011D01*
X126033043Y-69553533D01*
X126033043Y-69553534D01*
X126084563Y-69723373D01*
X126101959Y-69900000D01*
X126084563Y-70076627D01*
X126050216Y-70189853D01*
X126033043Y-70246467D01*
X126020015Y-70270840D01*
X125949378Y-70402991D01*
X125920048Y-70438729D01*
X125836786Y-70540186D01*
X125735329Y-70623448D01*
X125699591Y-70652778D01*
X125699589Y-70652779D01*
X125543067Y-70736443D01*
X125486453Y-70753616D01*
X125373227Y-70787963D01*
X125322663Y-70792943D01*
X125240860Y-70801000D01*
X125152340Y-70801000D01*
X125070537Y-70792943D01*
X125019973Y-70787963D01*
X124906747Y-70753616D01*
X124850133Y-70736443D01*
X124693611Y-70652779D01*
X124693609Y-70652778D01*
X124657871Y-70623448D01*
X124556414Y-70540186D01*
X124473152Y-70438729D01*
X124443822Y-70402991D01*
X124373185Y-70270840D01*
X124360157Y-70246467D01*
X124342984Y-70189853D01*
X124308637Y-70076627D01*
X124291241Y-69900000D01*
X124308637Y-69723373D01*
X124360157Y-69553534D01*
X124360157Y-69553533D01*
X124443821Y-69397011D01*
X124443822Y-69397009D01*
X124473152Y-69361271D01*
X124556414Y-69259814D01*
X124657871Y-69176552D01*
X124693609Y-69147222D01*
X124711513Y-69137652D01*
X124850133Y-69063557D01*
X124906747Y-69046384D01*
X125019973Y-69012037D01*
X125086158Y-69005518D01*
X125152340Y-68999000D01*
X125240860Y-68999000D01*
X125307042Y-69005518D01*
X125307042Y-69005518D01*
G37*
G36*
X140620342Y-69005518D02*
X140686527Y-69012037D01*
X140799753Y-69046384D01*
X140856367Y-69063557D01*
X140994987Y-69137652D01*
X141012891Y-69147222D01*
X141048629Y-69176552D01*
X141150086Y-69259814D01*
X141233348Y-69361271D01*
X141262678Y-69397009D01*
X141262679Y-69397011D01*
X141346343Y-69553533D01*
X141346343Y-69553534D01*
X141397863Y-69723373D01*
X141415259Y-69900000D01*
X141397863Y-70076627D01*
X141363516Y-70189853D01*
X141346343Y-70246467D01*
X141333315Y-70270840D01*
X141262678Y-70402991D01*
X141233348Y-70438729D01*
X141150086Y-70540186D01*
X141048629Y-70623448D01*
X141012891Y-70652778D01*
X141012889Y-70652779D01*
X140856367Y-70736443D01*
X140799753Y-70753616D01*
X140686527Y-70787963D01*
X140635963Y-70792943D01*
X140554160Y-70801000D01*
X140465640Y-70801000D01*
X140383837Y-70792943D01*
X140333273Y-70787963D01*
X140220047Y-70753616D01*
X140163433Y-70736443D01*
X140006911Y-70652779D01*
X140006909Y-70652778D01*
X139971171Y-70623448D01*
X139869714Y-70540186D01*
X139786452Y-70438729D01*
X139757122Y-70402991D01*
X139686485Y-70270840D01*
X139673457Y-70246467D01*
X139656284Y-70189853D01*
X139621937Y-70076627D01*
X139604541Y-69900000D01*
X139621937Y-69723373D01*
X139673457Y-69553534D01*
X139673457Y-69553533D01*
X139757121Y-69397011D01*
X139757122Y-69397009D01*
X139786452Y-69361271D01*
X139869714Y-69259814D01*
X139971171Y-69176552D01*
X140006909Y-69147222D01*
X140024813Y-69137652D01*
X140163433Y-69063557D01*
X140220047Y-69046384D01*
X140333273Y-69012037D01*
X140399458Y-69005518D01*
X140465640Y-68999000D01*
X140554160Y-68999000D01*
X140620342Y-69005518D01*
X140620342Y-69005518D01*
G37*
G36*
X129437160Y-70270840D02*
X127885160Y-70270840D01*
X127885160Y-69068840D01*
X129437160Y-69068840D01*
X129437160Y-70270840D01*
X129437160Y-70270840D01*
G37*
G36*
X131356098Y-67639676D02*
X131376716Y-67645930D01*
X131395716Y-67656086D01*
X131412368Y-67669752D01*
X131426034Y-67686404D01*
X131436190Y-67705404D01*
X131442444Y-67726022D01*
X131445160Y-67753600D01*
X131445160Y-68212320D01*
X131442444Y-68239898D01*
X131436190Y-68260516D01*
X131426034Y-68279516D01*
X131412368Y-68296168D01*
X131395716Y-68309834D01*
X131376716Y-68319990D01*
X131356098Y-68326244D01*
X131328520Y-68328960D01*
X130819800Y-68328960D01*
X130792222Y-68326244D01*
X130771604Y-68319990D01*
X130752604Y-68309834D01*
X130735952Y-68296168D01*
X130722286Y-68279516D01*
X130712130Y-68260516D01*
X130705876Y-68239898D01*
X130703160Y-68212320D01*
X130703160Y-67753600D01*
X130705876Y-67726022D01*
X130712130Y-67705404D01*
X130722286Y-67686404D01*
X130735952Y-67669752D01*
X130752604Y-67656086D01*
X130771604Y-67645930D01*
X130792222Y-67639676D01*
X130819800Y-67636960D01*
X131328520Y-67636960D01*
X131356098Y-67639676D01*
X131356098Y-67639676D01*
G37*
G36*
X125307043Y-66465519D02*
X125373227Y-66472037D01*
X125486453Y-66506384D01*
X125543067Y-66523557D01*
X125681687Y-66597652D01*
X125699591Y-66607222D01*
X125735329Y-66636552D01*
X125836786Y-66719814D01*
X125907687Y-66806209D01*
X125949378Y-66857009D01*
X125949379Y-66857011D01*
X126033043Y-67013533D01*
X126033043Y-67013534D01*
X126084563Y-67183373D01*
X126101959Y-67360000D01*
X126084563Y-67536627D01*
X126054127Y-67636960D01*
X126033043Y-67706467D01*
X125977724Y-67809960D01*
X125949378Y-67862991D01*
X125920048Y-67898729D01*
X125836786Y-68000186D01*
X125735329Y-68083448D01*
X125699591Y-68112778D01*
X125699589Y-68112779D01*
X125543067Y-68196443D01*
X125486453Y-68213616D01*
X125373227Y-68247963D01*
X125307042Y-68254482D01*
X125240860Y-68261000D01*
X125152340Y-68261000D01*
X125086158Y-68254482D01*
X125019973Y-68247963D01*
X124906747Y-68213616D01*
X124850133Y-68196443D01*
X124693611Y-68112779D01*
X124693609Y-68112778D01*
X124657871Y-68083448D01*
X124556414Y-68000186D01*
X124473152Y-67898729D01*
X124443822Y-67862991D01*
X124415476Y-67809960D01*
X124360157Y-67706467D01*
X124339073Y-67636960D01*
X124308637Y-67536627D01*
X124291241Y-67360000D01*
X124308637Y-67183373D01*
X124360157Y-67013534D01*
X124360157Y-67013533D01*
X124443821Y-66857011D01*
X124443822Y-66857009D01*
X124485513Y-66806209D01*
X124556414Y-66719814D01*
X124657871Y-66636552D01*
X124693609Y-66607222D01*
X124711513Y-66597652D01*
X124850133Y-66523557D01*
X124906747Y-66506384D01*
X125019973Y-66472037D01*
X125086157Y-66465519D01*
X125152340Y-66459000D01*
X125240860Y-66459000D01*
X125307043Y-66465519D01*
X125307043Y-66465519D01*
G37*
G36*
X140620343Y-66465519D02*
X140686527Y-66472037D01*
X140799753Y-66506384D01*
X140856367Y-66523557D01*
X140994987Y-66597652D01*
X141012891Y-66607222D01*
X141048629Y-66636552D01*
X141150086Y-66719814D01*
X141220987Y-66806209D01*
X141262678Y-66857009D01*
X141262679Y-66857011D01*
X141346343Y-67013533D01*
X141346343Y-67013534D01*
X141397863Y-67183373D01*
X141415259Y-67360000D01*
X141397863Y-67536627D01*
X141367427Y-67636960D01*
X141346343Y-67706467D01*
X141291024Y-67809960D01*
X141262678Y-67862991D01*
X141233348Y-67898729D01*
X141150086Y-68000186D01*
X141048629Y-68083448D01*
X141012891Y-68112778D01*
X141012889Y-68112779D01*
X140856367Y-68196443D01*
X140799753Y-68213616D01*
X140686527Y-68247963D01*
X140620342Y-68254482D01*
X140554160Y-68261000D01*
X140465640Y-68261000D01*
X140399458Y-68254482D01*
X140333273Y-68247963D01*
X140220047Y-68213616D01*
X140163433Y-68196443D01*
X140006911Y-68112779D01*
X140006909Y-68112778D01*
X139971171Y-68083448D01*
X139869714Y-68000186D01*
X139786452Y-67898729D01*
X139757122Y-67862991D01*
X139728776Y-67809960D01*
X139673457Y-67706467D01*
X139652373Y-67636960D01*
X139621937Y-67536627D01*
X139604541Y-67360000D01*
X139621937Y-67183373D01*
X139673457Y-67013534D01*
X139673457Y-67013533D01*
X139757121Y-66857011D01*
X139757122Y-66857009D01*
X139798813Y-66806209D01*
X139869714Y-66719814D01*
X139971171Y-66636552D01*
X140006909Y-66607222D01*
X140024813Y-66597652D01*
X140163433Y-66523557D01*
X140220047Y-66506384D01*
X140333273Y-66472037D01*
X140399457Y-66465519D01*
X140465640Y-66459000D01*
X140554160Y-66459000D01*
X140620343Y-66465519D01*
X140620343Y-66465519D01*
G37*
G36*
X129437160Y-68070840D02*
X127885160Y-68070840D01*
X127885160Y-66868840D01*
X129437160Y-66868840D01*
X129437160Y-68070840D01*
X129437160Y-68070840D01*
G37*
G36*
X131356098Y-66669676D02*
X131376716Y-66675930D01*
X131395716Y-66686086D01*
X131412368Y-66699752D01*
X131426034Y-66716404D01*
X131436190Y-66735404D01*
X131442444Y-66756022D01*
X131445160Y-66783600D01*
X131445160Y-67242320D01*
X131442444Y-67269898D01*
X131436190Y-67290516D01*
X131426034Y-67309516D01*
X131412368Y-67326168D01*
X131395716Y-67339834D01*
X131376716Y-67349990D01*
X131356098Y-67356244D01*
X131328520Y-67358960D01*
X130819800Y-67358960D01*
X130792222Y-67356244D01*
X130771604Y-67349990D01*
X130752604Y-67339834D01*
X130735952Y-67326168D01*
X130722286Y-67309516D01*
X130712130Y-67290516D01*
X130705876Y-67269898D01*
X130703160Y-67242320D01*
X130703160Y-66783600D01*
X130705876Y-66756022D01*
X130712130Y-66735404D01*
X130722286Y-66716404D01*
X130735952Y-66699752D01*
X130752604Y-66686086D01*
X130771604Y-66675930D01*
X130792222Y-66669676D01*
X130819800Y-66666960D01*
X131328520Y-66666960D01*
X131356098Y-66669676D01*
X131356098Y-66669676D01*
G37*
G36*
X130017640Y-66476840D02*
X127365640Y-66476840D01*
X127365640Y-65154840D01*
X130017640Y-65154840D01*
X130017640Y-66476840D01*
X130017640Y-66476840D01*
G37*
G36*
X131356098Y-65556876D02*
X131376716Y-65563130D01*
X131395716Y-65573286D01*
X131412368Y-65586952D01*
X131426034Y-65603604D01*
X131436190Y-65622604D01*
X131442444Y-65643222D01*
X131445160Y-65670800D01*
X131445160Y-66129520D01*
X131442444Y-66157098D01*
X131436190Y-66177716D01*
X131426034Y-66196716D01*
X131412368Y-66213368D01*
X131395716Y-66227034D01*
X131376716Y-66237190D01*
X131356098Y-66243444D01*
X131328520Y-66246160D01*
X130819800Y-66246160D01*
X130792222Y-66243444D01*
X130771604Y-66237190D01*
X130752604Y-66227034D01*
X130735952Y-66213368D01*
X130722286Y-66196716D01*
X130712130Y-66177716D01*
X130705876Y-66157098D01*
X130703160Y-66129520D01*
X130703160Y-65670800D01*
X130705876Y-65643222D01*
X130712130Y-65622604D01*
X130722286Y-65603604D01*
X130735952Y-65586952D01*
X130752604Y-65573286D01*
X130771604Y-65563130D01*
X130792222Y-65556876D01*
X130819800Y-65554160D01*
X131328520Y-65554160D01*
X131356098Y-65556876D01*
X131356098Y-65556876D01*
G37*
G36*
X125307042Y-63925518D02*
X125373227Y-63932037D01*
X125486453Y-63966384D01*
X125543067Y-63983557D01*
X125681687Y-64057652D01*
X125699591Y-64067222D01*
X125735329Y-64096552D01*
X125836786Y-64179814D01*
X125920048Y-64281271D01*
X125949378Y-64317009D01*
X125949379Y-64317011D01*
X126033043Y-64473533D01*
X126033043Y-64473534D01*
X126084563Y-64643373D01*
X126101959Y-64820000D01*
X126084563Y-64996627D01*
X126052247Y-65103160D01*
X126033043Y-65166467D01*
X125976187Y-65272836D01*
X125949378Y-65322991D01*
X125920048Y-65358729D01*
X125836786Y-65460186D01*
X125735329Y-65543448D01*
X125699591Y-65572778D01*
X125681687Y-65582348D01*
X125543067Y-65656443D01*
X125528189Y-65660956D01*
X125373227Y-65707963D01*
X125307042Y-65714482D01*
X125240860Y-65721000D01*
X125152340Y-65721000D01*
X125086158Y-65714482D01*
X125019973Y-65707963D01*
X124865011Y-65660956D01*
X124850133Y-65656443D01*
X124711513Y-65582348D01*
X124693609Y-65572778D01*
X124657871Y-65543448D01*
X124556414Y-65460186D01*
X124473152Y-65358729D01*
X124443822Y-65322991D01*
X124417013Y-65272836D01*
X124360157Y-65166467D01*
X124340953Y-65103160D01*
X124308637Y-64996627D01*
X124291241Y-64820000D01*
X124308637Y-64643373D01*
X124360157Y-64473534D01*
X124360157Y-64473533D01*
X124443821Y-64317011D01*
X124443822Y-64317009D01*
X124473152Y-64281271D01*
X124556414Y-64179814D01*
X124657871Y-64096552D01*
X124693609Y-64067222D01*
X124711513Y-64057652D01*
X124850133Y-63983557D01*
X124906747Y-63966384D01*
X125019973Y-63932037D01*
X125086158Y-63925518D01*
X125152340Y-63919000D01*
X125240860Y-63919000D01*
X125307042Y-63925518D01*
X125307042Y-63925518D01*
G37*
G36*
X140620342Y-63925518D02*
X140686527Y-63932037D01*
X140799753Y-63966384D01*
X140856367Y-63983557D01*
X140994987Y-64057652D01*
X141012891Y-64067222D01*
X141048629Y-64096552D01*
X141150086Y-64179814D01*
X141233348Y-64281271D01*
X141262678Y-64317009D01*
X141262679Y-64317011D01*
X141346343Y-64473533D01*
X141346343Y-64473534D01*
X141397863Y-64643373D01*
X141415259Y-64820000D01*
X141397863Y-64996627D01*
X141365547Y-65103160D01*
X141346343Y-65166467D01*
X141289487Y-65272836D01*
X141262678Y-65322991D01*
X141233348Y-65358729D01*
X141150086Y-65460186D01*
X141048629Y-65543448D01*
X141012891Y-65572778D01*
X140994987Y-65582348D01*
X140856367Y-65656443D01*
X140841489Y-65660956D01*
X140686527Y-65707963D01*
X140620342Y-65714482D01*
X140554160Y-65721000D01*
X140465640Y-65721000D01*
X140399458Y-65714482D01*
X140333273Y-65707963D01*
X140178311Y-65660956D01*
X140163433Y-65656443D01*
X140024813Y-65582348D01*
X140006909Y-65572778D01*
X139971171Y-65543448D01*
X139869714Y-65460186D01*
X139786452Y-65358729D01*
X139757122Y-65322991D01*
X139730313Y-65272836D01*
X139673457Y-65166467D01*
X139654253Y-65103160D01*
X139621937Y-64996627D01*
X139604541Y-64820000D01*
X139621937Y-64643373D01*
X139673457Y-64473534D01*
X139673457Y-64473533D01*
X139757121Y-64317011D01*
X139757122Y-64317009D01*
X139786452Y-64281271D01*
X139869714Y-64179814D01*
X139971171Y-64096552D01*
X140006909Y-64067222D01*
X140024813Y-64057652D01*
X140163433Y-63983557D01*
X140220047Y-63966384D01*
X140333273Y-63932037D01*
X140399458Y-63925518D01*
X140465640Y-63919000D01*
X140554160Y-63919000D01*
X140620342Y-63925518D01*
X140620342Y-63925518D01*
G37*
G36*
X131356098Y-64586876D02*
X131376716Y-64593130D01*
X131395716Y-64603286D01*
X131412368Y-64616952D01*
X131426034Y-64633604D01*
X131436190Y-64652604D01*
X131442444Y-64673222D01*
X131445160Y-64700800D01*
X131445160Y-65159520D01*
X131442444Y-65187098D01*
X131436190Y-65207716D01*
X131426034Y-65226716D01*
X131412368Y-65243368D01*
X131395716Y-65257034D01*
X131376716Y-65267190D01*
X131356098Y-65273444D01*
X131328520Y-65276160D01*
X130819800Y-65276160D01*
X130792222Y-65273444D01*
X130771604Y-65267190D01*
X130752604Y-65257034D01*
X130735952Y-65243368D01*
X130722286Y-65226716D01*
X130712130Y-65207716D01*
X130705876Y-65187098D01*
X130703160Y-65159520D01*
X130703160Y-64700800D01*
X130705876Y-64673222D01*
X130712130Y-64652604D01*
X130722286Y-64633604D01*
X130735952Y-64616952D01*
X130752604Y-64603286D01*
X130771604Y-64593130D01*
X130792222Y-64586876D01*
X130819800Y-64584160D01*
X131328520Y-64584160D01*
X131356098Y-64586876D01*
X131356098Y-64586876D01*
G37*
G36*
X130017640Y-63856840D02*
X129265640Y-63856840D01*
X129265640Y-62534840D01*
X130017640Y-62534840D01*
X130017640Y-63856840D01*
X130017640Y-63856840D01*
G37*
G36*
X128117640Y-63856840D02*
X127365640Y-63856840D01*
X127365640Y-62534840D01*
X128117640Y-62534840D01*
X128117640Y-63856840D01*
X128117640Y-63856840D01*
G37*
G36*
X125307042Y-61385518D02*
X125373227Y-61392037D01*
X125486453Y-61426384D01*
X125543067Y-61443557D01*
X125681687Y-61517652D01*
X125699591Y-61527222D01*
X125735329Y-61556552D01*
X125836786Y-61639814D01*
X125912473Y-61732040D01*
X125949378Y-61777009D01*
X125949379Y-61777011D01*
X126033043Y-61933533D01*
X126033043Y-61933534D01*
X126084563Y-62103373D01*
X126101959Y-62280000D01*
X126084563Y-62456627D01*
X126060837Y-62534840D01*
X126033043Y-62626467D01*
X125958948Y-62765087D01*
X125949378Y-62782991D01*
X125920048Y-62818729D01*
X125836786Y-62920186D01*
X125735329Y-63003448D01*
X125699591Y-63032778D01*
X125699589Y-63032779D01*
X125543067Y-63116443D01*
X125486453Y-63133616D01*
X125373227Y-63167963D01*
X125307043Y-63174481D01*
X125240860Y-63181000D01*
X125152340Y-63181000D01*
X125086157Y-63174481D01*
X125019973Y-63167963D01*
X124906747Y-63133616D01*
X124850133Y-63116443D01*
X124693611Y-63032779D01*
X124693609Y-63032778D01*
X124657871Y-63003448D01*
X124556414Y-62920186D01*
X124473152Y-62818729D01*
X124443822Y-62782991D01*
X124434252Y-62765087D01*
X124360157Y-62626467D01*
X124332363Y-62534840D01*
X124308637Y-62456627D01*
X124291241Y-62280000D01*
X124308637Y-62103373D01*
X124360157Y-61933534D01*
X124360157Y-61933533D01*
X124443821Y-61777011D01*
X124443822Y-61777009D01*
X124480727Y-61732040D01*
X124556414Y-61639814D01*
X124657871Y-61556552D01*
X124693609Y-61527222D01*
X124711513Y-61517652D01*
X124850133Y-61443557D01*
X124906747Y-61426384D01*
X125019973Y-61392037D01*
X125086158Y-61385518D01*
X125152340Y-61379000D01*
X125240860Y-61379000D01*
X125307042Y-61385518D01*
X125307042Y-61385518D01*
G37*
G36*
X140620342Y-61385518D02*
X140686527Y-61392037D01*
X140799753Y-61426384D01*
X140856367Y-61443557D01*
X140994987Y-61517652D01*
X141012891Y-61527222D01*
X141048629Y-61556552D01*
X141150086Y-61639814D01*
X141225773Y-61732040D01*
X141262678Y-61777009D01*
X141262679Y-61777011D01*
X141346343Y-61933533D01*
X141346343Y-61933534D01*
X141397863Y-62103373D01*
X141415259Y-62280000D01*
X141397863Y-62456627D01*
X141374137Y-62534840D01*
X141346343Y-62626467D01*
X141272248Y-62765087D01*
X141262678Y-62782991D01*
X141233348Y-62818729D01*
X141150086Y-62920186D01*
X141048629Y-63003448D01*
X141012891Y-63032778D01*
X141012889Y-63032779D01*
X140856367Y-63116443D01*
X140799753Y-63133616D01*
X140686527Y-63167963D01*
X140620343Y-63174481D01*
X140554160Y-63181000D01*
X140465640Y-63181000D01*
X140399457Y-63174481D01*
X140333273Y-63167963D01*
X140220047Y-63133616D01*
X140163433Y-63116443D01*
X140006911Y-63032779D01*
X140006909Y-63032778D01*
X139971171Y-63003448D01*
X139869714Y-62920186D01*
X139786452Y-62818729D01*
X139757122Y-62782991D01*
X139747552Y-62765087D01*
X139673457Y-62626467D01*
X139645663Y-62534840D01*
X139621937Y-62456627D01*
X139604541Y-62280000D01*
X139621937Y-62103373D01*
X139673457Y-61933534D01*
X139673457Y-61933533D01*
X139757121Y-61777011D01*
X139757122Y-61777009D01*
X139794027Y-61732040D01*
X139869714Y-61639814D01*
X139971171Y-61556552D01*
X140006909Y-61527222D01*
X140024813Y-61517652D01*
X140163433Y-61443557D01*
X140220047Y-61426384D01*
X140333273Y-61392037D01*
X140399458Y-61385518D01*
X140465640Y-61379000D01*
X140554160Y-61379000D01*
X140620342Y-61385518D01*
X140620342Y-61385518D01*
G37*
G36*
X128971298Y-61165756D02*
X128991916Y-61172010D01*
X129010916Y-61182166D01*
X129027568Y-61195832D01*
X129041234Y-61212484D01*
X129051390Y-61231484D01*
X129057644Y-61252102D01*
X129060360Y-61279680D01*
X129060360Y-61788400D01*
X129057644Y-61815978D01*
X129051390Y-61836596D01*
X129041234Y-61855596D01*
X129027568Y-61872248D01*
X129010916Y-61885914D01*
X128991916Y-61896070D01*
X128971298Y-61902324D01*
X128943720Y-61905040D01*
X128485000Y-61905040D01*
X128457422Y-61902324D01*
X128436804Y-61896070D01*
X128417804Y-61885914D01*
X128401152Y-61872248D01*
X128387486Y-61855596D01*
X128377330Y-61836596D01*
X128371076Y-61815978D01*
X128368360Y-61788400D01*
X128368360Y-61279680D01*
X128371076Y-61252102D01*
X128377330Y-61231484D01*
X128387486Y-61212484D01*
X128401152Y-61195832D01*
X128417804Y-61182166D01*
X128436804Y-61172010D01*
X128457422Y-61165756D01*
X128485000Y-61163040D01*
X128943720Y-61163040D01*
X128971298Y-61165756D01*
X128971298Y-61165756D01*
G37*
G36*
X128001298Y-61165756D02*
X128021916Y-61172010D01*
X128040916Y-61182166D01*
X128057568Y-61195832D01*
X128071234Y-61212484D01*
X128081390Y-61231484D01*
X128087644Y-61252102D01*
X128090360Y-61279680D01*
X128090360Y-61788400D01*
X128087644Y-61815978D01*
X128081390Y-61836596D01*
X128071234Y-61855596D01*
X128057568Y-61872248D01*
X128040916Y-61885914D01*
X128021916Y-61896070D01*
X128001298Y-61902324D01*
X127973720Y-61905040D01*
X127515000Y-61905040D01*
X127487422Y-61902324D01*
X127466804Y-61896070D01*
X127447804Y-61885914D01*
X127431152Y-61872248D01*
X127417486Y-61855596D01*
X127407330Y-61836596D01*
X127401076Y-61815978D01*
X127398360Y-61788400D01*
X127398360Y-61279680D01*
X127401076Y-61252102D01*
X127407330Y-61231484D01*
X127417486Y-61212484D01*
X127431152Y-61195832D01*
X127447804Y-61182166D01*
X127466804Y-61172010D01*
X127487422Y-61165756D01*
X127515000Y-61163040D01*
X127973720Y-61163040D01*
X128001298Y-61165756D01*
X128001298Y-61165756D01*
G37*
M02*
