G04 #@! TF.GenerationSoftware,KiCad,Pcbnew,(5.0.1)-3*
G04 #@! TF.CreationDate,2018-11-05T23:25:50+01:00*
G04 #@! TF.ProjectId,project,70726F6A6563742E6B696361645F7063,rev?*
G04 #@! TF.SameCoordinates,Original*
G04 #@! TF.FileFunction,Copper,L1,Top,Signal*
G04 #@! TF.FilePolarity,Positive*
%FSLAX46Y46*%
G04 Gerber Fmt 4.6, Leading zero omitted, Abs format (unit mm)*
G04 Created by KiCad (PCBNEW (5.0.1)-3) date 11/05/18 23:25:50*
%MOMM*%
%LPD*%
G01*
G04 APERTURE LIST*
G04 #@! TA.AperFunction,EtchedComponent*
%ADD10C,0.500000*%
G04 #@! TD*
G04 #@! TA.AperFunction,Conductor*
%ADD11C,0.100000*%
G04 #@! TD*
G04 #@! TA.AperFunction,SMDPad,CuDef*
%ADD12C,0.590000*%
G04 #@! TD*
G04 #@! TA.AperFunction,SMDPad,CuDef*
%ADD13R,1.050000X2.200000*%
G04 #@! TD*
G04 #@! TA.AperFunction,SMDPad,CuDef*
%ADD14R,1.000000X1.050000*%
G04 #@! TD*
G04 #@! TA.AperFunction,SMDPad,CuDef*
%ADD15R,0.245000X0.245000*%
G04 #@! TD*
G04 #@! TA.AperFunction,SMDPad,CuDef*
%ADD16R,0.900000X1.600000*%
G04 #@! TD*
G04 #@! TA.AperFunction,SMDPad,CuDef*
%ADD17R,0.325000X0.250000*%
G04 #@! TD*
G04 #@! TA.AperFunction,ComponentPad*
%ADD18O,1.700000X1.700000*%
G04 #@! TD*
G04 #@! TA.AperFunction,ComponentPad*
%ADD19R,1.700000X1.700000*%
G04 #@! TD*
G04 #@! TA.AperFunction,ComponentPad*
%ADD20C,1.700000*%
G04 #@! TD*
G04 #@! TA.AperFunction,ViaPad*
%ADD21C,0.600000*%
G04 #@! TD*
G04 #@! TA.AperFunction,Conductor*
%ADD22C,0.250000*%
G04 #@! TD*
G04 #@! TA.AperFunction,Conductor*
%ADD23C,0.500000*%
G04 #@! TD*
G04 APERTURE END LIST*
D10*
G04 #@! TO.C,REF\002A\002A*
X135191500Y-66805300D02*
G75*
G02X136191500Y-67805300I0J-1000000D01*
G01*
G04 #@! TD*
D11*
G04 #@! TO.N,Net-(C1-Pad1)*
G04 #@! TO.C,C1*
G36*
X133663958Y-68389710D02*
X133678276Y-68391834D01*
X133692317Y-68395351D01*
X133705946Y-68400228D01*
X133719031Y-68406417D01*
X133731447Y-68413858D01*
X133743073Y-68422481D01*
X133753798Y-68432202D01*
X133763519Y-68442927D01*
X133772142Y-68454553D01*
X133779583Y-68466969D01*
X133785772Y-68480054D01*
X133790649Y-68493683D01*
X133794166Y-68507724D01*
X133796290Y-68522042D01*
X133797000Y-68536500D01*
X133797000Y-68831500D01*
X133796290Y-68845958D01*
X133794166Y-68860276D01*
X133790649Y-68874317D01*
X133785772Y-68887946D01*
X133779583Y-68901031D01*
X133772142Y-68913447D01*
X133763519Y-68925073D01*
X133753798Y-68935798D01*
X133743073Y-68945519D01*
X133731447Y-68954142D01*
X133719031Y-68961583D01*
X133705946Y-68967772D01*
X133692317Y-68972649D01*
X133678276Y-68976166D01*
X133663958Y-68978290D01*
X133649500Y-68979000D01*
X133304500Y-68979000D01*
X133290042Y-68978290D01*
X133275724Y-68976166D01*
X133261683Y-68972649D01*
X133248054Y-68967772D01*
X133234969Y-68961583D01*
X133222553Y-68954142D01*
X133210927Y-68945519D01*
X133200202Y-68935798D01*
X133190481Y-68925073D01*
X133181858Y-68913447D01*
X133174417Y-68901031D01*
X133168228Y-68887946D01*
X133163351Y-68874317D01*
X133159834Y-68860276D01*
X133157710Y-68845958D01*
X133157000Y-68831500D01*
X133157000Y-68536500D01*
X133157710Y-68522042D01*
X133159834Y-68507724D01*
X133163351Y-68493683D01*
X133168228Y-68480054D01*
X133174417Y-68466969D01*
X133181858Y-68454553D01*
X133190481Y-68442927D01*
X133200202Y-68432202D01*
X133210927Y-68422481D01*
X133222553Y-68413858D01*
X133234969Y-68406417D01*
X133248054Y-68400228D01*
X133261683Y-68395351D01*
X133275724Y-68391834D01*
X133290042Y-68389710D01*
X133304500Y-68389000D01*
X133649500Y-68389000D01*
X133663958Y-68389710D01*
X133663958Y-68389710D01*
G37*
D12*
G04 #@! TD*
G04 #@! TO.P,C1,1*
G04 #@! TO.N,Net-(C1-Pad1)*
X133477000Y-68684000D03*
D11*
G04 #@! TO.N,Net-(C1-Pad2)*
G04 #@! TO.C,C1*
G36*
X133663958Y-67419710D02*
X133678276Y-67421834D01*
X133692317Y-67425351D01*
X133705946Y-67430228D01*
X133719031Y-67436417D01*
X133731447Y-67443858D01*
X133743073Y-67452481D01*
X133753798Y-67462202D01*
X133763519Y-67472927D01*
X133772142Y-67484553D01*
X133779583Y-67496969D01*
X133785772Y-67510054D01*
X133790649Y-67523683D01*
X133794166Y-67537724D01*
X133796290Y-67552042D01*
X133797000Y-67566500D01*
X133797000Y-67861500D01*
X133796290Y-67875958D01*
X133794166Y-67890276D01*
X133790649Y-67904317D01*
X133785772Y-67917946D01*
X133779583Y-67931031D01*
X133772142Y-67943447D01*
X133763519Y-67955073D01*
X133753798Y-67965798D01*
X133743073Y-67975519D01*
X133731447Y-67984142D01*
X133719031Y-67991583D01*
X133705946Y-67997772D01*
X133692317Y-68002649D01*
X133678276Y-68006166D01*
X133663958Y-68008290D01*
X133649500Y-68009000D01*
X133304500Y-68009000D01*
X133290042Y-68008290D01*
X133275724Y-68006166D01*
X133261683Y-68002649D01*
X133248054Y-67997772D01*
X133234969Y-67991583D01*
X133222553Y-67984142D01*
X133210927Y-67975519D01*
X133200202Y-67965798D01*
X133190481Y-67955073D01*
X133181858Y-67943447D01*
X133174417Y-67931031D01*
X133168228Y-67917946D01*
X133163351Y-67904317D01*
X133159834Y-67890276D01*
X133157710Y-67875958D01*
X133157000Y-67861500D01*
X133157000Y-67566500D01*
X133157710Y-67552042D01*
X133159834Y-67537724D01*
X133163351Y-67523683D01*
X133168228Y-67510054D01*
X133174417Y-67496969D01*
X133181858Y-67484553D01*
X133190481Y-67472927D01*
X133200202Y-67462202D01*
X133210927Y-67452481D01*
X133222553Y-67443858D01*
X133234969Y-67436417D01*
X133248054Y-67430228D01*
X133261683Y-67425351D01*
X133275724Y-67421834D01*
X133290042Y-67419710D01*
X133304500Y-67419000D01*
X133649500Y-67419000D01*
X133663958Y-67419710D01*
X133663958Y-67419710D01*
G37*
D12*
G04 #@! TD*
G04 #@! TO.P,C1,2*
G04 #@! TO.N,Net-(C1-Pad2)*
X133477000Y-67714000D03*
D11*
G04 #@! TO.N,GND*
G04 #@! TO.C,C2*
G36*
X131693458Y-72845410D02*
X131707776Y-72847534D01*
X131721817Y-72851051D01*
X131735446Y-72855928D01*
X131748531Y-72862117D01*
X131760947Y-72869558D01*
X131772573Y-72878181D01*
X131783298Y-72887902D01*
X131793019Y-72898627D01*
X131801642Y-72910253D01*
X131809083Y-72922669D01*
X131815272Y-72935754D01*
X131820149Y-72949383D01*
X131823666Y-72963424D01*
X131825790Y-72977742D01*
X131826500Y-72992200D01*
X131826500Y-73337200D01*
X131825790Y-73351658D01*
X131823666Y-73365976D01*
X131820149Y-73380017D01*
X131815272Y-73393646D01*
X131809083Y-73406731D01*
X131801642Y-73419147D01*
X131793019Y-73430773D01*
X131783298Y-73441498D01*
X131772573Y-73451219D01*
X131760947Y-73459842D01*
X131748531Y-73467283D01*
X131735446Y-73473472D01*
X131721817Y-73478349D01*
X131707776Y-73481866D01*
X131693458Y-73483990D01*
X131679000Y-73484700D01*
X131384000Y-73484700D01*
X131369542Y-73483990D01*
X131355224Y-73481866D01*
X131341183Y-73478349D01*
X131327554Y-73473472D01*
X131314469Y-73467283D01*
X131302053Y-73459842D01*
X131290427Y-73451219D01*
X131279702Y-73441498D01*
X131269981Y-73430773D01*
X131261358Y-73419147D01*
X131253917Y-73406731D01*
X131247728Y-73393646D01*
X131242851Y-73380017D01*
X131239334Y-73365976D01*
X131237210Y-73351658D01*
X131236500Y-73337200D01*
X131236500Y-72992200D01*
X131237210Y-72977742D01*
X131239334Y-72963424D01*
X131242851Y-72949383D01*
X131247728Y-72935754D01*
X131253917Y-72922669D01*
X131261358Y-72910253D01*
X131269981Y-72898627D01*
X131279702Y-72887902D01*
X131290427Y-72878181D01*
X131302053Y-72869558D01*
X131314469Y-72862117D01*
X131327554Y-72855928D01*
X131341183Y-72851051D01*
X131355224Y-72847534D01*
X131369542Y-72845410D01*
X131384000Y-72844700D01*
X131679000Y-72844700D01*
X131693458Y-72845410D01*
X131693458Y-72845410D01*
G37*
D12*
G04 #@! TD*
G04 #@! TO.P,C2,1*
G04 #@! TO.N,GND*
X131531500Y-73164700D03*
D11*
G04 #@! TO.N,/VCC_RF*
G04 #@! TO.C,C2*
G36*
X132663458Y-72845410D02*
X132677776Y-72847534D01*
X132691817Y-72851051D01*
X132705446Y-72855928D01*
X132718531Y-72862117D01*
X132730947Y-72869558D01*
X132742573Y-72878181D01*
X132753298Y-72887902D01*
X132763019Y-72898627D01*
X132771642Y-72910253D01*
X132779083Y-72922669D01*
X132785272Y-72935754D01*
X132790149Y-72949383D01*
X132793666Y-72963424D01*
X132795790Y-72977742D01*
X132796500Y-72992200D01*
X132796500Y-73337200D01*
X132795790Y-73351658D01*
X132793666Y-73365976D01*
X132790149Y-73380017D01*
X132785272Y-73393646D01*
X132779083Y-73406731D01*
X132771642Y-73419147D01*
X132763019Y-73430773D01*
X132753298Y-73441498D01*
X132742573Y-73451219D01*
X132730947Y-73459842D01*
X132718531Y-73467283D01*
X132705446Y-73473472D01*
X132691817Y-73478349D01*
X132677776Y-73481866D01*
X132663458Y-73483990D01*
X132649000Y-73484700D01*
X132354000Y-73484700D01*
X132339542Y-73483990D01*
X132325224Y-73481866D01*
X132311183Y-73478349D01*
X132297554Y-73473472D01*
X132284469Y-73467283D01*
X132272053Y-73459842D01*
X132260427Y-73451219D01*
X132249702Y-73441498D01*
X132239981Y-73430773D01*
X132231358Y-73419147D01*
X132223917Y-73406731D01*
X132217728Y-73393646D01*
X132212851Y-73380017D01*
X132209334Y-73365976D01*
X132207210Y-73351658D01*
X132206500Y-73337200D01*
X132206500Y-72992200D01*
X132207210Y-72977742D01*
X132209334Y-72963424D01*
X132212851Y-72949383D01*
X132217728Y-72935754D01*
X132223917Y-72922669D01*
X132231358Y-72910253D01*
X132239981Y-72898627D01*
X132249702Y-72887902D01*
X132260427Y-72878181D01*
X132272053Y-72869558D01*
X132284469Y-72862117D01*
X132297554Y-72855928D01*
X132311183Y-72851051D01*
X132325224Y-72847534D01*
X132339542Y-72845410D01*
X132354000Y-72844700D01*
X132649000Y-72844700D01*
X132663458Y-72845410D01*
X132663458Y-72845410D01*
G37*
D12*
G04 #@! TD*
G04 #@! TO.P,C2,2*
G04 #@! TO.N,/VCC_RF*
X132501500Y-73164700D03*
D11*
G04 #@! TO.N,Net-(C3-Pad2)*
G04 #@! TO.C,C3*
G36*
X135376458Y-73289910D02*
X135390776Y-73292034D01*
X135404817Y-73295551D01*
X135418446Y-73300428D01*
X135431531Y-73306617D01*
X135443947Y-73314058D01*
X135455573Y-73322681D01*
X135466298Y-73332402D01*
X135476019Y-73343127D01*
X135484642Y-73354753D01*
X135492083Y-73367169D01*
X135498272Y-73380254D01*
X135503149Y-73393883D01*
X135506666Y-73407924D01*
X135508790Y-73422242D01*
X135509500Y-73436700D01*
X135509500Y-73781700D01*
X135508790Y-73796158D01*
X135506666Y-73810476D01*
X135503149Y-73824517D01*
X135498272Y-73838146D01*
X135492083Y-73851231D01*
X135484642Y-73863647D01*
X135476019Y-73875273D01*
X135466298Y-73885998D01*
X135455573Y-73895719D01*
X135443947Y-73904342D01*
X135431531Y-73911783D01*
X135418446Y-73917972D01*
X135404817Y-73922849D01*
X135390776Y-73926366D01*
X135376458Y-73928490D01*
X135362000Y-73929200D01*
X135067000Y-73929200D01*
X135052542Y-73928490D01*
X135038224Y-73926366D01*
X135024183Y-73922849D01*
X135010554Y-73917972D01*
X134997469Y-73911783D01*
X134985053Y-73904342D01*
X134973427Y-73895719D01*
X134962702Y-73885998D01*
X134952981Y-73875273D01*
X134944358Y-73863647D01*
X134936917Y-73851231D01*
X134930728Y-73838146D01*
X134925851Y-73824517D01*
X134922334Y-73810476D01*
X134920210Y-73796158D01*
X134919500Y-73781700D01*
X134919500Y-73436700D01*
X134920210Y-73422242D01*
X134922334Y-73407924D01*
X134925851Y-73393883D01*
X134930728Y-73380254D01*
X134936917Y-73367169D01*
X134944358Y-73354753D01*
X134952981Y-73343127D01*
X134962702Y-73332402D01*
X134973427Y-73322681D01*
X134985053Y-73314058D01*
X134997469Y-73306617D01*
X135010554Y-73300428D01*
X135024183Y-73295551D01*
X135038224Y-73292034D01*
X135052542Y-73289910D01*
X135067000Y-73289200D01*
X135362000Y-73289200D01*
X135376458Y-73289910D01*
X135376458Y-73289910D01*
G37*
D12*
G04 #@! TD*
G04 #@! TO.P,C3,2*
G04 #@! TO.N,Net-(C3-Pad2)*
X135214500Y-73609200D03*
D11*
G04 #@! TO.N,/RF_IN*
G04 #@! TO.C,C3*
G36*
X136346458Y-73289910D02*
X136360776Y-73292034D01*
X136374817Y-73295551D01*
X136388446Y-73300428D01*
X136401531Y-73306617D01*
X136413947Y-73314058D01*
X136425573Y-73322681D01*
X136436298Y-73332402D01*
X136446019Y-73343127D01*
X136454642Y-73354753D01*
X136462083Y-73367169D01*
X136468272Y-73380254D01*
X136473149Y-73393883D01*
X136476666Y-73407924D01*
X136478790Y-73422242D01*
X136479500Y-73436700D01*
X136479500Y-73781700D01*
X136478790Y-73796158D01*
X136476666Y-73810476D01*
X136473149Y-73824517D01*
X136468272Y-73838146D01*
X136462083Y-73851231D01*
X136454642Y-73863647D01*
X136446019Y-73875273D01*
X136436298Y-73885998D01*
X136425573Y-73895719D01*
X136413947Y-73904342D01*
X136401531Y-73911783D01*
X136388446Y-73917972D01*
X136374817Y-73922849D01*
X136360776Y-73926366D01*
X136346458Y-73928490D01*
X136332000Y-73929200D01*
X136037000Y-73929200D01*
X136022542Y-73928490D01*
X136008224Y-73926366D01*
X135994183Y-73922849D01*
X135980554Y-73917972D01*
X135967469Y-73911783D01*
X135955053Y-73904342D01*
X135943427Y-73895719D01*
X135932702Y-73885998D01*
X135922981Y-73875273D01*
X135914358Y-73863647D01*
X135906917Y-73851231D01*
X135900728Y-73838146D01*
X135895851Y-73824517D01*
X135892334Y-73810476D01*
X135890210Y-73796158D01*
X135889500Y-73781700D01*
X135889500Y-73436700D01*
X135890210Y-73422242D01*
X135892334Y-73407924D01*
X135895851Y-73393883D01*
X135900728Y-73380254D01*
X135906917Y-73367169D01*
X135914358Y-73354753D01*
X135922981Y-73343127D01*
X135932702Y-73332402D01*
X135943427Y-73322681D01*
X135955053Y-73314058D01*
X135967469Y-73306617D01*
X135980554Y-73300428D01*
X135994183Y-73295551D01*
X136008224Y-73292034D01*
X136022542Y-73289910D01*
X136037000Y-73289200D01*
X136332000Y-73289200D01*
X136346458Y-73289910D01*
X136346458Y-73289910D01*
G37*
D12*
G04 #@! TD*
G04 #@! TO.P,C3,1*
G04 #@! TO.N,/RF_IN*
X136184500Y-73609200D03*
D13*
G04 #@! TO.P,J1,2*
G04 #@! TO.N,GND*
X134952000Y-63418700D03*
D14*
G04 #@! TO.P,J1,1*
G04 #@! TO.N,Net-(C1-Pad2)*
X133477000Y-64943700D03*
D13*
G04 #@! TO.P,J1,2*
G04 #@! TO.N,GND*
X132002000Y-63418700D03*
G04 #@! TD*
D11*
G04 #@! TO.N,Net-(C1-Pad1)*
G04 #@! TO.C,L1*
G36*
X133663958Y-69375510D02*
X133678276Y-69377634D01*
X133692317Y-69381151D01*
X133705946Y-69386028D01*
X133719031Y-69392217D01*
X133731447Y-69399658D01*
X133743073Y-69408281D01*
X133753798Y-69418002D01*
X133763519Y-69428727D01*
X133772142Y-69440353D01*
X133779583Y-69452769D01*
X133785772Y-69465854D01*
X133790649Y-69479483D01*
X133794166Y-69493524D01*
X133796290Y-69507842D01*
X133797000Y-69522300D01*
X133797000Y-69817300D01*
X133796290Y-69831758D01*
X133794166Y-69846076D01*
X133790649Y-69860117D01*
X133785772Y-69873746D01*
X133779583Y-69886831D01*
X133772142Y-69899247D01*
X133763519Y-69910873D01*
X133753798Y-69921598D01*
X133743073Y-69931319D01*
X133731447Y-69939942D01*
X133719031Y-69947383D01*
X133705946Y-69953572D01*
X133692317Y-69958449D01*
X133678276Y-69961966D01*
X133663958Y-69964090D01*
X133649500Y-69964800D01*
X133304500Y-69964800D01*
X133290042Y-69964090D01*
X133275724Y-69961966D01*
X133261683Y-69958449D01*
X133248054Y-69953572D01*
X133234969Y-69947383D01*
X133222553Y-69939942D01*
X133210927Y-69931319D01*
X133200202Y-69921598D01*
X133190481Y-69910873D01*
X133181858Y-69899247D01*
X133174417Y-69886831D01*
X133168228Y-69873746D01*
X133163351Y-69860117D01*
X133159834Y-69846076D01*
X133157710Y-69831758D01*
X133157000Y-69817300D01*
X133157000Y-69522300D01*
X133157710Y-69507842D01*
X133159834Y-69493524D01*
X133163351Y-69479483D01*
X133168228Y-69465854D01*
X133174417Y-69452769D01*
X133181858Y-69440353D01*
X133190481Y-69428727D01*
X133200202Y-69418002D01*
X133210927Y-69408281D01*
X133222553Y-69399658D01*
X133234969Y-69392217D01*
X133248054Y-69386028D01*
X133261683Y-69381151D01*
X133275724Y-69377634D01*
X133290042Y-69375510D01*
X133304500Y-69374800D01*
X133649500Y-69374800D01*
X133663958Y-69375510D01*
X133663958Y-69375510D01*
G37*
D12*
G04 #@! TD*
G04 #@! TO.P,L1,1*
G04 #@! TO.N,Net-(C1-Pad1)*
X133477000Y-69669800D03*
D11*
G04 #@! TO.N,Net-(L1-Pad2)*
G04 #@! TO.C,L1*
G36*
X133663958Y-70345510D02*
X133678276Y-70347634D01*
X133692317Y-70351151D01*
X133705946Y-70356028D01*
X133719031Y-70362217D01*
X133731447Y-70369658D01*
X133743073Y-70378281D01*
X133753798Y-70388002D01*
X133763519Y-70398727D01*
X133772142Y-70410353D01*
X133779583Y-70422769D01*
X133785772Y-70435854D01*
X133790649Y-70449483D01*
X133794166Y-70463524D01*
X133796290Y-70477842D01*
X133797000Y-70492300D01*
X133797000Y-70787300D01*
X133796290Y-70801758D01*
X133794166Y-70816076D01*
X133790649Y-70830117D01*
X133785772Y-70843746D01*
X133779583Y-70856831D01*
X133772142Y-70869247D01*
X133763519Y-70880873D01*
X133753798Y-70891598D01*
X133743073Y-70901319D01*
X133731447Y-70909942D01*
X133719031Y-70917383D01*
X133705946Y-70923572D01*
X133692317Y-70928449D01*
X133678276Y-70931966D01*
X133663958Y-70934090D01*
X133649500Y-70934800D01*
X133304500Y-70934800D01*
X133290042Y-70934090D01*
X133275724Y-70931966D01*
X133261683Y-70928449D01*
X133248054Y-70923572D01*
X133234969Y-70917383D01*
X133222553Y-70909942D01*
X133210927Y-70901319D01*
X133200202Y-70891598D01*
X133190481Y-70880873D01*
X133181858Y-70869247D01*
X133174417Y-70856831D01*
X133168228Y-70843746D01*
X133163351Y-70830117D01*
X133159834Y-70816076D01*
X133157710Y-70801758D01*
X133157000Y-70787300D01*
X133157000Y-70492300D01*
X133157710Y-70477842D01*
X133159834Y-70463524D01*
X133163351Y-70449483D01*
X133168228Y-70435854D01*
X133174417Y-70422769D01*
X133181858Y-70410353D01*
X133190481Y-70398727D01*
X133200202Y-70388002D01*
X133210927Y-70378281D01*
X133222553Y-70369658D01*
X133234969Y-70362217D01*
X133248054Y-70356028D01*
X133261683Y-70351151D01*
X133275724Y-70347634D01*
X133290042Y-70345510D01*
X133304500Y-70344800D01*
X133649500Y-70344800D01*
X133663958Y-70345510D01*
X133663958Y-70345510D01*
G37*
D12*
G04 #@! TD*
G04 #@! TO.P,L1,2*
G04 #@! TO.N,Net-(L1-Pad2)*
X133477000Y-70639800D03*
D11*
G04 #@! TO.N,/ANT_OFF*
G04 #@! TO.C,R1*
G36*
X130555258Y-72845410D02*
X130569576Y-72847534D01*
X130583617Y-72851051D01*
X130597246Y-72855928D01*
X130610331Y-72862117D01*
X130622747Y-72869558D01*
X130634373Y-72878181D01*
X130645098Y-72887902D01*
X130654819Y-72898627D01*
X130663442Y-72910253D01*
X130670883Y-72922669D01*
X130677072Y-72935754D01*
X130681949Y-72949383D01*
X130685466Y-72963424D01*
X130687590Y-72977742D01*
X130688300Y-72992200D01*
X130688300Y-73337200D01*
X130687590Y-73351658D01*
X130685466Y-73365976D01*
X130681949Y-73380017D01*
X130677072Y-73393646D01*
X130670883Y-73406731D01*
X130663442Y-73419147D01*
X130654819Y-73430773D01*
X130645098Y-73441498D01*
X130634373Y-73451219D01*
X130622747Y-73459842D01*
X130610331Y-73467283D01*
X130597246Y-73473472D01*
X130583617Y-73478349D01*
X130569576Y-73481866D01*
X130555258Y-73483990D01*
X130540800Y-73484700D01*
X130245800Y-73484700D01*
X130231342Y-73483990D01*
X130217024Y-73481866D01*
X130202983Y-73478349D01*
X130189354Y-73473472D01*
X130176269Y-73467283D01*
X130163853Y-73459842D01*
X130152227Y-73451219D01*
X130141502Y-73441498D01*
X130131781Y-73430773D01*
X130123158Y-73419147D01*
X130115717Y-73406731D01*
X130109528Y-73393646D01*
X130104651Y-73380017D01*
X130101134Y-73365976D01*
X130099010Y-73351658D01*
X130098300Y-73337200D01*
X130098300Y-72992200D01*
X130099010Y-72977742D01*
X130101134Y-72963424D01*
X130104651Y-72949383D01*
X130109528Y-72935754D01*
X130115717Y-72922669D01*
X130123158Y-72910253D01*
X130131781Y-72898627D01*
X130141502Y-72887902D01*
X130152227Y-72878181D01*
X130163853Y-72869558D01*
X130176269Y-72862117D01*
X130189354Y-72855928D01*
X130202983Y-72851051D01*
X130217024Y-72847534D01*
X130231342Y-72845410D01*
X130245800Y-72844700D01*
X130540800Y-72844700D01*
X130555258Y-72845410D01*
X130555258Y-72845410D01*
G37*
D12*
G04 #@! TD*
G04 #@! TO.P,R1,1*
G04 #@! TO.N,/ANT_OFF*
X130393300Y-73164700D03*
D11*
G04 #@! TO.N,GND*
G04 #@! TO.C,R1*
G36*
X129585258Y-72845410D02*
X129599576Y-72847534D01*
X129613617Y-72851051D01*
X129627246Y-72855928D01*
X129640331Y-72862117D01*
X129652747Y-72869558D01*
X129664373Y-72878181D01*
X129675098Y-72887902D01*
X129684819Y-72898627D01*
X129693442Y-72910253D01*
X129700883Y-72922669D01*
X129707072Y-72935754D01*
X129711949Y-72949383D01*
X129715466Y-72963424D01*
X129717590Y-72977742D01*
X129718300Y-72992200D01*
X129718300Y-73337200D01*
X129717590Y-73351658D01*
X129715466Y-73365976D01*
X129711949Y-73380017D01*
X129707072Y-73393646D01*
X129700883Y-73406731D01*
X129693442Y-73419147D01*
X129684819Y-73430773D01*
X129675098Y-73441498D01*
X129664373Y-73451219D01*
X129652747Y-73459842D01*
X129640331Y-73467283D01*
X129627246Y-73473472D01*
X129613617Y-73478349D01*
X129599576Y-73481866D01*
X129585258Y-73483990D01*
X129570800Y-73484700D01*
X129275800Y-73484700D01*
X129261342Y-73483990D01*
X129247024Y-73481866D01*
X129232983Y-73478349D01*
X129219354Y-73473472D01*
X129206269Y-73467283D01*
X129193853Y-73459842D01*
X129182227Y-73451219D01*
X129171502Y-73441498D01*
X129161781Y-73430773D01*
X129153158Y-73419147D01*
X129145717Y-73406731D01*
X129139528Y-73393646D01*
X129134651Y-73380017D01*
X129131134Y-73365976D01*
X129129010Y-73351658D01*
X129128300Y-73337200D01*
X129128300Y-72992200D01*
X129129010Y-72977742D01*
X129131134Y-72963424D01*
X129134651Y-72949383D01*
X129139528Y-72935754D01*
X129145717Y-72922669D01*
X129153158Y-72910253D01*
X129161781Y-72898627D01*
X129171502Y-72887902D01*
X129182227Y-72878181D01*
X129193853Y-72869558D01*
X129206269Y-72862117D01*
X129219354Y-72855928D01*
X129232983Y-72851051D01*
X129247024Y-72847534D01*
X129261342Y-72845410D01*
X129275800Y-72844700D01*
X129570800Y-72844700D01*
X129585258Y-72845410D01*
X129585258Y-72845410D01*
G37*
D12*
G04 #@! TD*
G04 #@! TO.P,R1,2*
G04 #@! TO.N,GND*
X129423300Y-73164700D03*
D15*
G04 #@! TO.P,U1,1*
G04 #@! TO.N,GND*
X133077000Y-71904200D03*
G04 #@! TO.P,U1,2*
G04 #@! TO.N,/VCC_RF*
X133477000Y-71904200D03*
G04 #@! TO.P,U1,3*
G04 #@! TO.N,Net-(U1-Pad3)*
X133877000Y-71904200D03*
G04 #@! TO.P,U1,4*
G04 #@! TO.N,GND*
X133877000Y-71504200D03*
G04 #@! TO.P,U1,5*
G04 #@! TO.N,Net-(L1-Pad2)*
X133477000Y-71504200D03*
G04 #@! TO.P,U1,6*
G04 #@! TO.N,/ANT_OFF*
X133077000Y-71504200D03*
G04 #@! TD*
D16*
G04 #@! TO.P,U3,10*
G04 #@! TO.N,GND*
X137289900Y-75946000D03*
G04 #@! TO.P,U3,11*
G04 #@! TO.N,/RF_IN*
X136189900Y-75946000D03*
G04 #@! TO.P,U3,12*
G04 #@! TO.N,GND*
X135089900Y-75946000D03*
G04 #@! TO.P,U3,13*
G04 #@! TO.N,/ANT_OFF*
X133989900Y-75946000D03*
G04 #@! TO.P,U3,14*
G04 #@! TO.N,/VCC_RF*
X132889900Y-75946000D03*
G04 #@! TO.P,U3,15*
G04 #@! TO.N,Net-(U3-Pad15)*
X131789900Y-75946000D03*
G04 #@! TO.P,U3,16*
G04 #@! TO.N,/SDA*
X130689900Y-75946000D03*
G04 #@! TO.P,U3,17*
G04 #@! TO.N,/SCL*
X129589900Y-75946000D03*
G04 #@! TO.P,U3,18*
G04 #@! TO.N,Net-(U3-Pad18)*
X128489900Y-75946000D03*
G04 #@! TO.P,U3,9*
G04 #@! TO.N,/~RESET*
X137289900Y-85146000D03*
G04 #@! TO.P,U3,8*
G04 #@! TO.N,/VCC*
X136189900Y-85146000D03*
G04 #@! TO.P,U3,7*
G04 #@! TO.N,/VCC_IO*
X135089900Y-85146000D03*
G04 #@! TO.P,U3,6*
G04 #@! TO.N,/V_BATT*
X133989900Y-85146000D03*
G04 #@! TO.P,U3,5*
G04 #@! TO.N,/WAKEUP*
X132889900Y-85146000D03*
G04 #@! TO.P,U3,4*
G04 #@! TO.N,/1PPS*
X131789900Y-85146000D03*
G04 #@! TO.P,U3,3*
G04 #@! TO.N,/UART_RX*
X130689900Y-85146000D03*
G04 #@! TO.P,U3,2*
G04 #@! TO.N,/UART_TX*
X129589900Y-85146000D03*
G04 #@! TO.P,U3,1*
G04 #@! TO.N,GND*
X128489900Y-85146000D03*
G04 #@! TD*
D17*
G04 #@! TO.P,U2,5*
G04 #@! TO.N,Net-(C3-Pad2)*
X134158200Y-73609200D03*
G04 #@! TO.P,U2,4*
G04 #@! TO.N,GND*
X134158200Y-74109200D03*
G04 #@! TO.P,U2,3*
X133583200Y-74109200D03*
G04 #@! TO.P,U2,2*
X133583200Y-73609200D03*
G04 #@! TO.P,U2,1*
G04 #@! TO.N,Net-(U1-Pad3)*
X133870700Y-73109200D03*
G04 #@! TD*
D11*
G04 #@! TO.N,Net-(C1-Pad2)*
G04 #@! TO.C,R2*
G36*
X133636558Y-66482710D02*
X133650876Y-66484834D01*
X133664917Y-66488351D01*
X133678546Y-66493228D01*
X133691631Y-66499417D01*
X133704047Y-66506858D01*
X133715673Y-66515481D01*
X133726398Y-66525202D01*
X133736119Y-66535927D01*
X133744742Y-66547553D01*
X133752183Y-66559969D01*
X133758372Y-66573054D01*
X133763249Y-66586683D01*
X133766766Y-66600724D01*
X133768890Y-66615042D01*
X133769600Y-66629500D01*
X133769600Y-66974500D01*
X133768890Y-66988958D01*
X133766766Y-67003276D01*
X133763249Y-67017317D01*
X133758372Y-67030946D01*
X133752183Y-67044031D01*
X133744742Y-67056447D01*
X133736119Y-67068073D01*
X133726398Y-67078798D01*
X133715673Y-67088519D01*
X133704047Y-67097142D01*
X133691631Y-67104583D01*
X133678546Y-67110772D01*
X133664917Y-67115649D01*
X133650876Y-67119166D01*
X133636558Y-67121290D01*
X133622100Y-67122000D01*
X133327100Y-67122000D01*
X133312642Y-67121290D01*
X133298324Y-67119166D01*
X133284283Y-67115649D01*
X133270654Y-67110772D01*
X133257569Y-67104583D01*
X133245153Y-67097142D01*
X133233527Y-67088519D01*
X133222802Y-67078798D01*
X133213081Y-67068073D01*
X133204458Y-67056447D01*
X133197017Y-67044031D01*
X133190828Y-67030946D01*
X133185951Y-67017317D01*
X133182434Y-67003276D01*
X133180310Y-66988958D01*
X133179600Y-66974500D01*
X133179600Y-66629500D01*
X133180310Y-66615042D01*
X133182434Y-66600724D01*
X133185951Y-66586683D01*
X133190828Y-66573054D01*
X133197017Y-66559969D01*
X133204458Y-66547553D01*
X133213081Y-66535927D01*
X133222802Y-66525202D01*
X133233527Y-66515481D01*
X133245153Y-66506858D01*
X133257569Y-66499417D01*
X133270654Y-66493228D01*
X133284283Y-66488351D01*
X133298324Y-66484834D01*
X133312642Y-66482710D01*
X133327100Y-66482000D01*
X133622100Y-66482000D01*
X133636558Y-66482710D01*
X133636558Y-66482710D01*
G37*
D12*
G04 #@! TD*
G04 #@! TO.P,R2,2*
G04 #@! TO.N,Net-(C1-Pad2)*
X133474600Y-66802000D03*
D11*
G04 #@! TO.N,Net-(R2-Pad1)*
G04 #@! TO.C,R2*
G36*
X134606558Y-66482710D02*
X134620876Y-66484834D01*
X134634917Y-66488351D01*
X134648546Y-66493228D01*
X134661631Y-66499417D01*
X134674047Y-66506858D01*
X134685673Y-66515481D01*
X134696398Y-66525202D01*
X134706119Y-66535927D01*
X134714742Y-66547553D01*
X134722183Y-66559969D01*
X134728372Y-66573054D01*
X134733249Y-66586683D01*
X134736766Y-66600724D01*
X134738890Y-66615042D01*
X134739600Y-66629500D01*
X134739600Y-66974500D01*
X134738890Y-66988958D01*
X134736766Y-67003276D01*
X134733249Y-67017317D01*
X134728372Y-67030946D01*
X134722183Y-67044031D01*
X134714742Y-67056447D01*
X134706119Y-67068073D01*
X134696398Y-67078798D01*
X134685673Y-67088519D01*
X134674047Y-67097142D01*
X134661631Y-67104583D01*
X134648546Y-67110772D01*
X134634917Y-67115649D01*
X134620876Y-67119166D01*
X134606558Y-67121290D01*
X134592100Y-67122000D01*
X134297100Y-67122000D01*
X134282642Y-67121290D01*
X134268324Y-67119166D01*
X134254283Y-67115649D01*
X134240654Y-67110772D01*
X134227569Y-67104583D01*
X134215153Y-67097142D01*
X134203527Y-67088519D01*
X134192802Y-67078798D01*
X134183081Y-67068073D01*
X134174458Y-67056447D01*
X134167017Y-67044031D01*
X134160828Y-67030946D01*
X134155951Y-67017317D01*
X134152434Y-67003276D01*
X134150310Y-66988958D01*
X134149600Y-66974500D01*
X134149600Y-66629500D01*
X134150310Y-66615042D01*
X134152434Y-66600724D01*
X134155951Y-66586683D01*
X134160828Y-66573054D01*
X134167017Y-66559969D01*
X134174458Y-66547553D01*
X134183081Y-66535927D01*
X134192802Y-66525202D01*
X134203527Y-66515481D01*
X134215153Y-66506858D01*
X134227569Y-66499417D01*
X134240654Y-66493228D01*
X134254283Y-66488351D01*
X134268324Y-66484834D01*
X134282642Y-66482710D01*
X134297100Y-66482000D01*
X134592100Y-66482000D01*
X134606558Y-66482710D01*
X134606558Y-66482710D01*
G37*
D12*
G04 #@! TD*
G04 #@! TO.P,R2,1*
G04 #@! TO.N,Net-(R2-Pad1)*
X134444600Y-66802000D03*
D11*
G04 #@! TO.N,Net-(R2-Pad1)*
G04 #@! TO.C,R3*
G36*
X136369058Y-71051910D02*
X136383376Y-71054034D01*
X136397417Y-71057551D01*
X136411046Y-71062428D01*
X136424131Y-71068617D01*
X136436547Y-71076058D01*
X136448173Y-71084681D01*
X136458898Y-71094402D01*
X136468619Y-71105127D01*
X136477242Y-71116753D01*
X136484683Y-71129169D01*
X136490872Y-71142254D01*
X136495749Y-71155883D01*
X136499266Y-71169924D01*
X136501390Y-71184242D01*
X136502100Y-71198700D01*
X136502100Y-71493700D01*
X136501390Y-71508158D01*
X136499266Y-71522476D01*
X136495749Y-71536517D01*
X136490872Y-71550146D01*
X136484683Y-71563231D01*
X136477242Y-71575647D01*
X136468619Y-71587273D01*
X136458898Y-71597998D01*
X136448173Y-71607719D01*
X136436547Y-71616342D01*
X136424131Y-71623783D01*
X136411046Y-71629972D01*
X136397417Y-71634849D01*
X136383376Y-71638366D01*
X136369058Y-71640490D01*
X136354600Y-71641200D01*
X136009600Y-71641200D01*
X135995142Y-71640490D01*
X135980824Y-71638366D01*
X135966783Y-71634849D01*
X135953154Y-71629972D01*
X135940069Y-71623783D01*
X135927653Y-71616342D01*
X135916027Y-71607719D01*
X135905302Y-71597998D01*
X135895581Y-71587273D01*
X135886958Y-71575647D01*
X135879517Y-71563231D01*
X135873328Y-71550146D01*
X135868451Y-71536517D01*
X135864934Y-71522476D01*
X135862810Y-71508158D01*
X135862100Y-71493700D01*
X135862100Y-71198700D01*
X135862810Y-71184242D01*
X135864934Y-71169924D01*
X135868451Y-71155883D01*
X135873328Y-71142254D01*
X135879517Y-71129169D01*
X135886958Y-71116753D01*
X135895581Y-71105127D01*
X135905302Y-71094402D01*
X135916027Y-71084681D01*
X135927653Y-71076058D01*
X135940069Y-71068617D01*
X135953154Y-71062428D01*
X135966783Y-71057551D01*
X135980824Y-71054034D01*
X135995142Y-71051910D01*
X136009600Y-71051200D01*
X136354600Y-71051200D01*
X136369058Y-71051910D01*
X136369058Y-71051910D01*
G37*
D12*
G04 #@! TD*
G04 #@! TO.P,R3,1*
G04 #@! TO.N,Net-(R2-Pad1)*
X136182100Y-71346200D03*
D11*
G04 #@! TO.N,/RF_IN*
G04 #@! TO.C,R3*
G36*
X136369058Y-72021910D02*
X136383376Y-72024034D01*
X136397417Y-72027551D01*
X136411046Y-72032428D01*
X136424131Y-72038617D01*
X136436547Y-72046058D01*
X136448173Y-72054681D01*
X136458898Y-72064402D01*
X136468619Y-72075127D01*
X136477242Y-72086753D01*
X136484683Y-72099169D01*
X136490872Y-72112254D01*
X136495749Y-72125883D01*
X136499266Y-72139924D01*
X136501390Y-72154242D01*
X136502100Y-72168700D01*
X136502100Y-72463700D01*
X136501390Y-72478158D01*
X136499266Y-72492476D01*
X136495749Y-72506517D01*
X136490872Y-72520146D01*
X136484683Y-72533231D01*
X136477242Y-72545647D01*
X136468619Y-72557273D01*
X136458898Y-72567998D01*
X136448173Y-72577719D01*
X136436547Y-72586342D01*
X136424131Y-72593783D01*
X136411046Y-72599972D01*
X136397417Y-72604849D01*
X136383376Y-72608366D01*
X136369058Y-72610490D01*
X136354600Y-72611200D01*
X136009600Y-72611200D01*
X135995142Y-72610490D01*
X135980824Y-72608366D01*
X135966783Y-72604849D01*
X135953154Y-72599972D01*
X135940069Y-72593783D01*
X135927653Y-72586342D01*
X135916027Y-72577719D01*
X135905302Y-72567998D01*
X135895581Y-72557273D01*
X135886958Y-72545647D01*
X135879517Y-72533231D01*
X135873328Y-72520146D01*
X135868451Y-72506517D01*
X135864934Y-72492476D01*
X135862810Y-72478158D01*
X135862100Y-72463700D01*
X135862100Y-72168700D01*
X135862810Y-72154242D01*
X135864934Y-72139924D01*
X135868451Y-72125883D01*
X135873328Y-72112254D01*
X135879517Y-72099169D01*
X135886958Y-72086753D01*
X135895581Y-72075127D01*
X135905302Y-72064402D01*
X135916027Y-72054681D01*
X135927653Y-72046058D01*
X135940069Y-72038617D01*
X135953154Y-72032428D01*
X135966783Y-72027551D01*
X135980824Y-72024034D01*
X135995142Y-72021910D01*
X136009600Y-72021200D01*
X136354600Y-72021200D01*
X136369058Y-72021910D01*
X136369058Y-72021910D01*
G37*
D12*
G04 #@! TD*
G04 #@! TO.P,R3,2*
G04 #@! TO.N,/RF_IN*
X136182100Y-72316200D03*
D18*
G04 #@! TO.P,J2,10*
G04 #@! TO.N,GND*
X140509900Y-62280000D03*
G04 #@! TO.P,J2,9*
X140509900Y-64820000D03*
G04 #@! TO.P,J2,8*
G04 #@! TO.N,/ANT_OFF*
X140509900Y-67360000D03*
G04 #@! TO.P,J2,7*
G04 #@! TO.N,/VCC_RF*
X140509900Y-69900000D03*
G04 #@! TO.P,J2,6*
G04 #@! TO.N,/WAKEUP*
X140509900Y-72440000D03*
G04 #@! TO.P,J2,5*
G04 #@! TO.N,/V_BATT*
X140509900Y-74980000D03*
G04 #@! TO.P,J2,4*
G04 #@! TO.N,/VCC_IO*
X140509900Y-77520000D03*
G04 #@! TO.P,J2,3*
G04 #@! TO.N,/VCC*
X140509900Y-80060000D03*
G04 #@! TO.P,J2,2*
G04 #@! TO.N,/~RESET*
X140509900Y-82600000D03*
D19*
G04 #@! TO.P,J2,1*
G04 #@! TO.N,GND*
X140509900Y-85140000D03*
G04 #@! TD*
D18*
G04 #@! TO.P,J3,11*
G04 #@! TO.N,GND*
X125196600Y-62280000D03*
G04 #@! TO.P,J3,12*
G04 #@! TO.N,+5V*
X125196600Y-64820000D03*
G04 #@! TO.P,J3,13*
G04 #@! TO.N,+3V3*
X125196600Y-67360000D03*
G04 #@! TO.P,J3,14*
G04 #@! TO.N,/SDA*
X125196600Y-69900000D03*
G04 #@! TO.P,J3,15*
G04 #@! TO.N,/SCL*
X125196600Y-72440000D03*
G04 #@! TO.P,J3,16*
G04 #@! TO.N,/1PPS*
X125196600Y-74980000D03*
G04 #@! TO.P,J3,17*
G04 #@! TO.N,/UART_RX*
X125196600Y-77520000D03*
G04 #@! TO.P,J3,18*
G04 #@! TO.N,/UART_TX*
X125196600Y-80060000D03*
G04 #@! TO.P,J3,19*
G04 #@! TO.N,/VCC_F*
X125196600Y-82600000D03*
D20*
G04 #@! TO.P,J3,20*
G04 #@! TO.N,GND*
X125196600Y-85140000D03*
G04 #@! TD*
D21*
G04 #@! TO.N,GND*
X132321300Y-72250300D03*
X134962900Y-68186300D03*
X134962900Y-65443100D03*
X131991100Y-65455800D03*
X131991100Y-66455800D03*
X131991100Y-67455800D03*
X131991100Y-68455800D03*
X131991100Y-69455800D03*
X131991100Y-70455800D03*
X134962900Y-69186300D03*
X134962900Y-70186300D03*
X134962900Y-71186300D03*
X134962900Y-72186300D03*
X135077200Y-74536300D03*
X131211320Y-74259440D03*
G04 #@! TO.N,/VCC_RF*
X132892800Y-77406500D03*
G04 #@! TO.N,/ANT_OFF*
X130378194Y-72072500D03*
X133989900Y-77406500D03*
G04 #@! TO.N,GND*
X135077200Y-77406500D03*
G04 #@! TO.N,/V_BATT*
X133985000Y-83616800D03*
G04 #@! TO.N,/VCC*
X136194800Y-83616800D03*
G04 #@! TO.N,/1PPS*
X131787900Y-83616800D03*
G04 #@! TO.N,/UART_RX*
X130695700Y-83616800D03*
G04 #@! TO.N,/UART_TX*
X129590800Y-83616800D03*
G04 #@! TO.N,GND*
X130677920Y-77409040D03*
X131820920Y-77406500D03*
X127365760Y-75676760D03*
X128605280Y-78430120D03*
X132737860Y-82423000D03*
X135255000Y-79984600D03*
X130220720Y-79984600D03*
X132737860Y-79984600D03*
X131998720Y-61401960D03*
X134940040Y-61386720D03*
G04 #@! TD*
D22*
G04 #@! TO.N,Net-(U1-Pad3)*
X133877000Y-73102900D02*
X133870700Y-73109200D01*
X133877000Y-71904200D02*
X133877000Y-73102900D01*
G04 #@! TO.N,GND*
X134570700Y-74109200D02*
X134934300Y-74472800D01*
X134158200Y-74109200D02*
X134570700Y-74109200D01*
X133583200Y-74109200D02*
X134158200Y-74109200D01*
X133583200Y-73609200D02*
X133583200Y-74109200D01*
X134810500Y-74536300D02*
X135077200Y-74536300D01*
X133170700Y-73609200D02*
X133019800Y-73760100D01*
X133583200Y-73609200D02*
X133170700Y-73609200D01*
X133019800Y-73760100D02*
X133019800Y-74587100D01*
X133197600Y-74764900D02*
X134581900Y-74764900D01*
X133019800Y-74587100D02*
X133197600Y-74764900D01*
X134581900Y-74764900D02*
X134810500Y-74536300D01*
D23*
G04 #@! TO.N,/RF_IN*
X136189900Y-73614600D02*
X136184500Y-73609200D01*
X136189900Y-75946000D02*
X136189900Y-73614600D01*
X136182100Y-73606800D02*
X136184500Y-73609200D01*
X136182100Y-72316200D02*
X136182100Y-73606800D01*
G04 #@! TO.N,Net-(C1-Pad1)*
X133477000Y-68684000D02*
X133477000Y-69669800D01*
G04 #@! TO.N,Net-(C1-Pad2)*
X133477000Y-66804400D02*
X133474600Y-66802000D01*
X133477000Y-67714000D02*
X133477000Y-66804400D01*
X133474600Y-64946100D02*
X133477000Y-64943700D01*
X133474600Y-66802000D02*
X133474600Y-64946100D01*
D22*
G04 #@! TO.N,/VCC_RF*
X133477000Y-72189200D02*
X132501500Y-73164700D01*
X133477000Y-71904200D02*
X133477000Y-72189200D01*
X132501500Y-74634500D02*
X132889900Y-75022900D01*
X132889900Y-75022900D02*
X132889900Y-75946000D01*
X132501500Y-73164700D02*
X132501500Y-74634500D01*
X132889900Y-75946000D02*
X132889900Y-77403600D01*
X132889900Y-77403600D02*
X132892800Y-77406500D01*
G04 #@! TO.N,/ANT_OFF*
X130393300Y-73164700D02*
X130393300Y-72087606D01*
X130393300Y-72087606D02*
X130378194Y-72072500D01*
X133989900Y-75946000D02*
X133989900Y-77406500D01*
G04 #@! TO.N,GND*
X128483900Y-85140000D02*
X128489900Y-85146000D01*
G04 #@! TO.N,/V_BATT*
X133989900Y-85146000D02*
X133989900Y-83621700D01*
X133989900Y-83621700D02*
X133985000Y-83616800D01*
G04 #@! TO.N,/~RESET*
X139649200Y-82600000D02*
X140509900Y-82600000D01*
G04 #@! TO.N,/VCC*
X136189900Y-85146000D02*
X136189900Y-83621700D01*
X136189900Y-83621700D02*
X136194800Y-83616800D01*
G04 #@! TO.N,/1PPS*
X131789900Y-85146000D02*
X131789900Y-83618800D01*
X131789900Y-83618800D02*
X131787900Y-83616800D01*
G04 #@! TO.N,/UART_RX*
X130689900Y-85146000D02*
X130689900Y-83622600D01*
X130689900Y-83622600D02*
X130695700Y-83616800D01*
G04 #@! TO.N,/UART_TX*
X129589900Y-85146000D02*
X129589900Y-83617700D01*
X129589900Y-83617700D02*
X129590800Y-83616800D01*
G04 #@! TO.N,GND*
X140503900Y-85146000D02*
X140509900Y-85140000D01*
X132667400Y-71904200D02*
X132321300Y-72250300D01*
X133077000Y-71904200D02*
X132667400Y-71904200D01*
X134645000Y-71504200D02*
X134962900Y-71186300D01*
X133877000Y-71504200D02*
X134645000Y-71504200D01*
G04 #@! TO.N,/VCC*
X138329200Y-80060000D02*
X140509900Y-80060000D01*
X136194800Y-83616800D02*
X136194800Y-82194400D01*
X136194800Y-82194400D02*
X138329200Y-80060000D01*
G04 #@! TO.N,/VCC_RF*
X138570931Y-77290249D02*
X138570931Y-71838969D01*
X138570931Y-71838969D02*
X139659901Y-70749999D01*
X136924369Y-78936811D02*
X138570931Y-77290249D01*
X134423111Y-78936811D02*
X136924369Y-78936811D01*
X139659901Y-70749999D02*
X140509900Y-69900000D01*
X132892800Y-77406500D02*
X134423111Y-78936811D01*
G04 #@! TO.N,/1PPS*
X131787900Y-83192536D02*
X131787900Y-83616800D01*
X131787900Y-83101180D02*
X131787900Y-83192536D01*
X126321601Y-76105001D02*
X126321601Y-77634881D01*
X125196600Y-74980000D02*
X126321601Y-76105001D01*
X126321601Y-77634881D02*
X131787900Y-83101180D01*
G04 #@! TO.N,/UART_RX*
X130695700Y-82643980D02*
X130695700Y-83616800D01*
X125196600Y-77520000D02*
X125571720Y-77520000D01*
X125571720Y-77520000D02*
X130695700Y-82643980D01*
G04 #@! TO.N,/UART_TX*
X129590800Y-82184240D02*
X129590800Y-83616800D01*
X125196600Y-80060000D02*
X127466560Y-80060000D01*
X127466560Y-80060000D02*
X129590800Y-82184240D01*
G04 #@! TO.N,/ANT_OFF*
X134289899Y-77706499D02*
X134289899Y-77719019D01*
X133989900Y-77406500D02*
X134289899Y-77706499D01*
X134289899Y-77719019D02*
X135107680Y-78536800D01*
X135107680Y-78536800D02*
X136758680Y-78536800D01*
X136758680Y-78536800D02*
X138170920Y-77124560D01*
X138170920Y-69698980D02*
X140509900Y-67360000D01*
X138170920Y-77124560D02*
X138170920Y-69698980D01*
X130946494Y-71504200D02*
X130378194Y-72072500D01*
X133077000Y-71504200D02*
X130946494Y-71504200D01*
G04 #@! TO.N,/SDA*
X130689900Y-75737000D02*
X130689900Y-75946000D01*
X130708400Y-75718500D02*
X130689900Y-75737000D01*
X130708400Y-74828400D02*
X130708400Y-75718500D01*
X127078740Y-74714100D02*
X130594100Y-74714100D01*
X130594100Y-74714100D02*
X130708400Y-74828400D01*
X125196600Y-69961760D02*
X126415800Y-71180960D01*
X125196600Y-69900000D02*
X125196600Y-69961760D01*
X126415800Y-71180960D02*
X126415800Y-73477120D01*
X126415800Y-73477120D02*
X126993610Y-74054930D01*
X126993610Y-74054930D02*
X126993610Y-74628970D01*
X126993610Y-74628970D02*
X127078740Y-74714100D01*
G04 #@! TO.N,/SCL*
X129166700Y-77419200D02*
X129589900Y-76996000D01*
X126593600Y-75811300D02*
X128201500Y-77419200D01*
X129589900Y-76996000D02*
X129589900Y-75946000D01*
X126593600Y-74256900D02*
X126593600Y-75811300D01*
X125197400Y-72860700D02*
X126593600Y-74256900D01*
X125197400Y-72440800D02*
X125197400Y-72860700D01*
X125196600Y-72440000D02*
X125197400Y-72440800D01*
X128201500Y-77419200D02*
X129166700Y-77419200D01*
G04 #@! TO.N,/~RESET*
X139004840Y-82600000D02*
X140509900Y-82600000D01*
X137289900Y-85146000D02*
X137289900Y-84314940D01*
X137289900Y-84314940D02*
X139004840Y-82600000D01*
G04 #@! TO.N,/WAKEUP*
X138984888Y-73965012D02*
X139659901Y-73289999D01*
X139659901Y-73289999D02*
X140509900Y-72440000D01*
X138984888Y-77629572D02*
X138984888Y-73965012D01*
X132889900Y-83724560D02*
X138984888Y-77629572D01*
X132889900Y-85146000D02*
X132889900Y-83724560D01*
G04 #@! TO.N,Net-(C3-Pad2)*
X134158200Y-73609200D02*
X135214500Y-73609200D01*
D23*
G04 #@! TO.N,Net-(L1-Pad2)*
X133477000Y-70639800D02*
X133477000Y-70981699D01*
D22*
X133477000Y-70981699D02*
X133477000Y-71504200D01*
D23*
G04 #@! TO.N,Net-(R2-Pad1)*
X134444600Y-66802000D02*
X135153400Y-66802000D01*
X136194800Y-71333500D02*
X136182100Y-71346200D01*
X136194800Y-67805300D02*
X136194800Y-71333500D01*
D22*
X135153400Y-66802000D02*
X135509000Y-66802000D01*
X136194800Y-67487800D02*
X136194800Y-67805300D01*
X135509000Y-66802000D02*
X136194800Y-67487800D01*
G04 #@! TO.N,/VCC_IO*
X140094500Y-77520000D02*
X140509900Y-77520000D01*
X140290080Y-77520000D02*
X140509900Y-77520000D01*
X135097520Y-82712560D02*
X140290080Y-77520000D01*
X135097520Y-84088380D02*
X135097520Y-82712560D01*
X135089900Y-85146000D02*
X135089900Y-84096000D01*
X135089900Y-84096000D02*
X135097520Y-84088380D01*
G04 #@! TO.N,/V_BATT*
X139384899Y-76105001D02*
X140509900Y-74980000D01*
X133985000Y-83195160D02*
X139384899Y-77795261D01*
X139384899Y-77795261D02*
X139384899Y-76105001D01*
X133985000Y-83616800D02*
X133985000Y-83195160D01*
G04 #@! TD*
G04 #@! TO.N,GND*
G36*
X141212950Y-60918850D02*
X141520349Y-61084714D01*
X141757447Y-61341206D01*
X141902170Y-61668561D01*
X141938001Y-61952197D01*
X141938000Y-85460943D01*
X141874750Y-85840950D01*
X141708886Y-86148349D01*
X141701838Y-86154864D01*
X141738900Y-86065388D01*
X141738900Y-85236750D01*
X141644150Y-85142000D01*
X140511900Y-85142000D01*
X140511900Y-86274250D01*
X140606650Y-86369000D01*
X141435288Y-86369000D01*
X141498521Y-86342808D01*
X141452393Y-86385448D01*
X141125039Y-86530170D01*
X140841411Y-86566000D01*
X124863757Y-86566000D01*
X124483750Y-86502750D01*
X124176351Y-86336886D01*
X123939252Y-86080393D01*
X123886237Y-85960474D01*
X124378954Y-85960474D01*
X124461678Y-86154936D01*
X124906020Y-86358921D01*
X125394600Y-86377336D01*
X125853036Y-86207378D01*
X125931522Y-86154936D01*
X126014246Y-85960474D01*
X125196600Y-85142828D01*
X124378954Y-85960474D01*
X123886237Y-85960474D01*
X123794530Y-85753039D01*
X123758700Y-85469411D01*
X123758700Y-85338000D01*
X123959264Y-85338000D01*
X124129222Y-85796436D01*
X124181664Y-85874922D01*
X124376126Y-85957646D01*
X125193772Y-85140000D01*
X125199428Y-85140000D01*
X126017074Y-85957646D01*
X126211536Y-85874922D01*
X126415521Y-85430580D01*
X126422600Y-85242750D01*
X127660900Y-85242750D01*
X127660900Y-86021388D01*
X127718599Y-86160686D01*
X127825214Y-86267301D01*
X127964512Y-86325000D01*
X128393150Y-86325000D01*
X128487900Y-86230250D01*
X128487900Y-85148000D01*
X127755650Y-85148000D01*
X127660900Y-85242750D01*
X126422600Y-85242750D01*
X126433936Y-84942000D01*
X126263978Y-84483564D01*
X126211536Y-84405078D01*
X126017074Y-84322354D01*
X125199428Y-85140000D01*
X125193772Y-85140000D01*
X124376126Y-84322354D01*
X124181664Y-84405078D01*
X123977679Y-84849420D01*
X123959264Y-85338000D01*
X123758700Y-85338000D01*
X123758700Y-84319526D01*
X124378954Y-84319526D01*
X125196600Y-85137172D01*
X126014246Y-84319526D01*
X125993439Y-84270612D01*
X127660900Y-84270612D01*
X127660900Y-85049250D01*
X127755650Y-85144000D01*
X128487900Y-85144000D01*
X128487900Y-84061750D01*
X128393150Y-83967000D01*
X127964512Y-83967000D01*
X127825214Y-84024699D01*
X127718599Y-84131314D01*
X127660900Y-84270612D01*
X125993439Y-84270612D01*
X125931522Y-84125064D01*
X125487180Y-83921079D01*
X124998600Y-83902664D01*
X124540164Y-84072622D01*
X124461678Y-84125064D01*
X124378954Y-84319526D01*
X123758700Y-84319526D01*
X123758700Y-82600000D01*
X123943523Y-82600000D01*
X124038908Y-83079532D01*
X124310541Y-83486059D01*
X124717068Y-83757692D01*
X125075557Y-83829000D01*
X125317643Y-83829000D01*
X125676132Y-83757692D01*
X126082659Y-83486059D01*
X126354292Y-83079532D01*
X126449677Y-82600000D01*
X126354292Y-82120468D01*
X126082659Y-81713941D01*
X125676132Y-81442308D01*
X125317643Y-81371000D01*
X125075557Y-81371000D01*
X124717068Y-81442308D01*
X124310541Y-81713941D01*
X124038908Y-82120468D01*
X123943523Y-82600000D01*
X123758700Y-82600000D01*
X123758700Y-69900000D01*
X123943523Y-69900000D01*
X124038908Y-70379532D01*
X124310541Y-70786059D01*
X124717068Y-71057692D01*
X125075557Y-71129000D01*
X125317643Y-71129000D01*
X125595757Y-71073680D01*
X125911800Y-71389723D01*
X125911800Y-71439777D01*
X125676132Y-71282308D01*
X125317643Y-71211000D01*
X125075557Y-71211000D01*
X124717068Y-71282308D01*
X124310541Y-71553941D01*
X124038908Y-71960468D01*
X123943523Y-72440000D01*
X124038908Y-72919532D01*
X124310541Y-73326059D01*
X124717068Y-73597692D01*
X125075557Y-73669000D01*
X125292937Y-73669000D01*
X125389163Y-73765226D01*
X125317643Y-73751000D01*
X125075557Y-73751000D01*
X124717068Y-73822308D01*
X124310541Y-74093941D01*
X124038908Y-74500468D01*
X123943523Y-74980000D01*
X124038908Y-75459532D01*
X124310541Y-75866059D01*
X124717068Y-76137692D01*
X125075557Y-76209000D01*
X125317643Y-76209000D01*
X125647269Y-76143433D01*
X125817601Y-76313765D01*
X125817601Y-76456835D01*
X125676132Y-76362308D01*
X125317643Y-76291000D01*
X125075557Y-76291000D01*
X124717068Y-76362308D01*
X124310541Y-76633941D01*
X124038908Y-77040468D01*
X123943523Y-77520000D01*
X124038908Y-77999532D01*
X124310541Y-78406059D01*
X124717068Y-78677692D01*
X125075557Y-78749000D01*
X125317643Y-78749000D01*
X125676132Y-78677692D01*
X125880257Y-78541300D01*
X126894957Y-79556000D01*
X126337943Y-79556000D01*
X126082659Y-79173941D01*
X125676132Y-78902308D01*
X125317643Y-78831000D01*
X125075557Y-78831000D01*
X124717068Y-78902308D01*
X124310541Y-79173941D01*
X124038908Y-79580468D01*
X123943523Y-80060000D01*
X124038908Y-80539532D01*
X124310541Y-80946059D01*
X124717068Y-81217692D01*
X125075557Y-81289000D01*
X125317643Y-81289000D01*
X125676132Y-81217692D01*
X126082659Y-80946059D01*
X126337943Y-80564000D01*
X127257797Y-80564000D01*
X129086800Y-82393004D01*
X129086801Y-83160549D01*
X129015172Y-83232178D01*
X128911800Y-83481739D01*
X128911800Y-83751861D01*
X129000914Y-83967000D01*
X128586650Y-83967000D01*
X128491900Y-84061750D01*
X128491900Y-85144000D01*
X128511900Y-85144000D01*
X128511900Y-85148000D01*
X128491900Y-85148000D01*
X128491900Y-86230250D01*
X128586650Y-86325000D01*
X129015288Y-86325000D01*
X129043605Y-86313271D01*
X129139900Y-86332425D01*
X130039900Y-86332425D01*
X130139900Y-86312534D01*
X130239900Y-86332425D01*
X131139900Y-86332425D01*
X131239900Y-86312534D01*
X131339900Y-86332425D01*
X132239900Y-86332425D01*
X132339900Y-86312534D01*
X132439900Y-86332425D01*
X133339900Y-86332425D01*
X133439900Y-86312534D01*
X133539900Y-86332425D01*
X134439900Y-86332425D01*
X134539900Y-86312534D01*
X134639900Y-86332425D01*
X135539900Y-86332425D01*
X135639900Y-86312534D01*
X135739900Y-86332425D01*
X136639900Y-86332425D01*
X136739900Y-86312534D01*
X136839900Y-86332425D01*
X137739900Y-86332425D01*
X137887778Y-86303010D01*
X138013144Y-86219244D01*
X138096910Y-86093878D01*
X138126325Y-85946000D01*
X138126325Y-85236750D01*
X139280900Y-85236750D01*
X139280900Y-86065388D01*
X139338599Y-86204686D01*
X139445214Y-86311301D01*
X139584512Y-86369000D01*
X140413150Y-86369000D01*
X140507900Y-86274250D01*
X140507900Y-85142000D01*
X139375650Y-85142000D01*
X139280900Y-85236750D01*
X138126325Y-85236750D01*
X138126325Y-84346000D01*
X138100655Y-84216948D01*
X138102991Y-84214612D01*
X139280900Y-84214612D01*
X139280900Y-85043250D01*
X139375650Y-85138000D01*
X140507900Y-85138000D01*
X140507900Y-84005750D01*
X140511900Y-84005750D01*
X140511900Y-85138000D01*
X141644150Y-85138000D01*
X141738900Y-85043250D01*
X141738900Y-84214612D01*
X141681201Y-84075314D01*
X141574586Y-83968699D01*
X141435288Y-83911000D01*
X140606650Y-83911000D01*
X140511900Y-84005750D01*
X140507900Y-84005750D01*
X140413150Y-83911000D01*
X139584512Y-83911000D01*
X139445214Y-83968699D01*
X139338599Y-84075314D01*
X139280900Y-84214612D01*
X138102991Y-84214612D01*
X139213603Y-83104000D01*
X139368557Y-83104000D01*
X139623841Y-83486059D01*
X140030368Y-83757692D01*
X140388857Y-83829000D01*
X140630943Y-83829000D01*
X140989432Y-83757692D01*
X141395959Y-83486059D01*
X141667592Y-83079532D01*
X141762977Y-82600000D01*
X141667592Y-82120468D01*
X141395959Y-81713941D01*
X140989432Y-81442308D01*
X140630943Y-81371000D01*
X140388857Y-81371000D01*
X140030368Y-81442308D01*
X139623841Y-81713941D01*
X139368557Y-82096000D01*
X139054469Y-82096000D01*
X139004839Y-82086128D01*
X138955209Y-82096000D01*
X138955205Y-82096000D01*
X138808189Y-82125243D01*
X138641477Y-82236637D01*
X138613360Y-82278717D01*
X136968615Y-83923462D01*
X136926538Y-83951577D01*
X136921194Y-83959575D01*
X136839900Y-83959575D01*
X136783080Y-83970877D01*
X136873800Y-83751861D01*
X136873800Y-83481739D01*
X136770428Y-83232178D01*
X136698800Y-83160550D01*
X136698800Y-82403163D01*
X138537963Y-80564000D01*
X139368557Y-80564000D01*
X139623841Y-80946059D01*
X140030368Y-81217692D01*
X140388857Y-81289000D01*
X140630943Y-81289000D01*
X140989432Y-81217692D01*
X141395959Y-80946059D01*
X141667592Y-80539532D01*
X141762977Y-80060000D01*
X141667592Y-79580468D01*
X141395959Y-79173941D01*
X140989432Y-78902308D01*
X140630943Y-78831000D01*
X140388857Y-78831000D01*
X140030368Y-78902308D01*
X139623841Y-79173941D01*
X139368557Y-79556000D01*
X138966844Y-79556000D01*
X139919339Y-78603505D01*
X140030368Y-78677692D01*
X140388857Y-78749000D01*
X140630943Y-78749000D01*
X140989432Y-78677692D01*
X141395959Y-78406059D01*
X141667592Y-77999532D01*
X141762977Y-77520000D01*
X141667592Y-77040468D01*
X141395959Y-76633941D01*
X140989432Y-76362308D01*
X140630943Y-76291000D01*
X140388857Y-76291000D01*
X140030368Y-76362308D01*
X139888899Y-76456835D01*
X139888899Y-76313764D01*
X140059230Y-76143433D01*
X140388857Y-76209000D01*
X140630943Y-76209000D01*
X140989432Y-76137692D01*
X141395959Y-75866059D01*
X141667592Y-75459532D01*
X141762977Y-74980000D01*
X141667592Y-74500468D01*
X141395959Y-74093941D01*
X140989432Y-73822308D01*
X140630943Y-73751000D01*
X140388857Y-73751000D01*
X140030368Y-73822308D01*
X139623841Y-74093941D01*
X139488888Y-74295912D01*
X139488888Y-74173775D01*
X140051380Y-73611284D01*
X140051382Y-73611281D01*
X140059230Y-73603433D01*
X140388857Y-73669000D01*
X140630943Y-73669000D01*
X140989432Y-73597692D01*
X141395959Y-73326059D01*
X141667592Y-72919532D01*
X141762977Y-72440000D01*
X141667592Y-71960468D01*
X141395959Y-71553941D01*
X140989432Y-71282308D01*
X140630943Y-71211000D01*
X140388857Y-71211000D01*
X140030368Y-71282308D01*
X139623841Y-71553941D01*
X139352208Y-71960468D01*
X139256823Y-72440000D01*
X139346467Y-72890670D01*
X139338619Y-72898518D01*
X139338616Y-72898520D01*
X139074931Y-73162205D01*
X139074931Y-72047732D01*
X140059230Y-71063433D01*
X140388857Y-71129000D01*
X140630943Y-71129000D01*
X140989432Y-71057692D01*
X141395959Y-70786059D01*
X141667592Y-70379532D01*
X141762977Y-69900000D01*
X141667592Y-69420468D01*
X141395959Y-69013941D01*
X140989432Y-68742308D01*
X140630943Y-68671000D01*
X140388857Y-68671000D01*
X140030368Y-68742308D01*
X139623841Y-69013941D01*
X139352208Y-69420468D01*
X139256823Y-69900000D01*
X139346467Y-70350670D01*
X138674920Y-71022217D01*
X138674920Y-69907743D01*
X140059230Y-68523433D01*
X140388857Y-68589000D01*
X140630943Y-68589000D01*
X140989432Y-68517692D01*
X141395959Y-68246059D01*
X141667592Y-67839532D01*
X141762977Y-67360000D01*
X141667592Y-66880468D01*
X141395959Y-66473941D01*
X140989432Y-66202308D01*
X140630943Y-66131000D01*
X140388857Y-66131000D01*
X140030368Y-66202308D01*
X139623841Y-66473941D01*
X139352208Y-66880468D01*
X139256823Y-67360000D01*
X139346467Y-67810670D01*
X137849635Y-69307502D01*
X137807558Y-69335617D01*
X137779443Y-69377694D01*
X137779441Y-69377696D01*
X137696163Y-69502330D01*
X137657048Y-69698980D01*
X137666921Y-69748616D01*
X137666920Y-74767000D01*
X137386650Y-74767000D01*
X137291900Y-74861750D01*
X137291900Y-75944000D01*
X137311900Y-75944000D01*
X137311900Y-75948000D01*
X137291900Y-75948000D01*
X137291900Y-77030250D01*
X137386650Y-77125000D01*
X137457716Y-77125000D01*
X136549917Y-78032800D01*
X135316444Y-78032800D01*
X134706591Y-77422948D01*
X134668900Y-77366540D01*
X134668900Y-77271439D01*
X134608243Y-77125000D01*
X134993150Y-77125000D01*
X135087900Y-77030250D01*
X135087900Y-75948000D01*
X135067900Y-75948000D01*
X135067900Y-75944000D01*
X135087900Y-75944000D01*
X135087900Y-74861750D01*
X134993150Y-74767000D01*
X134564512Y-74767000D01*
X134536195Y-74778729D01*
X134439900Y-74759575D01*
X133539900Y-74759575D01*
X133439900Y-74779466D01*
X133339900Y-74759575D01*
X133320107Y-74759575D01*
X133281379Y-74701615D01*
X133281378Y-74701614D01*
X133253263Y-74659537D01*
X133211186Y-74631422D01*
X133005500Y-74425737D01*
X133005500Y-73728802D01*
X133026542Y-73714742D01*
X133095725Y-73611202D01*
X133136448Y-73611202D01*
X133041700Y-73705950D01*
X133041700Y-73809588D01*
X133062250Y-73859200D01*
X133041700Y-73908812D01*
X133041700Y-74012450D01*
X133136450Y-74107200D01*
X133330827Y-74107200D01*
X133340484Y-74111200D01*
X133136450Y-74111200D01*
X133041700Y-74205950D01*
X133041700Y-74309588D01*
X133099399Y-74448886D01*
X133206014Y-74555501D01*
X133345312Y-74613200D01*
X133486450Y-74613200D01*
X133581200Y-74518450D01*
X133581200Y-74111200D01*
X133488450Y-74111200D01*
X133492450Y-74107200D01*
X133581200Y-74107200D01*
X133581200Y-73611200D01*
X133561200Y-73611200D01*
X133561200Y-73607200D01*
X133581200Y-73607200D01*
X133581200Y-73595363D01*
X133585200Y-73596159D01*
X133585200Y-73607200D01*
X133605200Y-73607200D01*
X133605200Y-73611200D01*
X133585200Y-73611200D01*
X133585200Y-74107200D01*
X133605200Y-74107200D01*
X133605200Y-74111200D01*
X133585200Y-74111200D01*
X133585200Y-74518450D01*
X133679950Y-74613200D01*
X133821088Y-74613200D01*
X133870700Y-74592650D01*
X133920312Y-74613200D01*
X134061450Y-74613200D01*
X134156200Y-74518450D01*
X134156200Y-74120625D01*
X134160200Y-74120625D01*
X134160200Y-74518450D01*
X134254950Y-74613200D01*
X134396088Y-74613200D01*
X134535386Y-74555501D01*
X134642001Y-74448886D01*
X134699700Y-74309588D01*
X134699700Y-74205950D01*
X134606950Y-74113200D01*
X134658694Y-74113200D01*
X134689458Y-74159242D01*
X134862676Y-74274982D01*
X135067000Y-74315625D01*
X135362000Y-74315625D01*
X135560901Y-74276061D01*
X135560901Y-74767000D01*
X135186650Y-74767000D01*
X135091900Y-74861750D01*
X135091900Y-75944000D01*
X135111900Y-75944000D01*
X135111900Y-75948000D01*
X135091900Y-75948000D01*
X135091900Y-77030250D01*
X135186650Y-77125000D01*
X135615288Y-77125000D01*
X135643605Y-77113271D01*
X135739900Y-77132425D01*
X136639900Y-77132425D01*
X136736195Y-77113271D01*
X136764512Y-77125000D01*
X137193150Y-77125000D01*
X137287900Y-77030250D01*
X137287900Y-75948000D01*
X137267900Y-75948000D01*
X137267900Y-75944000D01*
X137287900Y-75944000D01*
X137287900Y-74861750D01*
X137193150Y-74767000D01*
X136818900Y-74767000D01*
X136818900Y-73995575D01*
X136825282Y-73986024D01*
X136865925Y-73781700D01*
X136865925Y-73436700D01*
X136825282Y-73232376D01*
X136811100Y-73211151D01*
X136811100Y-72723072D01*
X136847882Y-72668024D01*
X136888525Y-72463700D01*
X136888525Y-72168700D01*
X136847882Y-71964376D01*
X136758897Y-71831200D01*
X136847882Y-71698024D01*
X136888525Y-71493700D01*
X136888525Y-71198700D01*
X136847882Y-70994376D01*
X136823800Y-70958335D01*
X136823800Y-67743354D01*
X136787304Y-67559877D01*
X136782607Y-67552847D01*
X136732294Y-67299906D01*
X136732294Y-67299905D01*
X136638374Y-67073163D01*
X136421602Y-66748740D01*
X136248060Y-66575198D01*
X135923636Y-66358425D01*
X135696894Y-66264506D01*
X135314211Y-66188386D01*
X135292696Y-66188386D01*
X135215346Y-66173000D01*
X134851472Y-66173000D01*
X134796424Y-66136218D01*
X134592100Y-66095575D01*
X134297100Y-66095575D01*
X134103600Y-66134065D01*
X134103600Y-65829942D01*
X134124878Y-65825710D01*
X134250244Y-65741944D01*
X134334010Y-65616578D01*
X134363425Y-65468700D01*
X134363425Y-65014233D01*
X139296346Y-65014233D01*
X139314392Y-65104960D01*
X139514444Y-65540770D01*
X139866045Y-65866849D01*
X140315667Y-66033555D01*
X140507900Y-65954249D01*
X140507900Y-64822000D01*
X140511900Y-64822000D01*
X140511900Y-65954249D01*
X140704133Y-66033555D01*
X141153755Y-65866849D01*
X141505356Y-65540770D01*
X141705408Y-65104960D01*
X141723454Y-65014233D01*
X141644148Y-64822000D01*
X140511900Y-64822000D01*
X140507900Y-64822000D01*
X139375652Y-64822000D01*
X139296346Y-65014233D01*
X134363425Y-65014233D01*
X134363425Y-64897700D01*
X134855250Y-64897700D01*
X134950000Y-64802950D01*
X134950000Y-63420700D01*
X134954000Y-63420700D01*
X134954000Y-64802950D01*
X135048750Y-64897700D01*
X135552388Y-64897700D01*
X135691686Y-64840001D01*
X135798301Y-64733386D01*
X135842878Y-64625767D01*
X139296346Y-64625767D01*
X139375652Y-64818000D01*
X140507900Y-64818000D01*
X140507900Y-63685751D01*
X140511900Y-63685751D01*
X140511900Y-64818000D01*
X141644148Y-64818000D01*
X141723454Y-64625767D01*
X141705408Y-64535040D01*
X141505356Y-64099230D01*
X141153755Y-63773151D01*
X140704133Y-63606445D01*
X140511900Y-63685751D01*
X140507900Y-63685751D01*
X140315667Y-63606445D01*
X139866045Y-63773151D01*
X139514444Y-64099230D01*
X139314392Y-64535040D01*
X139296346Y-64625767D01*
X135842878Y-64625767D01*
X135856000Y-64594088D01*
X135856000Y-63515450D01*
X135761250Y-63420700D01*
X134954000Y-63420700D01*
X134950000Y-63420700D01*
X134142750Y-63420700D01*
X134048000Y-63515450D01*
X134048000Y-64046398D01*
X133977000Y-64032275D01*
X132977000Y-64032275D01*
X132906000Y-64046398D01*
X132906000Y-63515450D01*
X132811250Y-63420700D01*
X132004000Y-63420700D01*
X132004000Y-64802950D01*
X132098750Y-64897700D01*
X132590575Y-64897700D01*
X132590575Y-65468700D01*
X132619990Y-65616578D01*
X132703756Y-65741944D01*
X132829122Y-65825710D01*
X132845601Y-65828988D01*
X132845600Y-66407543D01*
X132833818Y-66425176D01*
X132793175Y-66629500D01*
X132793175Y-66974500D01*
X132833818Y-67178824D01*
X132848001Y-67200050D01*
X132848000Y-67307127D01*
X132811218Y-67362176D01*
X132770575Y-67566500D01*
X132770575Y-67861500D01*
X132811218Y-68065824D01*
X132900203Y-68199000D01*
X132811218Y-68332176D01*
X132770575Y-68536500D01*
X132770575Y-68831500D01*
X132811218Y-69035824D01*
X132848000Y-69090873D01*
X132848001Y-69262927D01*
X132811218Y-69317976D01*
X132770575Y-69522300D01*
X132770575Y-69817300D01*
X132811218Y-70021624D01*
X132900203Y-70154800D01*
X132811218Y-70287976D01*
X132770575Y-70492300D01*
X132770575Y-70787300D01*
X132811218Y-70991624D01*
X132816948Y-71000200D01*
X130996129Y-71000200D01*
X130946494Y-70990327D01*
X130749843Y-71029443D01*
X130643085Y-71100777D01*
X130583131Y-71140837D01*
X130555015Y-71182915D01*
X130344430Y-71393500D01*
X130243133Y-71393500D01*
X129993572Y-71496872D01*
X129802566Y-71687878D01*
X129699194Y-71937439D01*
X129699194Y-72207561D01*
X129802566Y-72457122D01*
X129823487Y-72478043D01*
X129793688Y-72465700D01*
X129520050Y-72465700D01*
X129425300Y-72560450D01*
X129425300Y-73162700D01*
X129445300Y-73162700D01*
X129445300Y-73166700D01*
X129425300Y-73166700D01*
X129425300Y-73768950D01*
X129520050Y-73863700D01*
X129793688Y-73863700D01*
X129932986Y-73806001D01*
X129961766Y-73777221D01*
X130041476Y-73830482D01*
X130245800Y-73871125D01*
X130540800Y-73871125D01*
X130745124Y-73830482D01*
X130918342Y-73714742D01*
X130923234Y-73707421D01*
X131021814Y-73806001D01*
X131161112Y-73863700D01*
X131434750Y-73863700D01*
X131529500Y-73768950D01*
X131529500Y-73166700D01*
X131509500Y-73166700D01*
X131509500Y-73162700D01*
X131529500Y-73162700D01*
X131529500Y-72560450D01*
X131434750Y-72465700D01*
X131161112Y-72465700D01*
X131021814Y-72523399D01*
X130923234Y-72621979D01*
X130918342Y-72614658D01*
X130897300Y-72600598D01*
X130897300Y-72513644D01*
X130953822Y-72457122D01*
X131057194Y-72207561D01*
X131057194Y-72106264D01*
X131155258Y-72008200D01*
X132575500Y-72008200D01*
X132575500Y-72102088D01*
X132633199Y-72241386D01*
X132672625Y-72280812D01*
X132495162Y-72458275D01*
X132354000Y-72458275D01*
X132149676Y-72498918D01*
X132069966Y-72552179D01*
X132041186Y-72523399D01*
X131901888Y-72465700D01*
X131628250Y-72465700D01*
X131533500Y-72560450D01*
X131533500Y-73162700D01*
X131553500Y-73162700D01*
X131553500Y-73166700D01*
X131533500Y-73166700D01*
X131533500Y-73768950D01*
X131628250Y-73863700D01*
X131901888Y-73863700D01*
X131997500Y-73824096D01*
X131997501Y-74584864D01*
X131987628Y-74634500D01*
X132012506Y-74759575D01*
X131339900Y-74759575D01*
X131239900Y-74779466D01*
X131211412Y-74773800D01*
X131183157Y-74631750D01*
X131183157Y-74631749D01*
X131071763Y-74465037D01*
X131029683Y-74436920D01*
X130985579Y-74392816D01*
X130957463Y-74350737D01*
X130790751Y-74239343D01*
X130643735Y-74210100D01*
X130643731Y-74210100D01*
X130594100Y-74200228D01*
X130544469Y-74210100D01*
X127497610Y-74210100D01*
X127497610Y-74104565D01*
X127507483Y-74054930D01*
X127468367Y-73858279D01*
X127385089Y-73733645D01*
X127385088Y-73733644D01*
X127356973Y-73691567D01*
X127314896Y-73663452D01*
X126919800Y-73268357D01*
X126919800Y-73261450D01*
X128749300Y-73261450D01*
X128749300Y-73560088D01*
X128806999Y-73699386D01*
X128913614Y-73806001D01*
X129052912Y-73863700D01*
X129326550Y-73863700D01*
X129421300Y-73768950D01*
X129421300Y-73166700D01*
X128844050Y-73166700D01*
X128749300Y-73261450D01*
X126919800Y-73261450D01*
X126919800Y-72769312D01*
X128749300Y-72769312D01*
X128749300Y-73067950D01*
X128844050Y-73162700D01*
X129421300Y-73162700D01*
X129421300Y-72560450D01*
X129326550Y-72465700D01*
X129052912Y-72465700D01*
X128913614Y-72523399D01*
X128806999Y-72630014D01*
X128749300Y-72769312D01*
X126919800Y-72769312D01*
X126919800Y-71230591D01*
X126929672Y-71180959D01*
X126919800Y-71131326D01*
X126919800Y-71131325D01*
X126890557Y-70984309D01*
X126779163Y-70817597D01*
X126737083Y-70789480D01*
X126343414Y-70395811D01*
X126354292Y-70379532D01*
X126449677Y-69900000D01*
X126354292Y-69420468D01*
X126082659Y-69013941D01*
X125676132Y-68742308D01*
X125317643Y-68671000D01*
X125075557Y-68671000D01*
X124717068Y-68742308D01*
X124310541Y-69013941D01*
X124038908Y-69420468D01*
X123943523Y-69900000D01*
X123758700Y-69900000D01*
X123758700Y-67360000D01*
X123943523Y-67360000D01*
X124038908Y-67839532D01*
X124310541Y-68246059D01*
X124717068Y-68517692D01*
X125075557Y-68589000D01*
X125317643Y-68589000D01*
X125676132Y-68517692D01*
X126082659Y-68246059D01*
X126354292Y-67839532D01*
X126449677Y-67360000D01*
X126354292Y-66880468D01*
X126082659Y-66473941D01*
X125676132Y-66202308D01*
X125317643Y-66131000D01*
X125075557Y-66131000D01*
X124717068Y-66202308D01*
X124310541Y-66473941D01*
X124038908Y-66880468D01*
X123943523Y-67360000D01*
X123758700Y-67360000D01*
X123758700Y-64820000D01*
X123943523Y-64820000D01*
X124038908Y-65299532D01*
X124310541Y-65706059D01*
X124717068Y-65977692D01*
X125075557Y-66049000D01*
X125317643Y-66049000D01*
X125676132Y-65977692D01*
X126082659Y-65706059D01*
X126354292Y-65299532D01*
X126449677Y-64820000D01*
X126354292Y-64340468D01*
X126082659Y-63933941D01*
X125676132Y-63662308D01*
X125317643Y-63591000D01*
X125075557Y-63591000D01*
X124717068Y-63662308D01*
X124310541Y-63933941D01*
X124038908Y-64340468D01*
X123943523Y-64820000D01*
X123758700Y-64820000D01*
X123758700Y-63515450D01*
X131098000Y-63515450D01*
X131098000Y-64594088D01*
X131155699Y-64733386D01*
X131262314Y-64840001D01*
X131401612Y-64897700D01*
X131905250Y-64897700D01*
X132000000Y-64802950D01*
X132000000Y-63420700D01*
X131192750Y-63420700D01*
X131098000Y-63515450D01*
X123758700Y-63515450D01*
X123758700Y-62474233D01*
X123983046Y-62474233D01*
X124001092Y-62564960D01*
X124201144Y-63000770D01*
X124552745Y-63326849D01*
X125002367Y-63493555D01*
X125194600Y-63414249D01*
X125194600Y-62282000D01*
X125198600Y-62282000D01*
X125198600Y-63414249D01*
X125390833Y-63493555D01*
X125840455Y-63326849D01*
X126192056Y-63000770D01*
X126392108Y-62564960D01*
X126410154Y-62474233D01*
X126330848Y-62282000D01*
X125198600Y-62282000D01*
X125194600Y-62282000D01*
X124062352Y-62282000D01*
X123983046Y-62474233D01*
X123758700Y-62474233D01*
X123758700Y-62085767D01*
X123983046Y-62085767D01*
X124062352Y-62278000D01*
X125194600Y-62278000D01*
X125194600Y-61145751D01*
X125198600Y-61145751D01*
X125198600Y-62278000D01*
X126330848Y-62278000D01*
X126345158Y-62243312D01*
X131098000Y-62243312D01*
X131098000Y-63321950D01*
X131192750Y-63416700D01*
X132000000Y-63416700D01*
X132000000Y-62034450D01*
X132004000Y-62034450D01*
X132004000Y-63416700D01*
X132811250Y-63416700D01*
X132906000Y-63321950D01*
X132906000Y-62243312D01*
X134048000Y-62243312D01*
X134048000Y-63321950D01*
X134142750Y-63416700D01*
X134950000Y-63416700D01*
X134950000Y-62034450D01*
X134954000Y-62034450D01*
X134954000Y-63416700D01*
X135761250Y-63416700D01*
X135856000Y-63321950D01*
X135856000Y-62474233D01*
X139296346Y-62474233D01*
X139314392Y-62564960D01*
X139514444Y-63000770D01*
X139866045Y-63326849D01*
X140315667Y-63493555D01*
X140507900Y-63414249D01*
X140507900Y-62282000D01*
X140511900Y-62282000D01*
X140511900Y-63414249D01*
X140704133Y-63493555D01*
X141153755Y-63326849D01*
X141505356Y-63000770D01*
X141705408Y-62564960D01*
X141723454Y-62474233D01*
X141644148Y-62282000D01*
X140511900Y-62282000D01*
X140507900Y-62282000D01*
X139375652Y-62282000D01*
X139296346Y-62474233D01*
X135856000Y-62474233D01*
X135856000Y-62243312D01*
X135798301Y-62104014D01*
X135780054Y-62085767D01*
X139296346Y-62085767D01*
X139375652Y-62278000D01*
X140507900Y-62278000D01*
X140507900Y-61145751D01*
X140511900Y-61145751D01*
X140511900Y-62278000D01*
X141644148Y-62278000D01*
X141723454Y-62085767D01*
X141705408Y-61995040D01*
X141505356Y-61559230D01*
X141153755Y-61233151D01*
X140704133Y-61066445D01*
X140511900Y-61145751D01*
X140507900Y-61145751D01*
X140315667Y-61066445D01*
X139866045Y-61233151D01*
X139514444Y-61559230D01*
X139314392Y-61995040D01*
X139296346Y-62085767D01*
X135780054Y-62085767D01*
X135691686Y-61997399D01*
X135552388Y-61939700D01*
X135048750Y-61939700D01*
X134954000Y-62034450D01*
X134950000Y-62034450D01*
X134855250Y-61939700D01*
X134351612Y-61939700D01*
X134212314Y-61997399D01*
X134105699Y-62104014D01*
X134048000Y-62243312D01*
X132906000Y-62243312D01*
X132848301Y-62104014D01*
X132741686Y-61997399D01*
X132602388Y-61939700D01*
X132098750Y-61939700D01*
X132004000Y-62034450D01*
X132000000Y-62034450D01*
X131905250Y-61939700D01*
X131401612Y-61939700D01*
X131262314Y-61997399D01*
X131155699Y-62104014D01*
X131098000Y-62243312D01*
X126345158Y-62243312D01*
X126410154Y-62085767D01*
X126392108Y-61995040D01*
X126192056Y-61559230D01*
X125840455Y-61233151D01*
X125390833Y-61066445D01*
X125198600Y-61145751D01*
X125194600Y-61145751D01*
X125002367Y-61066445D01*
X124552745Y-61233151D01*
X124201144Y-61559230D01*
X124001092Y-61995040D01*
X123983046Y-62085767D01*
X123758700Y-62085767D01*
X123758700Y-61960657D01*
X123821950Y-61580650D01*
X123987814Y-61273251D01*
X124244306Y-61036153D01*
X124571661Y-60891430D01*
X124855289Y-60855600D01*
X140832943Y-60855600D01*
X141212950Y-60918850D01*
X141212950Y-60918850D01*
G37*
X141212950Y-60918850D02*
X141520349Y-61084714D01*
X141757447Y-61341206D01*
X141902170Y-61668561D01*
X141938001Y-61952197D01*
X141938000Y-85460943D01*
X141874750Y-85840950D01*
X141708886Y-86148349D01*
X141701838Y-86154864D01*
X141738900Y-86065388D01*
X141738900Y-85236750D01*
X141644150Y-85142000D01*
X140511900Y-85142000D01*
X140511900Y-86274250D01*
X140606650Y-86369000D01*
X141435288Y-86369000D01*
X141498521Y-86342808D01*
X141452393Y-86385448D01*
X141125039Y-86530170D01*
X140841411Y-86566000D01*
X124863757Y-86566000D01*
X124483750Y-86502750D01*
X124176351Y-86336886D01*
X123939252Y-86080393D01*
X123886237Y-85960474D01*
X124378954Y-85960474D01*
X124461678Y-86154936D01*
X124906020Y-86358921D01*
X125394600Y-86377336D01*
X125853036Y-86207378D01*
X125931522Y-86154936D01*
X126014246Y-85960474D01*
X125196600Y-85142828D01*
X124378954Y-85960474D01*
X123886237Y-85960474D01*
X123794530Y-85753039D01*
X123758700Y-85469411D01*
X123758700Y-85338000D01*
X123959264Y-85338000D01*
X124129222Y-85796436D01*
X124181664Y-85874922D01*
X124376126Y-85957646D01*
X125193772Y-85140000D01*
X125199428Y-85140000D01*
X126017074Y-85957646D01*
X126211536Y-85874922D01*
X126415521Y-85430580D01*
X126422600Y-85242750D01*
X127660900Y-85242750D01*
X127660900Y-86021388D01*
X127718599Y-86160686D01*
X127825214Y-86267301D01*
X127964512Y-86325000D01*
X128393150Y-86325000D01*
X128487900Y-86230250D01*
X128487900Y-85148000D01*
X127755650Y-85148000D01*
X127660900Y-85242750D01*
X126422600Y-85242750D01*
X126433936Y-84942000D01*
X126263978Y-84483564D01*
X126211536Y-84405078D01*
X126017074Y-84322354D01*
X125199428Y-85140000D01*
X125193772Y-85140000D01*
X124376126Y-84322354D01*
X124181664Y-84405078D01*
X123977679Y-84849420D01*
X123959264Y-85338000D01*
X123758700Y-85338000D01*
X123758700Y-84319526D01*
X124378954Y-84319526D01*
X125196600Y-85137172D01*
X126014246Y-84319526D01*
X125993439Y-84270612D01*
X127660900Y-84270612D01*
X127660900Y-85049250D01*
X127755650Y-85144000D01*
X128487900Y-85144000D01*
X128487900Y-84061750D01*
X128393150Y-83967000D01*
X127964512Y-83967000D01*
X127825214Y-84024699D01*
X127718599Y-84131314D01*
X127660900Y-84270612D01*
X125993439Y-84270612D01*
X125931522Y-84125064D01*
X125487180Y-83921079D01*
X124998600Y-83902664D01*
X124540164Y-84072622D01*
X124461678Y-84125064D01*
X124378954Y-84319526D01*
X123758700Y-84319526D01*
X123758700Y-82600000D01*
X123943523Y-82600000D01*
X124038908Y-83079532D01*
X124310541Y-83486059D01*
X124717068Y-83757692D01*
X125075557Y-83829000D01*
X125317643Y-83829000D01*
X125676132Y-83757692D01*
X126082659Y-83486059D01*
X126354292Y-83079532D01*
X126449677Y-82600000D01*
X126354292Y-82120468D01*
X126082659Y-81713941D01*
X125676132Y-81442308D01*
X125317643Y-81371000D01*
X125075557Y-81371000D01*
X124717068Y-81442308D01*
X124310541Y-81713941D01*
X124038908Y-82120468D01*
X123943523Y-82600000D01*
X123758700Y-82600000D01*
X123758700Y-69900000D01*
X123943523Y-69900000D01*
X124038908Y-70379532D01*
X124310541Y-70786059D01*
X124717068Y-71057692D01*
X125075557Y-71129000D01*
X125317643Y-71129000D01*
X125595757Y-71073680D01*
X125911800Y-71389723D01*
X125911800Y-71439777D01*
X125676132Y-71282308D01*
X125317643Y-71211000D01*
X125075557Y-71211000D01*
X124717068Y-71282308D01*
X124310541Y-71553941D01*
X124038908Y-71960468D01*
X123943523Y-72440000D01*
X124038908Y-72919532D01*
X124310541Y-73326059D01*
X124717068Y-73597692D01*
X125075557Y-73669000D01*
X125292937Y-73669000D01*
X125389163Y-73765226D01*
X125317643Y-73751000D01*
X125075557Y-73751000D01*
X124717068Y-73822308D01*
X124310541Y-74093941D01*
X124038908Y-74500468D01*
X123943523Y-74980000D01*
X124038908Y-75459532D01*
X124310541Y-75866059D01*
X124717068Y-76137692D01*
X125075557Y-76209000D01*
X125317643Y-76209000D01*
X125647269Y-76143433D01*
X125817601Y-76313765D01*
X125817601Y-76456835D01*
X125676132Y-76362308D01*
X125317643Y-76291000D01*
X125075557Y-76291000D01*
X124717068Y-76362308D01*
X124310541Y-76633941D01*
X124038908Y-77040468D01*
X123943523Y-77520000D01*
X124038908Y-77999532D01*
X124310541Y-78406059D01*
X124717068Y-78677692D01*
X125075557Y-78749000D01*
X125317643Y-78749000D01*
X125676132Y-78677692D01*
X125880257Y-78541300D01*
X126894957Y-79556000D01*
X126337943Y-79556000D01*
X126082659Y-79173941D01*
X125676132Y-78902308D01*
X125317643Y-78831000D01*
X125075557Y-78831000D01*
X124717068Y-78902308D01*
X124310541Y-79173941D01*
X124038908Y-79580468D01*
X123943523Y-80060000D01*
X124038908Y-80539532D01*
X124310541Y-80946059D01*
X124717068Y-81217692D01*
X125075557Y-81289000D01*
X125317643Y-81289000D01*
X125676132Y-81217692D01*
X126082659Y-80946059D01*
X126337943Y-80564000D01*
X127257797Y-80564000D01*
X129086800Y-82393004D01*
X129086801Y-83160549D01*
X129015172Y-83232178D01*
X128911800Y-83481739D01*
X128911800Y-83751861D01*
X129000914Y-83967000D01*
X128586650Y-83967000D01*
X128491900Y-84061750D01*
X128491900Y-85144000D01*
X128511900Y-85144000D01*
X128511900Y-85148000D01*
X128491900Y-85148000D01*
X128491900Y-86230250D01*
X128586650Y-86325000D01*
X129015288Y-86325000D01*
X129043605Y-86313271D01*
X129139900Y-86332425D01*
X130039900Y-86332425D01*
X130139900Y-86312534D01*
X130239900Y-86332425D01*
X131139900Y-86332425D01*
X131239900Y-86312534D01*
X131339900Y-86332425D01*
X132239900Y-86332425D01*
X132339900Y-86312534D01*
X132439900Y-86332425D01*
X133339900Y-86332425D01*
X133439900Y-86312534D01*
X133539900Y-86332425D01*
X134439900Y-86332425D01*
X134539900Y-86312534D01*
X134639900Y-86332425D01*
X135539900Y-86332425D01*
X135639900Y-86312534D01*
X135739900Y-86332425D01*
X136639900Y-86332425D01*
X136739900Y-86312534D01*
X136839900Y-86332425D01*
X137739900Y-86332425D01*
X137887778Y-86303010D01*
X138013144Y-86219244D01*
X138096910Y-86093878D01*
X138126325Y-85946000D01*
X138126325Y-85236750D01*
X139280900Y-85236750D01*
X139280900Y-86065388D01*
X139338599Y-86204686D01*
X139445214Y-86311301D01*
X139584512Y-86369000D01*
X140413150Y-86369000D01*
X140507900Y-86274250D01*
X140507900Y-85142000D01*
X139375650Y-85142000D01*
X139280900Y-85236750D01*
X138126325Y-85236750D01*
X138126325Y-84346000D01*
X138100655Y-84216948D01*
X138102991Y-84214612D01*
X139280900Y-84214612D01*
X139280900Y-85043250D01*
X139375650Y-85138000D01*
X140507900Y-85138000D01*
X140507900Y-84005750D01*
X140511900Y-84005750D01*
X140511900Y-85138000D01*
X141644150Y-85138000D01*
X141738900Y-85043250D01*
X141738900Y-84214612D01*
X141681201Y-84075314D01*
X141574586Y-83968699D01*
X141435288Y-83911000D01*
X140606650Y-83911000D01*
X140511900Y-84005750D01*
X140507900Y-84005750D01*
X140413150Y-83911000D01*
X139584512Y-83911000D01*
X139445214Y-83968699D01*
X139338599Y-84075314D01*
X139280900Y-84214612D01*
X138102991Y-84214612D01*
X139213603Y-83104000D01*
X139368557Y-83104000D01*
X139623841Y-83486059D01*
X140030368Y-83757692D01*
X140388857Y-83829000D01*
X140630943Y-83829000D01*
X140989432Y-83757692D01*
X141395959Y-83486059D01*
X141667592Y-83079532D01*
X141762977Y-82600000D01*
X141667592Y-82120468D01*
X141395959Y-81713941D01*
X140989432Y-81442308D01*
X140630943Y-81371000D01*
X140388857Y-81371000D01*
X140030368Y-81442308D01*
X139623841Y-81713941D01*
X139368557Y-82096000D01*
X139054469Y-82096000D01*
X139004839Y-82086128D01*
X138955209Y-82096000D01*
X138955205Y-82096000D01*
X138808189Y-82125243D01*
X138641477Y-82236637D01*
X138613360Y-82278717D01*
X136968615Y-83923462D01*
X136926538Y-83951577D01*
X136921194Y-83959575D01*
X136839900Y-83959575D01*
X136783080Y-83970877D01*
X136873800Y-83751861D01*
X136873800Y-83481739D01*
X136770428Y-83232178D01*
X136698800Y-83160550D01*
X136698800Y-82403163D01*
X138537963Y-80564000D01*
X139368557Y-80564000D01*
X139623841Y-80946059D01*
X140030368Y-81217692D01*
X140388857Y-81289000D01*
X140630943Y-81289000D01*
X140989432Y-81217692D01*
X141395959Y-80946059D01*
X141667592Y-80539532D01*
X141762977Y-80060000D01*
X141667592Y-79580468D01*
X141395959Y-79173941D01*
X140989432Y-78902308D01*
X140630943Y-78831000D01*
X140388857Y-78831000D01*
X140030368Y-78902308D01*
X139623841Y-79173941D01*
X139368557Y-79556000D01*
X138966844Y-79556000D01*
X139919339Y-78603505D01*
X140030368Y-78677692D01*
X140388857Y-78749000D01*
X140630943Y-78749000D01*
X140989432Y-78677692D01*
X141395959Y-78406059D01*
X141667592Y-77999532D01*
X141762977Y-77520000D01*
X141667592Y-77040468D01*
X141395959Y-76633941D01*
X140989432Y-76362308D01*
X140630943Y-76291000D01*
X140388857Y-76291000D01*
X140030368Y-76362308D01*
X139888899Y-76456835D01*
X139888899Y-76313764D01*
X140059230Y-76143433D01*
X140388857Y-76209000D01*
X140630943Y-76209000D01*
X140989432Y-76137692D01*
X141395959Y-75866059D01*
X141667592Y-75459532D01*
X141762977Y-74980000D01*
X141667592Y-74500468D01*
X141395959Y-74093941D01*
X140989432Y-73822308D01*
X140630943Y-73751000D01*
X140388857Y-73751000D01*
X140030368Y-73822308D01*
X139623841Y-74093941D01*
X139488888Y-74295912D01*
X139488888Y-74173775D01*
X140051380Y-73611284D01*
X140051382Y-73611281D01*
X140059230Y-73603433D01*
X140388857Y-73669000D01*
X140630943Y-73669000D01*
X140989432Y-73597692D01*
X141395959Y-73326059D01*
X141667592Y-72919532D01*
X141762977Y-72440000D01*
X141667592Y-71960468D01*
X141395959Y-71553941D01*
X140989432Y-71282308D01*
X140630943Y-71211000D01*
X140388857Y-71211000D01*
X140030368Y-71282308D01*
X139623841Y-71553941D01*
X139352208Y-71960468D01*
X139256823Y-72440000D01*
X139346467Y-72890670D01*
X139338619Y-72898518D01*
X139338616Y-72898520D01*
X139074931Y-73162205D01*
X139074931Y-72047732D01*
X140059230Y-71063433D01*
X140388857Y-71129000D01*
X140630943Y-71129000D01*
X140989432Y-71057692D01*
X141395959Y-70786059D01*
X141667592Y-70379532D01*
X141762977Y-69900000D01*
X141667592Y-69420468D01*
X141395959Y-69013941D01*
X140989432Y-68742308D01*
X140630943Y-68671000D01*
X140388857Y-68671000D01*
X140030368Y-68742308D01*
X139623841Y-69013941D01*
X139352208Y-69420468D01*
X139256823Y-69900000D01*
X139346467Y-70350670D01*
X138674920Y-71022217D01*
X138674920Y-69907743D01*
X140059230Y-68523433D01*
X140388857Y-68589000D01*
X140630943Y-68589000D01*
X140989432Y-68517692D01*
X141395959Y-68246059D01*
X141667592Y-67839532D01*
X141762977Y-67360000D01*
X141667592Y-66880468D01*
X141395959Y-66473941D01*
X140989432Y-66202308D01*
X140630943Y-66131000D01*
X140388857Y-66131000D01*
X140030368Y-66202308D01*
X139623841Y-66473941D01*
X139352208Y-66880468D01*
X139256823Y-67360000D01*
X139346467Y-67810670D01*
X137849635Y-69307502D01*
X137807558Y-69335617D01*
X137779443Y-69377694D01*
X137779441Y-69377696D01*
X137696163Y-69502330D01*
X137657048Y-69698980D01*
X137666921Y-69748616D01*
X137666920Y-74767000D01*
X137386650Y-74767000D01*
X137291900Y-74861750D01*
X137291900Y-75944000D01*
X137311900Y-75944000D01*
X137311900Y-75948000D01*
X137291900Y-75948000D01*
X137291900Y-77030250D01*
X137386650Y-77125000D01*
X137457716Y-77125000D01*
X136549917Y-78032800D01*
X135316444Y-78032800D01*
X134706591Y-77422948D01*
X134668900Y-77366540D01*
X134668900Y-77271439D01*
X134608243Y-77125000D01*
X134993150Y-77125000D01*
X135087900Y-77030250D01*
X135087900Y-75948000D01*
X135067900Y-75948000D01*
X135067900Y-75944000D01*
X135087900Y-75944000D01*
X135087900Y-74861750D01*
X134993150Y-74767000D01*
X134564512Y-74767000D01*
X134536195Y-74778729D01*
X134439900Y-74759575D01*
X133539900Y-74759575D01*
X133439900Y-74779466D01*
X133339900Y-74759575D01*
X133320107Y-74759575D01*
X133281379Y-74701615D01*
X133281378Y-74701614D01*
X133253263Y-74659537D01*
X133211186Y-74631422D01*
X133005500Y-74425737D01*
X133005500Y-73728802D01*
X133026542Y-73714742D01*
X133095725Y-73611202D01*
X133136448Y-73611202D01*
X133041700Y-73705950D01*
X133041700Y-73809588D01*
X133062250Y-73859200D01*
X133041700Y-73908812D01*
X133041700Y-74012450D01*
X133136450Y-74107200D01*
X133330827Y-74107200D01*
X133340484Y-74111200D01*
X133136450Y-74111200D01*
X133041700Y-74205950D01*
X133041700Y-74309588D01*
X133099399Y-74448886D01*
X133206014Y-74555501D01*
X133345312Y-74613200D01*
X133486450Y-74613200D01*
X133581200Y-74518450D01*
X133581200Y-74111200D01*
X133488450Y-74111200D01*
X133492450Y-74107200D01*
X133581200Y-74107200D01*
X133581200Y-73611200D01*
X133561200Y-73611200D01*
X133561200Y-73607200D01*
X133581200Y-73607200D01*
X133581200Y-73595363D01*
X133585200Y-73596159D01*
X133585200Y-73607200D01*
X133605200Y-73607200D01*
X133605200Y-73611200D01*
X133585200Y-73611200D01*
X133585200Y-74107200D01*
X133605200Y-74107200D01*
X133605200Y-74111200D01*
X133585200Y-74111200D01*
X133585200Y-74518450D01*
X133679950Y-74613200D01*
X133821088Y-74613200D01*
X133870700Y-74592650D01*
X133920312Y-74613200D01*
X134061450Y-74613200D01*
X134156200Y-74518450D01*
X134156200Y-74120625D01*
X134160200Y-74120625D01*
X134160200Y-74518450D01*
X134254950Y-74613200D01*
X134396088Y-74613200D01*
X134535386Y-74555501D01*
X134642001Y-74448886D01*
X134699700Y-74309588D01*
X134699700Y-74205950D01*
X134606950Y-74113200D01*
X134658694Y-74113200D01*
X134689458Y-74159242D01*
X134862676Y-74274982D01*
X135067000Y-74315625D01*
X135362000Y-74315625D01*
X135560901Y-74276061D01*
X135560901Y-74767000D01*
X135186650Y-74767000D01*
X135091900Y-74861750D01*
X135091900Y-75944000D01*
X135111900Y-75944000D01*
X135111900Y-75948000D01*
X135091900Y-75948000D01*
X135091900Y-77030250D01*
X135186650Y-77125000D01*
X135615288Y-77125000D01*
X135643605Y-77113271D01*
X135739900Y-77132425D01*
X136639900Y-77132425D01*
X136736195Y-77113271D01*
X136764512Y-77125000D01*
X137193150Y-77125000D01*
X137287900Y-77030250D01*
X137287900Y-75948000D01*
X137267900Y-75948000D01*
X137267900Y-75944000D01*
X137287900Y-75944000D01*
X137287900Y-74861750D01*
X137193150Y-74767000D01*
X136818900Y-74767000D01*
X136818900Y-73995575D01*
X136825282Y-73986024D01*
X136865925Y-73781700D01*
X136865925Y-73436700D01*
X136825282Y-73232376D01*
X136811100Y-73211151D01*
X136811100Y-72723072D01*
X136847882Y-72668024D01*
X136888525Y-72463700D01*
X136888525Y-72168700D01*
X136847882Y-71964376D01*
X136758897Y-71831200D01*
X136847882Y-71698024D01*
X136888525Y-71493700D01*
X136888525Y-71198700D01*
X136847882Y-70994376D01*
X136823800Y-70958335D01*
X136823800Y-67743354D01*
X136787304Y-67559877D01*
X136782607Y-67552847D01*
X136732294Y-67299906D01*
X136732294Y-67299905D01*
X136638374Y-67073163D01*
X136421602Y-66748740D01*
X136248060Y-66575198D01*
X135923636Y-66358425D01*
X135696894Y-66264506D01*
X135314211Y-66188386D01*
X135292696Y-66188386D01*
X135215346Y-66173000D01*
X134851472Y-66173000D01*
X134796424Y-66136218D01*
X134592100Y-66095575D01*
X134297100Y-66095575D01*
X134103600Y-66134065D01*
X134103600Y-65829942D01*
X134124878Y-65825710D01*
X134250244Y-65741944D01*
X134334010Y-65616578D01*
X134363425Y-65468700D01*
X134363425Y-65014233D01*
X139296346Y-65014233D01*
X139314392Y-65104960D01*
X139514444Y-65540770D01*
X139866045Y-65866849D01*
X140315667Y-66033555D01*
X140507900Y-65954249D01*
X140507900Y-64822000D01*
X140511900Y-64822000D01*
X140511900Y-65954249D01*
X140704133Y-66033555D01*
X141153755Y-65866849D01*
X141505356Y-65540770D01*
X141705408Y-65104960D01*
X141723454Y-65014233D01*
X141644148Y-64822000D01*
X140511900Y-64822000D01*
X140507900Y-64822000D01*
X139375652Y-64822000D01*
X139296346Y-65014233D01*
X134363425Y-65014233D01*
X134363425Y-64897700D01*
X134855250Y-64897700D01*
X134950000Y-64802950D01*
X134950000Y-63420700D01*
X134954000Y-63420700D01*
X134954000Y-64802950D01*
X135048750Y-64897700D01*
X135552388Y-64897700D01*
X135691686Y-64840001D01*
X135798301Y-64733386D01*
X135842878Y-64625767D01*
X139296346Y-64625767D01*
X139375652Y-64818000D01*
X140507900Y-64818000D01*
X140507900Y-63685751D01*
X140511900Y-63685751D01*
X140511900Y-64818000D01*
X141644148Y-64818000D01*
X141723454Y-64625767D01*
X141705408Y-64535040D01*
X141505356Y-64099230D01*
X141153755Y-63773151D01*
X140704133Y-63606445D01*
X140511900Y-63685751D01*
X140507900Y-63685751D01*
X140315667Y-63606445D01*
X139866045Y-63773151D01*
X139514444Y-64099230D01*
X139314392Y-64535040D01*
X139296346Y-64625767D01*
X135842878Y-64625767D01*
X135856000Y-64594088D01*
X135856000Y-63515450D01*
X135761250Y-63420700D01*
X134954000Y-63420700D01*
X134950000Y-63420700D01*
X134142750Y-63420700D01*
X134048000Y-63515450D01*
X134048000Y-64046398D01*
X133977000Y-64032275D01*
X132977000Y-64032275D01*
X132906000Y-64046398D01*
X132906000Y-63515450D01*
X132811250Y-63420700D01*
X132004000Y-63420700D01*
X132004000Y-64802950D01*
X132098750Y-64897700D01*
X132590575Y-64897700D01*
X132590575Y-65468700D01*
X132619990Y-65616578D01*
X132703756Y-65741944D01*
X132829122Y-65825710D01*
X132845601Y-65828988D01*
X132845600Y-66407543D01*
X132833818Y-66425176D01*
X132793175Y-66629500D01*
X132793175Y-66974500D01*
X132833818Y-67178824D01*
X132848001Y-67200050D01*
X132848000Y-67307127D01*
X132811218Y-67362176D01*
X132770575Y-67566500D01*
X132770575Y-67861500D01*
X132811218Y-68065824D01*
X132900203Y-68199000D01*
X132811218Y-68332176D01*
X132770575Y-68536500D01*
X132770575Y-68831500D01*
X132811218Y-69035824D01*
X132848000Y-69090873D01*
X132848001Y-69262927D01*
X132811218Y-69317976D01*
X132770575Y-69522300D01*
X132770575Y-69817300D01*
X132811218Y-70021624D01*
X132900203Y-70154800D01*
X132811218Y-70287976D01*
X132770575Y-70492300D01*
X132770575Y-70787300D01*
X132811218Y-70991624D01*
X132816948Y-71000200D01*
X130996129Y-71000200D01*
X130946494Y-70990327D01*
X130749843Y-71029443D01*
X130643085Y-71100777D01*
X130583131Y-71140837D01*
X130555015Y-71182915D01*
X130344430Y-71393500D01*
X130243133Y-71393500D01*
X129993572Y-71496872D01*
X129802566Y-71687878D01*
X129699194Y-71937439D01*
X129699194Y-72207561D01*
X129802566Y-72457122D01*
X129823487Y-72478043D01*
X129793688Y-72465700D01*
X129520050Y-72465700D01*
X129425300Y-72560450D01*
X129425300Y-73162700D01*
X129445300Y-73162700D01*
X129445300Y-73166700D01*
X129425300Y-73166700D01*
X129425300Y-73768950D01*
X129520050Y-73863700D01*
X129793688Y-73863700D01*
X129932986Y-73806001D01*
X129961766Y-73777221D01*
X130041476Y-73830482D01*
X130245800Y-73871125D01*
X130540800Y-73871125D01*
X130745124Y-73830482D01*
X130918342Y-73714742D01*
X130923234Y-73707421D01*
X131021814Y-73806001D01*
X131161112Y-73863700D01*
X131434750Y-73863700D01*
X131529500Y-73768950D01*
X131529500Y-73166700D01*
X131509500Y-73166700D01*
X131509500Y-73162700D01*
X131529500Y-73162700D01*
X131529500Y-72560450D01*
X131434750Y-72465700D01*
X131161112Y-72465700D01*
X131021814Y-72523399D01*
X130923234Y-72621979D01*
X130918342Y-72614658D01*
X130897300Y-72600598D01*
X130897300Y-72513644D01*
X130953822Y-72457122D01*
X131057194Y-72207561D01*
X131057194Y-72106264D01*
X131155258Y-72008200D01*
X132575500Y-72008200D01*
X132575500Y-72102088D01*
X132633199Y-72241386D01*
X132672625Y-72280812D01*
X132495162Y-72458275D01*
X132354000Y-72458275D01*
X132149676Y-72498918D01*
X132069966Y-72552179D01*
X132041186Y-72523399D01*
X131901888Y-72465700D01*
X131628250Y-72465700D01*
X131533500Y-72560450D01*
X131533500Y-73162700D01*
X131553500Y-73162700D01*
X131553500Y-73166700D01*
X131533500Y-73166700D01*
X131533500Y-73768950D01*
X131628250Y-73863700D01*
X131901888Y-73863700D01*
X131997500Y-73824096D01*
X131997501Y-74584864D01*
X131987628Y-74634500D01*
X132012506Y-74759575D01*
X131339900Y-74759575D01*
X131239900Y-74779466D01*
X131211412Y-74773800D01*
X131183157Y-74631750D01*
X131183157Y-74631749D01*
X131071763Y-74465037D01*
X131029683Y-74436920D01*
X130985579Y-74392816D01*
X130957463Y-74350737D01*
X130790751Y-74239343D01*
X130643735Y-74210100D01*
X130643731Y-74210100D01*
X130594100Y-74200228D01*
X130544469Y-74210100D01*
X127497610Y-74210100D01*
X127497610Y-74104565D01*
X127507483Y-74054930D01*
X127468367Y-73858279D01*
X127385089Y-73733645D01*
X127385088Y-73733644D01*
X127356973Y-73691567D01*
X127314896Y-73663452D01*
X126919800Y-73268357D01*
X126919800Y-73261450D01*
X128749300Y-73261450D01*
X128749300Y-73560088D01*
X128806999Y-73699386D01*
X128913614Y-73806001D01*
X129052912Y-73863700D01*
X129326550Y-73863700D01*
X129421300Y-73768950D01*
X129421300Y-73166700D01*
X128844050Y-73166700D01*
X128749300Y-73261450D01*
X126919800Y-73261450D01*
X126919800Y-72769312D01*
X128749300Y-72769312D01*
X128749300Y-73067950D01*
X128844050Y-73162700D01*
X129421300Y-73162700D01*
X129421300Y-72560450D01*
X129326550Y-72465700D01*
X129052912Y-72465700D01*
X128913614Y-72523399D01*
X128806999Y-72630014D01*
X128749300Y-72769312D01*
X126919800Y-72769312D01*
X126919800Y-71230591D01*
X126929672Y-71180959D01*
X126919800Y-71131326D01*
X126919800Y-71131325D01*
X126890557Y-70984309D01*
X126779163Y-70817597D01*
X126737083Y-70789480D01*
X126343414Y-70395811D01*
X126354292Y-70379532D01*
X126449677Y-69900000D01*
X126354292Y-69420468D01*
X126082659Y-69013941D01*
X125676132Y-68742308D01*
X125317643Y-68671000D01*
X125075557Y-68671000D01*
X124717068Y-68742308D01*
X124310541Y-69013941D01*
X124038908Y-69420468D01*
X123943523Y-69900000D01*
X123758700Y-69900000D01*
X123758700Y-67360000D01*
X123943523Y-67360000D01*
X124038908Y-67839532D01*
X124310541Y-68246059D01*
X124717068Y-68517692D01*
X125075557Y-68589000D01*
X125317643Y-68589000D01*
X125676132Y-68517692D01*
X126082659Y-68246059D01*
X126354292Y-67839532D01*
X126449677Y-67360000D01*
X126354292Y-66880468D01*
X126082659Y-66473941D01*
X125676132Y-66202308D01*
X125317643Y-66131000D01*
X125075557Y-66131000D01*
X124717068Y-66202308D01*
X124310541Y-66473941D01*
X124038908Y-66880468D01*
X123943523Y-67360000D01*
X123758700Y-67360000D01*
X123758700Y-64820000D01*
X123943523Y-64820000D01*
X124038908Y-65299532D01*
X124310541Y-65706059D01*
X124717068Y-65977692D01*
X125075557Y-66049000D01*
X125317643Y-66049000D01*
X125676132Y-65977692D01*
X126082659Y-65706059D01*
X126354292Y-65299532D01*
X126449677Y-64820000D01*
X126354292Y-64340468D01*
X126082659Y-63933941D01*
X125676132Y-63662308D01*
X125317643Y-63591000D01*
X125075557Y-63591000D01*
X124717068Y-63662308D01*
X124310541Y-63933941D01*
X124038908Y-64340468D01*
X123943523Y-64820000D01*
X123758700Y-64820000D01*
X123758700Y-63515450D01*
X131098000Y-63515450D01*
X131098000Y-64594088D01*
X131155699Y-64733386D01*
X131262314Y-64840001D01*
X131401612Y-64897700D01*
X131905250Y-64897700D01*
X132000000Y-64802950D01*
X132000000Y-63420700D01*
X131192750Y-63420700D01*
X131098000Y-63515450D01*
X123758700Y-63515450D01*
X123758700Y-62474233D01*
X123983046Y-62474233D01*
X124001092Y-62564960D01*
X124201144Y-63000770D01*
X124552745Y-63326849D01*
X125002367Y-63493555D01*
X125194600Y-63414249D01*
X125194600Y-62282000D01*
X125198600Y-62282000D01*
X125198600Y-63414249D01*
X125390833Y-63493555D01*
X125840455Y-63326849D01*
X126192056Y-63000770D01*
X126392108Y-62564960D01*
X126410154Y-62474233D01*
X126330848Y-62282000D01*
X125198600Y-62282000D01*
X125194600Y-62282000D01*
X124062352Y-62282000D01*
X123983046Y-62474233D01*
X123758700Y-62474233D01*
X123758700Y-62085767D01*
X123983046Y-62085767D01*
X124062352Y-62278000D01*
X125194600Y-62278000D01*
X125194600Y-61145751D01*
X125198600Y-61145751D01*
X125198600Y-62278000D01*
X126330848Y-62278000D01*
X126345158Y-62243312D01*
X131098000Y-62243312D01*
X131098000Y-63321950D01*
X131192750Y-63416700D01*
X132000000Y-63416700D01*
X132000000Y-62034450D01*
X132004000Y-62034450D01*
X132004000Y-63416700D01*
X132811250Y-63416700D01*
X132906000Y-63321950D01*
X132906000Y-62243312D01*
X134048000Y-62243312D01*
X134048000Y-63321950D01*
X134142750Y-63416700D01*
X134950000Y-63416700D01*
X134950000Y-62034450D01*
X134954000Y-62034450D01*
X134954000Y-63416700D01*
X135761250Y-63416700D01*
X135856000Y-63321950D01*
X135856000Y-62474233D01*
X139296346Y-62474233D01*
X139314392Y-62564960D01*
X139514444Y-63000770D01*
X139866045Y-63326849D01*
X140315667Y-63493555D01*
X140507900Y-63414249D01*
X140507900Y-62282000D01*
X140511900Y-62282000D01*
X140511900Y-63414249D01*
X140704133Y-63493555D01*
X141153755Y-63326849D01*
X141505356Y-63000770D01*
X141705408Y-62564960D01*
X141723454Y-62474233D01*
X141644148Y-62282000D01*
X140511900Y-62282000D01*
X140507900Y-62282000D01*
X139375652Y-62282000D01*
X139296346Y-62474233D01*
X135856000Y-62474233D01*
X135856000Y-62243312D01*
X135798301Y-62104014D01*
X135780054Y-62085767D01*
X139296346Y-62085767D01*
X139375652Y-62278000D01*
X140507900Y-62278000D01*
X140507900Y-61145751D01*
X140511900Y-61145751D01*
X140511900Y-62278000D01*
X141644148Y-62278000D01*
X141723454Y-62085767D01*
X141705408Y-61995040D01*
X141505356Y-61559230D01*
X141153755Y-61233151D01*
X140704133Y-61066445D01*
X140511900Y-61145751D01*
X140507900Y-61145751D01*
X140315667Y-61066445D01*
X139866045Y-61233151D01*
X139514444Y-61559230D01*
X139314392Y-61995040D01*
X139296346Y-62085767D01*
X135780054Y-62085767D01*
X135691686Y-61997399D01*
X135552388Y-61939700D01*
X135048750Y-61939700D01*
X134954000Y-62034450D01*
X134950000Y-62034450D01*
X134855250Y-61939700D01*
X134351612Y-61939700D01*
X134212314Y-61997399D01*
X134105699Y-62104014D01*
X134048000Y-62243312D01*
X132906000Y-62243312D01*
X132848301Y-62104014D01*
X132741686Y-61997399D01*
X132602388Y-61939700D01*
X132098750Y-61939700D01*
X132004000Y-62034450D01*
X132000000Y-62034450D01*
X131905250Y-61939700D01*
X131401612Y-61939700D01*
X131262314Y-61997399D01*
X131155699Y-62104014D01*
X131098000Y-62243312D01*
X126345158Y-62243312D01*
X126410154Y-62085767D01*
X126392108Y-61995040D01*
X126192056Y-61559230D01*
X125840455Y-61233151D01*
X125390833Y-61066445D01*
X125198600Y-61145751D01*
X125194600Y-61145751D01*
X125002367Y-61066445D01*
X124552745Y-61233151D01*
X124201144Y-61559230D01*
X124001092Y-61995040D01*
X123983046Y-62085767D01*
X123758700Y-62085767D01*
X123758700Y-61960657D01*
X123821950Y-61580650D01*
X123987814Y-61273251D01*
X124244306Y-61036153D01*
X124571661Y-60891430D01*
X124855289Y-60855600D01*
X140832943Y-60855600D01*
X141212950Y-60918850D01*
G36*
X127810022Y-77740486D02*
X127838137Y-77782563D01*
X127880214Y-77810678D01*
X127880215Y-77810679D01*
X127926020Y-77841285D01*
X128004849Y-77893957D01*
X128151865Y-77923200D01*
X128151868Y-77923200D01*
X128201500Y-77933072D01*
X128251131Y-77923200D01*
X129117069Y-77923200D01*
X129166700Y-77933072D01*
X129216331Y-77923200D01*
X129216335Y-77923200D01*
X129363351Y-77893957D01*
X129530063Y-77782563D01*
X129558180Y-77740483D01*
X129911183Y-77387480D01*
X129953263Y-77359363D01*
X130064657Y-77192651D01*
X130078150Y-77124817D01*
X130139900Y-77112534D01*
X130239900Y-77132425D01*
X131139900Y-77132425D01*
X131239900Y-77112534D01*
X131339900Y-77132425D01*
X132239900Y-77132425D01*
X132274209Y-77125601D01*
X132213800Y-77271439D01*
X132213800Y-77541561D01*
X132317172Y-77791122D01*
X132508178Y-77982128D01*
X132757739Y-78085500D01*
X132859037Y-78085500D01*
X134031633Y-79258097D01*
X134059748Y-79300174D01*
X134101825Y-79328289D01*
X134101826Y-79328290D01*
X134226460Y-79411568D01*
X134423111Y-79450684D01*
X134472746Y-79440811D01*
X136460885Y-79440811D01*
X132568615Y-83333082D01*
X132526538Y-83361197D01*
X132498423Y-83403274D01*
X132498421Y-83403276D01*
X132458899Y-83462424D01*
X132363528Y-83232178D01*
X132291900Y-83160550D01*
X132291900Y-83150811D01*
X132301772Y-83101179D01*
X132291900Y-83051546D01*
X132291900Y-83051545D01*
X132262657Y-82904529D01*
X132151263Y-82737817D01*
X132109183Y-82709700D01*
X126825601Y-77426118D01*
X126825601Y-76756064D01*
X127810022Y-77740486D01*
X127810022Y-77740486D01*
G37*
X127810022Y-77740486D02*
X127838137Y-77782563D01*
X127880214Y-77810678D01*
X127880215Y-77810679D01*
X127926020Y-77841285D01*
X128004849Y-77893957D01*
X128151865Y-77923200D01*
X128151868Y-77923200D01*
X128201500Y-77933072D01*
X128251131Y-77923200D01*
X129117069Y-77923200D01*
X129166700Y-77933072D01*
X129216331Y-77923200D01*
X129216335Y-77923200D01*
X129363351Y-77893957D01*
X129530063Y-77782563D01*
X129558180Y-77740483D01*
X129911183Y-77387480D01*
X129953263Y-77359363D01*
X130064657Y-77192651D01*
X130078150Y-77124817D01*
X130139900Y-77112534D01*
X130239900Y-77132425D01*
X131139900Y-77132425D01*
X131239900Y-77112534D01*
X131339900Y-77132425D01*
X132239900Y-77132425D01*
X132274209Y-77125601D01*
X132213800Y-77271439D01*
X132213800Y-77541561D01*
X132317172Y-77791122D01*
X132508178Y-77982128D01*
X132757739Y-78085500D01*
X132859037Y-78085500D01*
X134031633Y-79258097D01*
X134059748Y-79300174D01*
X134101825Y-79328289D01*
X134101826Y-79328290D01*
X134226460Y-79411568D01*
X134423111Y-79450684D01*
X134472746Y-79440811D01*
X136460885Y-79440811D01*
X132568615Y-83333082D01*
X132526538Y-83361197D01*
X132498423Y-83403274D01*
X132498421Y-83403276D01*
X132458899Y-83462424D01*
X132363528Y-83232178D01*
X132291900Y-83160550D01*
X132291900Y-83150811D01*
X132301772Y-83101179D01*
X132291900Y-83051546D01*
X132291900Y-83051545D01*
X132262657Y-82904529D01*
X132151263Y-82737817D01*
X132109183Y-82709700D01*
X126825601Y-77426118D01*
X126825601Y-76756064D01*
X127810022Y-77740486D01*
G36*
X127653475Y-76158412D02*
X127097600Y-75602537D01*
X127097600Y-75224220D01*
X127128371Y-75218100D01*
X127653475Y-75218100D01*
X127653475Y-76158412D01*
X127653475Y-76158412D01*
G37*
X127653475Y-76158412D02*
X127097600Y-75602537D01*
X127097600Y-75224220D01*
X127128371Y-75218100D01*
X127653475Y-75218100D01*
X127653475Y-76158412D01*
G36*
X133136448Y-73607198D02*
X133098400Y-73607198D01*
X133113640Y-73584390D01*
X133136448Y-73607198D01*
X133136448Y-73607198D01*
G37*
X133136448Y-73607198D02*
X133098400Y-73607198D01*
X133113640Y-73584390D01*
X133136448Y-73607198D01*
G36*
X135328759Y-67473925D02*
X135445123Y-67551676D01*
X135522875Y-67668041D01*
X135565800Y-67883841D01*
X135565801Y-70920319D01*
X135516318Y-70994376D01*
X135475675Y-71198700D01*
X135475675Y-71493700D01*
X135516318Y-71698024D01*
X135605303Y-71831200D01*
X135516318Y-71964376D01*
X135475675Y-72168700D01*
X135475675Y-72463700D01*
X135516318Y-72668024D01*
X135553100Y-72723073D01*
X135553100Y-72940788D01*
X135362000Y-72902775D01*
X135067000Y-72902775D01*
X134862676Y-72943418D01*
X134689458Y-73059158D01*
X134658694Y-73105200D01*
X134419625Y-73105200D01*
X134419625Y-72984200D01*
X134390210Y-72836322D01*
X134381000Y-72822538D01*
X134381000Y-72051459D01*
X134385925Y-72026700D01*
X134385925Y-71781700D01*
X134372818Y-71715806D01*
X134378500Y-71702088D01*
X134378500Y-71600950D01*
X134283750Y-71506200D01*
X134269368Y-71506200D01*
X134263381Y-71502200D01*
X134283750Y-71502200D01*
X134378500Y-71407450D01*
X134378500Y-71306312D01*
X134320801Y-71167014D01*
X134214186Y-71060399D01*
X134122268Y-71022325D01*
X134142782Y-70991624D01*
X134183425Y-70787300D01*
X134183425Y-70492300D01*
X134142782Y-70287976D01*
X134053797Y-70154800D01*
X134142782Y-70021624D01*
X134183425Y-69817300D01*
X134183425Y-69522300D01*
X134142782Y-69317976D01*
X134106000Y-69262928D01*
X134106000Y-69090872D01*
X134142782Y-69035824D01*
X134183425Y-68831500D01*
X134183425Y-68536500D01*
X134142782Y-68332176D01*
X134053797Y-68199000D01*
X134142782Y-68065824D01*
X134183425Y-67861500D01*
X134183425Y-67566500D01*
X134166714Y-67482489D01*
X134297100Y-67508425D01*
X134592100Y-67508425D01*
X134796424Y-67467782D01*
X134851472Y-67431000D01*
X135112959Y-67431000D01*
X135328759Y-67473925D01*
X135328759Y-67473925D01*
G37*
X135328759Y-67473925D02*
X135445123Y-67551676D01*
X135522875Y-67668041D01*
X135565800Y-67883841D01*
X135565801Y-70920319D01*
X135516318Y-70994376D01*
X135475675Y-71198700D01*
X135475675Y-71493700D01*
X135516318Y-71698024D01*
X135605303Y-71831200D01*
X135516318Y-71964376D01*
X135475675Y-72168700D01*
X135475675Y-72463700D01*
X135516318Y-72668024D01*
X135553100Y-72723073D01*
X135553100Y-72940788D01*
X135362000Y-72902775D01*
X135067000Y-72902775D01*
X134862676Y-72943418D01*
X134689458Y-73059158D01*
X134658694Y-73105200D01*
X134419625Y-73105200D01*
X134419625Y-72984200D01*
X134390210Y-72836322D01*
X134381000Y-72822538D01*
X134381000Y-72051459D01*
X134385925Y-72026700D01*
X134385925Y-71781700D01*
X134372818Y-71715806D01*
X134378500Y-71702088D01*
X134378500Y-71600950D01*
X134283750Y-71506200D01*
X134269368Y-71506200D01*
X134263381Y-71502200D01*
X134283750Y-71502200D01*
X134378500Y-71407450D01*
X134378500Y-71306312D01*
X134320801Y-71167014D01*
X134214186Y-71060399D01*
X134122268Y-71022325D01*
X134142782Y-70991624D01*
X134183425Y-70787300D01*
X134183425Y-70492300D01*
X134142782Y-70287976D01*
X134053797Y-70154800D01*
X134142782Y-70021624D01*
X134183425Y-69817300D01*
X134183425Y-69522300D01*
X134142782Y-69317976D01*
X134106000Y-69262928D01*
X134106000Y-69090872D01*
X134142782Y-69035824D01*
X134183425Y-68831500D01*
X134183425Y-68536500D01*
X134142782Y-68332176D01*
X134053797Y-68199000D01*
X134142782Y-68065824D01*
X134183425Y-67861500D01*
X134183425Y-67566500D01*
X134166714Y-67482489D01*
X134297100Y-67508425D01*
X134592100Y-67508425D01*
X134796424Y-67467782D01*
X134851472Y-67431000D01*
X135112959Y-67431000D01*
X135328759Y-67473925D01*
G04 #@! TD*
M02*
