G04 #@! TF.GenerationSoftware,KiCad,Pcbnew,(5.0.1)-3*
G04 #@! TF.CreationDate,2018-11-05T23:25:50+01:00*
G04 #@! TF.ProjectId,project,70726F6A6563742E6B696361645F7063,rev?*
G04 #@! TF.SameCoordinates,Original*
G04 #@! TF.FileFunction,Legend,Bot*
G04 #@! TF.FilePolarity,Positive*
%FSLAX46Y46*%
G04 Gerber Fmt 4.6, Leading zero omitted, Abs format (unit mm)*
G04 Created by KiCad (PCBNEW (5.0.1)-3) date 11/05/18 23:25:50*
%MOMM*%
%LPD*%
G01*
G04 APERTURE LIST*
%ADD10C,0.250000*%
%ADD11C,0.120000*%
%ADD12C,0.150000*%
G04 APERTURE END LIST*
D10*
X135686580Y-61370138D02*
X135686580Y-61941566D01*
X136686580Y-61655852D02*
X135686580Y-61655852D01*
X136162771Y-62274900D02*
X136162771Y-62608233D01*
X136686580Y-62751090D02*
X136686580Y-62274900D01*
X135686580Y-62274900D01*
X135686580Y-62751090D01*
X136638961Y-63132042D02*
X136686580Y-63274900D01*
X136686580Y-63512995D01*
X136638961Y-63608233D01*
X136591342Y-63655852D01*
X136496104Y-63703471D01*
X136400866Y-63703471D01*
X136305628Y-63655852D01*
X136258009Y-63608233D01*
X136210390Y-63512995D01*
X136162771Y-63322519D01*
X136115152Y-63227280D01*
X136067533Y-63179661D01*
X135972295Y-63132042D01*
X135877057Y-63132042D01*
X135781819Y-63179661D01*
X135734200Y-63227280D01*
X135686580Y-63322519D01*
X135686580Y-63560614D01*
X135734200Y-63703471D01*
X136162771Y-64132042D02*
X136162771Y-64465376D01*
X136686580Y-64608233D02*
X136686580Y-64132042D01*
X135686580Y-64132042D01*
X135686580Y-64608233D01*
X135686580Y-65227280D02*
X135686580Y-65417757D01*
X135734200Y-65512995D01*
X135829438Y-65608233D01*
X136019914Y-65655852D01*
X136353247Y-65655852D01*
X136543723Y-65608233D01*
X136638961Y-65512995D01*
X136686580Y-65417757D01*
X136686580Y-65227280D01*
X136638961Y-65132042D01*
X136543723Y-65036804D01*
X136353247Y-64989185D01*
X136019914Y-64989185D01*
X135829438Y-65036804D01*
X135734200Y-65132042D01*
X135686580Y-65227280D01*
X136305628Y-66084423D02*
X136305628Y-66846328D01*
X136686580Y-67798709D02*
X136686580Y-67322519D01*
X135686580Y-67322519D01*
X136686580Y-68132042D02*
X135686580Y-68132042D01*
X135686580Y-68465376D02*
X136686580Y-68798709D01*
X135686580Y-69132042D01*
X135686580Y-69370138D02*
X135686580Y-69989185D01*
X136067533Y-69655852D01*
X136067533Y-69798709D01*
X136115152Y-69893947D01*
X136162771Y-69941566D01*
X136258009Y-69989185D01*
X136496104Y-69989185D01*
X136591342Y-69941566D01*
X136638961Y-69893947D01*
X136686580Y-69798709D01*
X136686580Y-69512995D01*
X136638961Y-69417757D01*
X136591342Y-69370138D01*
X136162771Y-70751090D02*
X136162771Y-70417757D01*
X136686580Y-70417757D02*
X135686580Y-70417757D01*
X135686580Y-70893947D01*
X136686580Y-72036804D02*
X135686580Y-72036804D01*
X136067533Y-72036804D02*
X136019914Y-72132042D01*
X136019914Y-72322519D01*
X136067533Y-72417757D01*
X136115152Y-72465376D01*
X136210390Y-72512995D01*
X136496104Y-72512995D01*
X136591342Y-72465376D01*
X136638961Y-72417757D01*
X136686580Y-72322519D01*
X136686580Y-72132042D01*
X136638961Y-72036804D01*
X136686580Y-72941566D02*
X136019914Y-72941566D01*
X136210390Y-72941566D02*
X136115152Y-72989185D01*
X136067533Y-73036804D01*
X136019914Y-73132042D01*
X136019914Y-73227280D01*
X136638961Y-73941566D02*
X136686580Y-73846328D01*
X136686580Y-73655852D01*
X136638961Y-73560614D01*
X136543723Y-73512995D01*
X136162771Y-73512995D01*
X136067533Y-73560614D01*
X136019914Y-73655852D01*
X136019914Y-73846328D01*
X136067533Y-73941566D01*
X136162771Y-73989185D01*
X136258009Y-73989185D01*
X136353247Y-73512995D01*
X136686580Y-74846328D02*
X136162771Y-74846328D01*
X136067533Y-74798709D01*
X136019914Y-74703471D01*
X136019914Y-74512995D01*
X136067533Y-74417757D01*
X136638961Y-74846328D02*
X136686580Y-74751090D01*
X136686580Y-74512995D01*
X136638961Y-74417757D01*
X136543723Y-74370138D01*
X136448485Y-74370138D01*
X136353247Y-74417757D01*
X136305628Y-74512995D01*
X136305628Y-74751090D01*
X136258009Y-74846328D01*
X136686580Y-75322519D02*
X135686580Y-75322519D01*
X136305628Y-75417757D02*
X136686580Y-75703471D01*
X136019914Y-75703471D02*
X136400866Y-75322519D01*
X136686580Y-76274899D02*
X136638961Y-76179661D01*
X136591342Y-76132042D01*
X136496104Y-76084423D01*
X136210390Y-76084423D01*
X136115152Y-76132042D01*
X136067533Y-76179661D01*
X136019914Y-76274899D01*
X136019914Y-76417757D01*
X136067533Y-76512995D01*
X136115152Y-76560614D01*
X136210390Y-76608233D01*
X136496104Y-76608233D01*
X136591342Y-76560614D01*
X136638961Y-76512995D01*
X136686580Y-76417757D01*
X136686580Y-76274899D01*
X136019914Y-77465376D02*
X136686580Y-77465376D01*
X136019914Y-77036804D02*
X136543723Y-77036804D01*
X136638961Y-77084423D01*
X136686580Y-77179661D01*
X136686580Y-77322519D01*
X136638961Y-77417757D01*
X136591342Y-77465376D01*
X136019914Y-77798709D02*
X136019914Y-78179661D01*
X135686580Y-77941566D02*
X136543723Y-77941566D01*
X136638961Y-77989185D01*
X136686580Y-78084423D01*
X136686580Y-78179661D01*
X136686580Y-79274899D02*
X135686580Y-79274899D01*
X136067533Y-79274899D02*
X136019914Y-79370138D01*
X136019914Y-79560614D01*
X136067533Y-79655852D01*
X136115152Y-79703471D01*
X136210390Y-79751090D01*
X136496104Y-79751090D01*
X136591342Y-79703471D01*
X136638961Y-79655852D01*
X136686580Y-79560614D01*
X136686580Y-79370138D01*
X136638961Y-79274899D01*
X136686580Y-80322519D02*
X136638961Y-80227280D01*
X136591342Y-80179661D01*
X136496104Y-80132042D01*
X136210390Y-80132042D01*
X136115152Y-80179661D01*
X136067533Y-80227280D01*
X136019914Y-80322519D01*
X136019914Y-80465376D01*
X136067533Y-80560614D01*
X136115152Y-80608233D01*
X136210390Y-80655852D01*
X136496104Y-80655852D01*
X136591342Y-80608233D01*
X136638961Y-80560614D01*
X136686580Y-80465376D01*
X136686580Y-80322519D01*
X136686580Y-81512995D02*
X136162771Y-81512995D01*
X136067533Y-81465376D01*
X136019914Y-81370138D01*
X136019914Y-81179661D01*
X136067533Y-81084423D01*
X136638961Y-81512995D02*
X136686580Y-81417757D01*
X136686580Y-81179661D01*
X136638961Y-81084423D01*
X136543723Y-81036804D01*
X136448485Y-81036804D01*
X136353247Y-81084423D01*
X136305628Y-81179661D01*
X136305628Y-81417757D01*
X136258009Y-81512995D01*
X136686580Y-81989185D02*
X136019914Y-81989185D01*
X136210390Y-81989185D02*
X136115152Y-82036804D01*
X136067533Y-82084423D01*
X136019914Y-82179661D01*
X136019914Y-82274899D01*
X136686580Y-83036804D02*
X135686580Y-83036804D01*
X136638961Y-83036804D02*
X136686580Y-82941566D01*
X136686580Y-82751090D01*
X136638961Y-82655852D01*
X136591342Y-82608233D01*
X136496104Y-82560614D01*
X136210390Y-82560614D01*
X136115152Y-82608233D01*
X136067533Y-82655852D01*
X136019914Y-82751090D01*
X136019914Y-82941566D01*
X136067533Y-83036804D01*
X137436580Y-61417757D02*
X138436580Y-61655852D01*
X137722295Y-61846328D01*
X138436580Y-62036804D01*
X137436580Y-62274900D01*
X138150866Y-62608233D02*
X138150866Y-63084423D01*
X138436580Y-62512995D02*
X137436580Y-62846328D01*
X138436580Y-63179661D01*
X138341342Y-63512995D02*
X138388961Y-63560614D01*
X138436580Y-63512995D01*
X138388961Y-63465376D01*
X138341342Y-63512995D01*
X138436580Y-63512995D01*
X138436580Y-64512995D02*
X138436580Y-63941566D01*
X138436580Y-64227280D02*
X137436580Y-64227280D01*
X137579438Y-64132042D01*
X137674676Y-64036804D01*
X137722295Y-63941566D01*
X138436580Y-65465376D02*
X138436580Y-64893947D01*
X138436580Y-65179661D02*
X137436580Y-65179661D01*
X137579438Y-65084423D01*
X137674676Y-64989185D01*
X137722295Y-64893947D01*
X138341342Y-65893947D02*
X138388961Y-65941566D01*
X138436580Y-65893947D01*
X138388961Y-65846328D01*
X138341342Y-65893947D01*
X138436580Y-65893947D01*
X137436580Y-66560614D02*
X137436580Y-66655852D01*
X137484200Y-66751090D01*
X137531819Y-66798709D01*
X137627057Y-66846328D01*
X137817533Y-66893947D01*
X138055628Y-66893947D01*
X138246104Y-66846328D01*
X138341342Y-66798709D01*
X138388961Y-66751090D01*
X138436580Y-66655852D01*
X138436580Y-66560614D01*
X138388961Y-66465376D01*
X138341342Y-66417757D01*
X138246104Y-66370138D01*
X138055628Y-66322519D01*
X137817533Y-66322519D01*
X137627057Y-66370138D01*
X137531819Y-66417757D01*
X137484200Y-66465376D01*
X137436580Y-66560614D01*
X138436580Y-67846328D02*
X138436580Y-67274900D01*
X138436580Y-67560614D02*
X137436580Y-67560614D01*
X137579438Y-67465376D01*
X137674676Y-67370138D01*
X137722295Y-67274900D01*
X138436580Y-69798709D02*
X137769914Y-69798709D01*
X137960390Y-69798709D02*
X137865152Y-69846328D01*
X137817533Y-69893947D01*
X137769914Y-69989185D01*
X137769914Y-70084423D01*
X138388961Y-70798709D02*
X138436580Y-70703471D01*
X138436580Y-70512995D01*
X138388961Y-70417757D01*
X138293723Y-70370138D01*
X137912771Y-70370138D01*
X137817533Y-70417757D01*
X137769914Y-70512995D01*
X137769914Y-70703471D01*
X137817533Y-70798709D01*
X137912771Y-70846328D01*
X138008009Y-70846328D01*
X138103247Y-70370138D01*
X137769914Y-71179661D02*
X138436580Y-71417757D01*
X137769914Y-71655852D01*
X138341342Y-72036804D02*
X138388961Y-72084423D01*
X138436580Y-72036804D01*
X138388961Y-71989185D01*
X138341342Y-72036804D01*
X138436580Y-72036804D01*
X138436580Y-73036804D02*
X138436580Y-72465376D01*
X138436580Y-72751090D02*
X137436580Y-72751090D01*
X137579438Y-72655852D01*
X137674676Y-72560614D01*
X137722295Y-72465376D01*
X138436580Y-77036804D02*
X138436580Y-76465376D01*
X138436580Y-76751090D02*
X137436580Y-76751090D01*
X137579438Y-76655852D01*
X137674676Y-76560614D01*
X137722295Y-76465376D01*
X138436580Y-77989185D02*
X138436580Y-77417757D01*
X138436580Y-77703471D02*
X137436580Y-77703471D01*
X137579438Y-77608233D01*
X137674676Y-77512995D01*
X137722295Y-77417757D01*
X137388961Y-79132042D02*
X138674676Y-78274899D01*
X137531819Y-79417757D02*
X137484200Y-79465376D01*
X137436580Y-79560614D01*
X137436580Y-79798709D01*
X137484200Y-79893947D01*
X137531819Y-79941566D01*
X137627057Y-79989185D01*
X137722295Y-79989185D01*
X137865152Y-79941566D01*
X138436580Y-79370138D01*
X138436580Y-79989185D01*
X137436580Y-80608233D02*
X137436580Y-80703471D01*
X137484200Y-80798709D01*
X137531819Y-80846328D01*
X137627057Y-80893947D01*
X137817533Y-80941566D01*
X138055628Y-80941566D01*
X138246104Y-80893947D01*
X138341342Y-80846328D01*
X138388961Y-80798709D01*
X138436580Y-80703471D01*
X138436580Y-80608233D01*
X138388961Y-80512995D01*
X138341342Y-80465376D01*
X138246104Y-80417757D01*
X138055628Y-80370138D01*
X137817533Y-80370138D01*
X137627057Y-80417757D01*
X137531819Y-80465376D01*
X137484200Y-80512995D01*
X137436580Y-80608233D01*
X138436580Y-81893947D02*
X138436580Y-81322519D01*
X138436580Y-81608233D02*
X137436580Y-81608233D01*
X137579438Y-81512995D01*
X137674676Y-81417757D01*
X137722295Y-81322519D01*
X137865152Y-82465376D02*
X137817533Y-82370138D01*
X137769914Y-82322519D01*
X137674676Y-82274899D01*
X137627057Y-82274899D01*
X137531819Y-82322519D01*
X137484200Y-82370138D01*
X137436580Y-82465376D01*
X137436580Y-82655852D01*
X137484200Y-82751090D01*
X137531819Y-82798709D01*
X137627057Y-82846328D01*
X137674676Y-82846328D01*
X137769914Y-82798709D01*
X137817533Y-82751090D01*
X137865152Y-82655852D01*
X137865152Y-82465376D01*
X137912771Y-82370138D01*
X137960390Y-82322519D01*
X138055628Y-82274899D01*
X138246104Y-82274899D01*
X138341342Y-82322519D01*
X138388961Y-82370138D01*
X138436580Y-82465376D01*
X138436580Y-82655852D01*
X138388961Y-82751090D01*
X138341342Y-82798709D01*
X138246104Y-82846328D01*
X138055628Y-82846328D01*
X137960390Y-82798709D01*
X137912771Y-82751090D01*
X137865152Y-82655852D01*
D11*
G04 #@! TO.C,U4*
X127131640Y-65385840D02*
X127131640Y-63625840D01*
X130201640Y-63625840D02*
X130201640Y-66055840D01*
G04 #@! TO.C,J2*
X139179900Y-86470000D02*
X140509900Y-86470000D01*
X139179900Y-85140000D02*
X139179900Y-86470000D01*
X139179900Y-83870000D02*
X141839900Y-83870000D01*
X141839900Y-83870000D02*
X141839900Y-60950000D01*
X139179900Y-83870000D02*
X139179900Y-60950000D01*
X139179900Y-60950000D02*
X141839900Y-60950000D01*
G04 #@! TO.C,J3*
X123866600Y-86470000D02*
X126526600Y-86470000D01*
X126526600Y-86470000D02*
X126526600Y-60950000D01*
X123866600Y-86470000D02*
X123866600Y-60950000D01*
X123866600Y-60950000D02*
X126526600Y-60950000D01*
G04 #@! TO.C,L3*
X126951740Y-66919840D02*
X126951740Y-70219840D01*
X130370580Y-66919840D02*
X130370580Y-70219840D01*
G04 #@! TO.C,C11*
X127265360Y-71882502D02*
X127265360Y-72399658D01*
X128685360Y-71882502D02*
X128685360Y-72399658D01*
G04 #@! TO.C,R4*
D12*
X130105586Y-61417373D02*
X129772253Y-61184040D01*
X130105586Y-61017373D02*
X129405586Y-61017373D01*
X129405586Y-61284040D01*
X129438920Y-61350706D01*
X129472253Y-61384040D01*
X129538920Y-61417373D01*
X129638920Y-61417373D01*
X129705586Y-61384040D01*
X129738920Y-61350706D01*
X129772253Y-61284040D01*
X129772253Y-61017373D01*
X129638920Y-62017373D02*
X130105586Y-62017373D01*
X129372253Y-61850706D02*
X129872253Y-61684040D01*
X129872253Y-62117373D01*
G04 #@! TO.C,C4*
X134273100Y-80121933D02*
X134306433Y-80088600D01*
X134339766Y-79988600D01*
X134339766Y-79921933D01*
X134306433Y-79821933D01*
X134239766Y-79755266D01*
X134173100Y-79721933D01*
X134039766Y-79688600D01*
X133939766Y-79688600D01*
X133806433Y-79721933D01*
X133739766Y-79755266D01*
X133673100Y-79821933D01*
X133639766Y-79921933D01*
X133639766Y-79988600D01*
X133673100Y-80088600D01*
X133706433Y-80121933D01*
X133873100Y-80721933D02*
X134339766Y-80721933D01*
X133606433Y-80555266D02*
X134106433Y-80388600D01*
X134106433Y-80821933D01*
G04 #@! TO.C,C5*
X127681800Y-80007633D02*
X127715133Y-79974300D01*
X127748466Y-79874300D01*
X127748466Y-79807633D01*
X127715133Y-79707633D01*
X127648466Y-79640966D01*
X127581800Y-79607633D01*
X127448466Y-79574300D01*
X127348466Y-79574300D01*
X127215133Y-79607633D01*
X127148466Y-79640966D01*
X127081800Y-79707633D01*
X127048466Y-79807633D01*
X127048466Y-79874300D01*
X127081800Y-79974300D01*
X127115133Y-80007633D01*
X127048466Y-80640966D02*
X127048466Y-80307633D01*
X127381800Y-80274300D01*
X127348466Y-80307633D01*
X127315133Y-80374300D01*
X127315133Y-80540966D01*
X127348466Y-80607633D01*
X127381800Y-80640966D01*
X127448466Y-80674300D01*
X127615133Y-80674300D01*
X127681800Y-80640966D01*
X127715133Y-80607633D01*
X127748466Y-80540966D01*
X127748466Y-80374300D01*
X127715133Y-80307633D01*
X127681800Y-80274300D01*
G04 #@! TO.C,L2*
X127748466Y-83577933D02*
X127748466Y-83244600D01*
X127048466Y-83244600D01*
X127115133Y-83777933D02*
X127081800Y-83811266D01*
X127048466Y-83877933D01*
X127048466Y-84044600D01*
X127081800Y-84111266D01*
X127115133Y-84144600D01*
X127181800Y-84177933D01*
X127248466Y-84177933D01*
X127348466Y-84144600D01*
X127748466Y-83744600D01*
X127748466Y-84177933D01*
G04 #@! TO.C,U4*
X130695906Y-61462986D02*
X131262573Y-61462986D01*
X131329240Y-61496320D01*
X131362573Y-61529653D01*
X131395906Y-61596320D01*
X131395906Y-61729653D01*
X131362573Y-61796320D01*
X131329240Y-61829653D01*
X131262573Y-61862986D01*
X130695906Y-61862986D01*
X130929240Y-62496320D02*
X131395906Y-62496320D01*
X130662573Y-62329653D02*
X131162573Y-62162986D01*
X131162573Y-62596320D01*
G04 #@! TO.C,R5*
X131400986Y-69159293D02*
X131067653Y-68925960D01*
X131400986Y-68759293D02*
X130700986Y-68759293D01*
X130700986Y-69025960D01*
X130734320Y-69092626D01*
X130767653Y-69125960D01*
X130834320Y-69159293D01*
X130934320Y-69159293D01*
X131000986Y-69125960D01*
X131034320Y-69092626D01*
X131067653Y-69025960D01*
X131067653Y-68759293D01*
X130700986Y-69792626D02*
X130700986Y-69459293D01*
X131034320Y-69425960D01*
X131000986Y-69459293D01*
X130967653Y-69525960D01*
X130967653Y-69692626D01*
X131000986Y-69759293D01*
X131034320Y-69792626D01*
X131100986Y-69825960D01*
X131267653Y-69825960D01*
X131334320Y-69792626D01*
X131367653Y-69759293D01*
X131400986Y-69692626D01*
X131400986Y-69525960D01*
X131367653Y-69459293D01*
X131334320Y-69425960D01*
G04 #@! TO.C,R6*
X131395906Y-63490013D02*
X131062573Y-63256680D01*
X131395906Y-63090013D02*
X130695906Y-63090013D01*
X130695906Y-63356680D01*
X130729240Y-63423346D01*
X130762573Y-63456680D01*
X130829240Y-63490013D01*
X130929240Y-63490013D01*
X130995906Y-63456680D01*
X131029240Y-63423346D01*
X131062573Y-63356680D01*
X131062573Y-63090013D01*
X130695906Y-64090013D02*
X130695906Y-63956680D01*
X130729240Y-63890013D01*
X130762573Y-63856680D01*
X130862573Y-63790013D01*
X130995906Y-63756680D01*
X131262573Y-63756680D01*
X131329240Y-63790013D01*
X131362573Y-63823346D01*
X131395906Y-63890013D01*
X131395906Y-64023346D01*
X131362573Y-64090013D01*
X131329240Y-64123346D01*
X131262573Y-64156680D01*
X131095906Y-64156680D01*
X131029240Y-64123346D01*
X130995906Y-64090013D01*
X130962573Y-64023346D01*
X130962573Y-63890013D01*
X130995906Y-63823346D01*
X131029240Y-63790013D01*
X131095906Y-63756680D01*
G04 #@! TO.C,L3*
X130105586Y-70916973D02*
X130105586Y-70583640D01*
X129405586Y-70583640D01*
X129405586Y-71083640D02*
X129405586Y-71516973D01*
X129672253Y-71283640D01*
X129672253Y-71383640D01*
X129705586Y-71450306D01*
X129738920Y-71483640D01*
X129805586Y-71516973D01*
X129972253Y-71516973D01*
X130038920Y-71483640D01*
X130072253Y-71450306D01*
X130105586Y-71383640D01*
X130105586Y-71183640D01*
X130072253Y-71116973D01*
X130038920Y-71083640D01*
G04 #@! TO.C,C11*
X128240600Y-74535880D02*
X128273933Y-74502546D01*
X128307266Y-74402546D01*
X128307266Y-74335880D01*
X128273933Y-74235880D01*
X128207266Y-74169213D01*
X128140600Y-74135880D01*
X128007266Y-74102546D01*
X127907266Y-74102546D01*
X127773933Y-74135880D01*
X127707266Y-74169213D01*
X127640600Y-74235880D01*
X127607266Y-74335880D01*
X127607266Y-74402546D01*
X127640600Y-74502546D01*
X127673933Y-74535880D01*
X128307266Y-75202546D02*
X128307266Y-74802546D01*
X128307266Y-75002546D02*
X127607266Y-75002546D01*
X127707266Y-74935880D01*
X127773933Y-74869213D01*
X127807266Y-74802546D01*
X128307266Y-75869213D02*
X128307266Y-75469213D01*
X128307266Y-75669213D02*
X127607266Y-75669213D01*
X127707266Y-75602546D01*
X127773933Y-75535880D01*
X127807266Y-75469213D01*
G04 #@! TD*
M02*
