G04 #@! TF.GenerationSoftware,KiCad,Pcbnew,(5.0.1)-3*
G04 #@! TF.CreationDate,2018-11-05T23:25:50+01:00*
G04 #@! TF.ProjectId,project,70726F6A6563742E6B696361645F7063,rev?*
G04 #@! TF.SameCoordinates,Original*
G04 #@! TF.FileFunction,Soldermask,Top*
G04 #@! TF.FilePolarity,Negative*
%FSLAX46Y46*%
G04 Gerber Fmt 4.6, Leading zero omitted, Abs format (unit mm)*
G04 Created by KiCad (PCBNEW (5.0.1)-3) date 11/05/18 23:25:50*
%MOMM*%
%LPD*%
G01*
G04 APERTURE LIST*
%ADD10C,0.100000*%
G04 APERTURE END LIST*
D10*
G36*
X141410900Y-86041000D02*
X139608900Y-86041000D01*
X139608900Y-84239000D01*
X141410900Y-84239000D01*
X141410900Y-86041000D01*
X141410900Y-86041000D01*
G37*
G36*
X125459412Y-84273624D02*
X125623384Y-84341544D01*
X125770954Y-84440147D01*
X125896453Y-84565646D01*
X125995056Y-84713216D01*
X126062976Y-84877188D01*
X126097600Y-85051259D01*
X126097600Y-85228741D01*
X126062976Y-85402812D01*
X125995056Y-85566784D01*
X125896453Y-85714354D01*
X125770954Y-85839853D01*
X125623384Y-85938456D01*
X125459412Y-86006376D01*
X125285341Y-86041000D01*
X125107859Y-86041000D01*
X124933788Y-86006376D01*
X124769816Y-85938456D01*
X124622246Y-85839853D01*
X124496747Y-85714354D01*
X124398144Y-85566784D01*
X124330224Y-85402812D01*
X124295600Y-85228741D01*
X124295600Y-85051259D01*
X124330224Y-84877188D01*
X124398144Y-84713216D01*
X124496747Y-84565646D01*
X124622246Y-84440147D01*
X124769816Y-84341544D01*
X124933788Y-84273624D01*
X125107859Y-84239000D01*
X125285341Y-84239000D01*
X125459412Y-84273624D01*
X125459412Y-84273624D01*
G37*
G36*
X137790900Y-85997000D02*
X127988900Y-85997000D01*
X127988900Y-84295000D01*
X137790900Y-84295000D01*
X137790900Y-85997000D01*
X137790900Y-85997000D01*
G37*
G36*
X125307043Y-81705519D02*
X125373227Y-81712037D01*
X125486453Y-81746384D01*
X125543067Y-81763557D01*
X125681687Y-81837652D01*
X125699591Y-81847222D01*
X125735329Y-81876552D01*
X125836786Y-81959814D01*
X125920048Y-82061271D01*
X125949378Y-82097009D01*
X125949379Y-82097011D01*
X126033043Y-82253533D01*
X126033043Y-82253534D01*
X126084563Y-82423373D01*
X126101959Y-82600000D01*
X126084563Y-82776627D01*
X126050216Y-82889853D01*
X126033043Y-82946467D01*
X125958948Y-83085087D01*
X125949378Y-83102991D01*
X125920048Y-83138729D01*
X125836786Y-83240186D01*
X125735329Y-83323448D01*
X125699591Y-83352778D01*
X125699589Y-83352779D01*
X125543067Y-83436443D01*
X125486453Y-83453616D01*
X125373227Y-83487963D01*
X125307042Y-83494482D01*
X125240860Y-83501000D01*
X125152340Y-83501000D01*
X125086158Y-83494482D01*
X125019973Y-83487963D01*
X124906747Y-83453616D01*
X124850133Y-83436443D01*
X124693611Y-83352779D01*
X124693609Y-83352778D01*
X124657871Y-83323448D01*
X124556414Y-83240186D01*
X124473152Y-83138729D01*
X124443822Y-83102991D01*
X124434252Y-83085087D01*
X124360157Y-82946467D01*
X124342984Y-82889853D01*
X124308637Y-82776627D01*
X124291241Y-82600000D01*
X124308637Y-82423373D01*
X124360157Y-82253534D01*
X124360157Y-82253533D01*
X124443821Y-82097011D01*
X124443822Y-82097009D01*
X124473152Y-82061271D01*
X124556414Y-81959814D01*
X124657871Y-81876552D01*
X124693609Y-81847222D01*
X124711513Y-81837652D01*
X124850133Y-81763557D01*
X124906747Y-81746384D01*
X125019973Y-81712037D01*
X125086157Y-81705519D01*
X125152340Y-81699000D01*
X125240860Y-81699000D01*
X125307043Y-81705519D01*
X125307043Y-81705519D01*
G37*
G36*
X140620343Y-81705519D02*
X140686527Y-81712037D01*
X140799753Y-81746384D01*
X140856367Y-81763557D01*
X140994987Y-81837652D01*
X141012891Y-81847222D01*
X141048629Y-81876552D01*
X141150086Y-81959814D01*
X141233348Y-82061271D01*
X141262678Y-82097009D01*
X141262679Y-82097011D01*
X141346343Y-82253533D01*
X141346343Y-82253534D01*
X141397863Y-82423373D01*
X141415259Y-82600000D01*
X141397863Y-82776627D01*
X141363516Y-82889853D01*
X141346343Y-82946467D01*
X141272248Y-83085087D01*
X141262678Y-83102991D01*
X141233348Y-83138729D01*
X141150086Y-83240186D01*
X141048629Y-83323448D01*
X141012891Y-83352778D01*
X141012889Y-83352779D01*
X140856367Y-83436443D01*
X140799753Y-83453616D01*
X140686527Y-83487963D01*
X140620342Y-83494482D01*
X140554160Y-83501000D01*
X140465640Y-83501000D01*
X140399458Y-83494482D01*
X140333273Y-83487963D01*
X140220047Y-83453616D01*
X140163433Y-83436443D01*
X140006911Y-83352779D01*
X140006909Y-83352778D01*
X139971171Y-83323448D01*
X139869714Y-83240186D01*
X139786452Y-83138729D01*
X139757122Y-83102991D01*
X139747552Y-83085087D01*
X139673457Y-82946467D01*
X139656284Y-82889853D01*
X139621937Y-82776627D01*
X139604541Y-82600000D01*
X139621937Y-82423373D01*
X139673457Y-82253534D01*
X139673457Y-82253533D01*
X139757121Y-82097011D01*
X139757122Y-82097009D01*
X139786452Y-82061271D01*
X139869714Y-81959814D01*
X139971171Y-81876552D01*
X140006909Y-81847222D01*
X140024813Y-81837652D01*
X140163433Y-81763557D01*
X140220047Y-81746384D01*
X140333273Y-81712037D01*
X140399457Y-81705519D01*
X140465640Y-81699000D01*
X140554160Y-81699000D01*
X140620343Y-81705519D01*
X140620343Y-81705519D01*
G37*
G36*
X140620342Y-79165518D02*
X140686527Y-79172037D01*
X140799753Y-79206384D01*
X140856367Y-79223557D01*
X140994987Y-79297652D01*
X141012891Y-79307222D01*
X141048629Y-79336552D01*
X141150086Y-79419814D01*
X141233348Y-79521271D01*
X141262678Y-79557009D01*
X141262679Y-79557011D01*
X141346343Y-79713533D01*
X141346343Y-79713534D01*
X141397863Y-79883373D01*
X141415259Y-80060000D01*
X141397863Y-80236627D01*
X141363516Y-80349853D01*
X141346343Y-80406467D01*
X141272248Y-80545087D01*
X141262678Y-80562991D01*
X141233348Y-80598729D01*
X141150086Y-80700186D01*
X141048629Y-80783448D01*
X141012891Y-80812778D01*
X141012889Y-80812779D01*
X140856367Y-80896443D01*
X140799753Y-80913616D01*
X140686527Y-80947963D01*
X140620343Y-80954481D01*
X140554160Y-80961000D01*
X140465640Y-80961000D01*
X140399457Y-80954481D01*
X140333273Y-80947963D01*
X140220047Y-80913616D01*
X140163433Y-80896443D01*
X140006911Y-80812779D01*
X140006909Y-80812778D01*
X139971171Y-80783448D01*
X139869714Y-80700186D01*
X139786452Y-80598729D01*
X139757122Y-80562991D01*
X139747552Y-80545087D01*
X139673457Y-80406467D01*
X139656284Y-80349853D01*
X139621937Y-80236627D01*
X139604541Y-80060000D01*
X139621937Y-79883373D01*
X139673457Y-79713534D01*
X139673457Y-79713533D01*
X139757121Y-79557011D01*
X139757122Y-79557009D01*
X139786452Y-79521271D01*
X139869714Y-79419814D01*
X139971171Y-79336552D01*
X140006909Y-79307222D01*
X140024813Y-79297652D01*
X140163433Y-79223557D01*
X140220047Y-79206384D01*
X140333273Y-79172037D01*
X140399458Y-79165518D01*
X140465640Y-79159000D01*
X140554160Y-79159000D01*
X140620342Y-79165518D01*
X140620342Y-79165518D01*
G37*
G36*
X125307042Y-79165518D02*
X125373227Y-79172037D01*
X125486453Y-79206384D01*
X125543067Y-79223557D01*
X125681687Y-79297652D01*
X125699591Y-79307222D01*
X125735329Y-79336552D01*
X125836786Y-79419814D01*
X125920048Y-79521271D01*
X125949378Y-79557009D01*
X125949379Y-79557011D01*
X126033043Y-79713533D01*
X126033043Y-79713534D01*
X126084563Y-79883373D01*
X126101959Y-80060000D01*
X126084563Y-80236627D01*
X126050216Y-80349853D01*
X126033043Y-80406467D01*
X125958948Y-80545087D01*
X125949378Y-80562991D01*
X125920048Y-80598729D01*
X125836786Y-80700186D01*
X125735329Y-80783448D01*
X125699591Y-80812778D01*
X125699589Y-80812779D01*
X125543067Y-80896443D01*
X125486453Y-80913616D01*
X125373227Y-80947963D01*
X125307043Y-80954481D01*
X125240860Y-80961000D01*
X125152340Y-80961000D01*
X125086157Y-80954481D01*
X125019973Y-80947963D01*
X124906747Y-80913616D01*
X124850133Y-80896443D01*
X124693611Y-80812779D01*
X124693609Y-80812778D01*
X124657871Y-80783448D01*
X124556414Y-80700186D01*
X124473152Y-80598729D01*
X124443822Y-80562991D01*
X124434252Y-80545087D01*
X124360157Y-80406467D01*
X124342984Y-80349853D01*
X124308637Y-80236627D01*
X124291241Y-80060000D01*
X124308637Y-79883373D01*
X124360157Y-79713534D01*
X124360157Y-79713533D01*
X124443821Y-79557011D01*
X124443822Y-79557009D01*
X124473152Y-79521271D01*
X124556414Y-79419814D01*
X124657871Y-79336552D01*
X124693609Y-79307222D01*
X124711513Y-79297652D01*
X124850133Y-79223557D01*
X124906747Y-79206384D01*
X125019973Y-79172037D01*
X125086158Y-79165518D01*
X125152340Y-79159000D01*
X125240860Y-79159000D01*
X125307042Y-79165518D01*
X125307042Y-79165518D01*
G37*
G36*
X125307043Y-76625519D02*
X125373227Y-76632037D01*
X125486453Y-76666384D01*
X125543067Y-76683557D01*
X125681687Y-76757652D01*
X125699591Y-76767222D01*
X125735329Y-76796552D01*
X125836786Y-76879814D01*
X125920048Y-76981271D01*
X125949378Y-77017009D01*
X125949379Y-77017011D01*
X126033043Y-77173533D01*
X126033043Y-77173534D01*
X126084563Y-77343373D01*
X126101959Y-77520000D01*
X126084563Y-77696627D01*
X126050216Y-77809853D01*
X126033043Y-77866467D01*
X125958948Y-78005087D01*
X125949378Y-78022991D01*
X125920048Y-78058729D01*
X125836786Y-78160186D01*
X125735329Y-78243448D01*
X125699591Y-78272778D01*
X125699589Y-78272779D01*
X125543067Y-78356443D01*
X125486453Y-78373616D01*
X125373227Y-78407963D01*
X125307042Y-78414482D01*
X125240860Y-78421000D01*
X125152340Y-78421000D01*
X125086158Y-78414482D01*
X125019973Y-78407963D01*
X124906747Y-78373616D01*
X124850133Y-78356443D01*
X124693611Y-78272779D01*
X124693609Y-78272778D01*
X124657871Y-78243448D01*
X124556414Y-78160186D01*
X124473152Y-78058729D01*
X124443822Y-78022991D01*
X124434252Y-78005087D01*
X124360157Y-77866467D01*
X124342984Y-77809853D01*
X124308637Y-77696627D01*
X124291241Y-77520000D01*
X124308637Y-77343373D01*
X124360157Y-77173534D01*
X124360157Y-77173533D01*
X124443821Y-77017011D01*
X124443822Y-77017009D01*
X124473152Y-76981271D01*
X124556414Y-76879814D01*
X124657871Y-76796552D01*
X124693609Y-76767222D01*
X124711513Y-76757652D01*
X124850133Y-76683557D01*
X124906747Y-76666384D01*
X125019973Y-76632037D01*
X125086157Y-76625519D01*
X125152340Y-76619000D01*
X125240860Y-76619000D01*
X125307043Y-76625519D01*
X125307043Y-76625519D01*
G37*
G36*
X140620343Y-76625519D02*
X140686527Y-76632037D01*
X140799753Y-76666384D01*
X140856367Y-76683557D01*
X140994987Y-76757652D01*
X141012891Y-76767222D01*
X141048629Y-76796552D01*
X141150086Y-76879814D01*
X141233348Y-76981271D01*
X141262678Y-77017009D01*
X141262679Y-77017011D01*
X141346343Y-77173533D01*
X141346343Y-77173534D01*
X141397863Y-77343373D01*
X141415259Y-77520000D01*
X141397863Y-77696627D01*
X141363516Y-77809853D01*
X141346343Y-77866467D01*
X141272248Y-78005087D01*
X141262678Y-78022991D01*
X141233348Y-78058729D01*
X141150086Y-78160186D01*
X141048629Y-78243448D01*
X141012891Y-78272778D01*
X141012889Y-78272779D01*
X140856367Y-78356443D01*
X140799753Y-78373616D01*
X140686527Y-78407963D01*
X140620342Y-78414482D01*
X140554160Y-78421000D01*
X140465640Y-78421000D01*
X140399458Y-78414482D01*
X140333273Y-78407963D01*
X140220047Y-78373616D01*
X140163433Y-78356443D01*
X140006911Y-78272779D01*
X140006909Y-78272778D01*
X139971171Y-78243448D01*
X139869714Y-78160186D01*
X139786452Y-78058729D01*
X139757122Y-78022991D01*
X139747552Y-78005087D01*
X139673457Y-77866467D01*
X139656284Y-77809853D01*
X139621937Y-77696627D01*
X139604541Y-77520000D01*
X139621937Y-77343373D01*
X139673457Y-77173534D01*
X139673457Y-77173533D01*
X139757121Y-77017011D01*
X139757122Y-77017009D01*
X139786452Y-76981271D01*
X139869714Y-76879814D01*
X139971171Y-76796552D01*
X140006909Y-76767222D01*
X140024813Y-76757652D01*
X140163433Y-76683557D01*
X140220047Y-76666384D01*
X140333273Y-76632037D01*
X140399457Y-76625519D01*
X140465640Y-76619000D01*
X140554160Y-76619000D01*
X140620343Y-76625519D01*
X140620343Y-76625519D01*
G37*
G36*
X137790900Y-76797000D02*
X127988900Y-76797000D01*
X127988900Y-75095000D01*
X137790900Y-75095000D01*
X137790900Y-76797000D01*
X137790900Y-76797000D01*
G37*
G36*
X140620342Y-74085518D02*
X140686527Y-74092037D01*
X140799753Y-74126384D01*
X140856367Y-74143557D01*
X140994987Y-74217652D01*
X141012891Y-74227222D01*
X141048629Y-74256552D01*
X141150086Y-74339814D01*
X141233348Y-74441271D01*
X141262678Y-74477009D01*
X141262679Y-74477011D01*
X141346343Y-74633533D01*
X141346343Y-74633534D01*
X141397863Y-74803373D01*
X141415259Y-74980000D01*
X141397863Y-75156627D01*
X141363516Y-75269853D01*
X141346343Y-75326467D01*
X141272248Y-75465087D01*
X141262678Y-75482991D01*
X141233348Y-75518729D01*
X141150086Y-75620186D01*
X141048629Y-75703448D01*
X141012891Y-75732778D01*
X141012889Y-75732779D01*
X140856367Y-75816443D01*
X140799753Y-75833616D01*
X140686527Y-75867963D01*
X140620342Y-75874482D01*
X140554160Y-75881000D01*
X140465640Y-75881000D01*
X140399458Y-75874482D01*
X140333273Y-75867963D01*
X140220047Y-75833616D01*
X140163433Y-75816443D01*
X140006911Y-75732779D01*
X140006909Y-75732778D01*
X139971171Y-75703448D01*
X139869714Y-75620186D01*
X139786452Y-75518729D01*
X139757122Y-75482991D01*
X139747552Y-75465087D01*
X139673457Y-75326467D01*
X139656284Y-75269853D01*
X139621937Y-75156627D01*
X139604541Y-74980000D01*
X139621937Y-74803373D01*
X139673457Y-74633534D01*
X139673457Y-74633533D01*
X139757121Y-74477011D01*
X139757122Y-74477009D01*
X139786452Y-74441271D01*
X139869714Y-74339814D01*
X139971171Y-74256552D01*
X140006909Y-74227222D01*
X140024813Y-74217652D01*
X140163433Y-74143557D01*
X140220047Y-74126384D01*
X140333273Y-74092037D01*
X140399458Y-74085518D01*
X140465640Y-74079000D01*
X140554160Y-74079000D01*
X140620342Y-74085518D01*
X140620342Y-74085518D01*
G37*
G36*
X125307042Y-74085518D02*
X125373227Y-74092037D01*
X125486453Y-74126384D01*
X125543067Y-74143557D01*
X125681687Y-74217652D01*
X125699591Y-74227222D01*
X125735329Y-74256552D01*
X125836786Y-74339814D01*
X125920048Y-74441271D01*
X125949378Y-74477009D01*
X125949379Y-74477011D01*
X126033043Y-74633533D01*
X126033043Y-74633534D01*
X126084563Y-74803373D01*
X126101959Y-74980000D01*
X126084563Y-75156627D01*
X126050216Y-75269853D01*
X126033043Y-75326467D01*
X125958948Y-75465087D01*
X125949378Y-75482991D01*
X125920048Y-75518729D01*
X125836786Y-75620186D01*
X125735329Y-75703448D01*
X125699591Y-75732778D01*
X125699589Y-75732779D01*
X125543067Y-75816443D01*
X125486453Y-75833616D01*
X125373227Y-75867963D01*
X125307042Y-75874482D01*
X125240860Y-75881000D01*
X125152340Y-75881000D01*
X125086158Y-75874482D01*
X125019973Y-75867963D01*
X124906747Y-75833616D01*
X124850133Y-75816443D01*
X124693611Y-75732779D01*
X124693609Y-75732778D01*
X124657871Y-75703448D01*
X124556414Y-75620186D01*
X124473152Y-75518729D01*
X124443822Y-75482991D01*
X124434252Y-75465087D01*
X124360157Y-75326467D01*
X124342984Y-75269853D01*
X124308637Y-75156627D01*
X124291241Y-74980000D01*
X124308637Y-74803373D01*
X124360157Y-74633534D01*
X124360157Y-74633533D01*
X124443821Y-74477011D01*
X124443822Y-74477009D01*
X124473152Y-74441271D01*
X124556414Y-74339814D01*
X124657871Y-74256552D01*
X124693609Y-74227222D01*
X124711513Y-74217652D01*
X124850133Y-74143557D01*
X124906747Y-74126384D01*
X125019973Y-74092037D01*
X125086158Y-74085518D01*
X125152340Y-74079000D01*
X125240860Y-74079000D01*
X125307042Y-74085518D01*
X125307042Y-74085518D01*
G37*
G36*
X134084200Y-73308200D02*
X134086602Y-73332586D01*
X134093715Y-73356035D01*
X134105266Y-73377646D01*
X134120812Y-73396588D01*
X134139754Y-73412134D01*
X134161365Y-73423685D01*
X134184814Y-73430798D01*
X134209200Y-73433200D01*
X134371700Y-73433200D01*
X134371700Y-74285200D01*
X133369700Y-74285200D01*
X133369700Y-73433200D01*
X133532200Y-73433200D01*
X133556586Y-73430798D01*
X133580035Y-73423685D01*
X133601646Y-73412134D01*
X133620588Y-73396588D01*
X133636134Y-73377646D01*
X133647685Y-73356035D01*
X133654798Y-73332586D01*
X133657200Y-73308200D01*
X133657200Y-72933200D01*
X134084200Y-72933200D01*
X134084200Y-73308200D01*
X134084200Y-73308200D01*
G37*
G36*
X135471438Y-73240916D02*
X135492056Y-73247170D01*
X135511056Y-73257326D01*
X135527708Y-73270992D01*
X135541374Y-73287644D01*
X135551530Y-73306644D01*
X135557784Y-73327262D01*
X135560500Y-73354840D01*
X135560500Y-73863560D01*
X135557784Y-73891138D01*
X135551530Y-73911756D01*
X135541374Y-73930756D01*
X135527708Y-73947408D01*
X135511056Y-73961074D01*
X135492056Y-73971230D01*
X135471438Y-73977484D01*
X135443860Y-73980200D01*
X134985140Y-73980200D01*
X134957562Y-73977484D01*
X134936944Y-73971230D01*
X134917944Y-73961074D01*
X134901292Y-73947408D01*
X134887626Y-73930756D01*
X134877470Y-73911756D01*
X134871216Y-73891138D01*
X134868500Y-73863560D01*
X134868500Y-73354840D01*
X134871216Y-73327262D01*
X134877470Y-73306644D01*
X134887626Y-73287644D01*
X134901292Y-73270992D01*
X134917944Y-73257326D01*
X134936944Y-73247170D01*
X134957562Y-73240916D01*
X134985140Y-73238200D01*
X135443860Y-73238200D01*
X135471438Y-73240916D01*
X135471438Y-73240916D01*
G37*
G36*
X136441438Y-73240916D02*
X136462056Y-73247170D01*
X136481056Y-73257326D01*
X136497708Y-73270992D01*
X136511374Y-73287644D01*
X136521530Y-73306644D01*
X136527784Y-73327262D01*
X136530500Y-73354840D01*
X136530500Y-73863560D01*
X136527784Y-73891138D01*
X136521530Y-73911756D01*
X136511374Y-73930756D01*
X136497708Y-73947408D01*
X136481056Y-73961074D01*
X136462056Y-73971230D01*
X136441438Y-73977484D01*
X136413860Y-73980200D01*
X135955140Y-73980200D01*
X135927562Y-73977484D01*
X135906944Y-73971230D01*
X135887944Y-73961074D01*
X135871292Y-73947408D01*
X135857626Y-73930756D01*
X135847470Y-73911756D01*
X135841216Y-73891138D01*
X135838500Y-73863560D01*
X135838500Y-73354840D01*
X135841216Y-73327262D01*
X135847470Y-73306644D01*
X135857626Y-73287644D01*
X135871292Y-73270992D01*
X135887944Y-73257326D01*
X135906944Y-73247170D01*
X135927562Y-73240916D01*
X135955140Y-73238200D01*
X136413860Y-73238200D01*
X136441438Y-73240916D01*
X136441438Y-73240916D01*
G37*
G36*
X129680238Y-72796416D02*
X129700856Y-72802670D01*
X129719856Y-72812826D01*
X129736508Y-72826492D01*
X129750174Y-72843144D01*
X129760330Y-72862144D01*
X129766584Y-72882762D01*
X129769300Y-72910340D01*
X129769300Y-73419060D01*
X129766584Y-73446638D01*
X129760330Y-73467256D01*
X129750174Y-73486256D01*
X129736508Y-73502908D01*
X129719856Y-73516574D01*
X129700856Y-73526730D01*
X129680238Y-73532984D01*
X129652660Y-73535700D01*
X129193940Y-73535700D01*
X129166362Y-73532984D01*
X129145744Y-73526730D01*
X129126744Y-73516574D01*
X129110092Y-73502908D01*
X129096426Y-73486256D01*
X129086270Y-73467256D01*
X129080016Y-73446638D01*
X129077300Y-73419060D01*
X129077300Y-72910340D01*
X129080016Y-72882762D01*
X129086270Y-72862144D01*
X129096426Y-72843144D01*
X129110092Y-72826492D01*
X129126744Y-72812826D01*
X129145744Y-72802670D01*
X129166362Y-72796416D01*
X129193940Y-72793700D01*
X129652660Y-72793700D01*
X129680238Y-72796416D01*
X129680238Y-72796416D01*
G37*
G36*
X132758438Y-72796416D02*
X132779056Y-72802670D01*
X132798056Y-72812826D01*
X132814708Y-72826492D01*
X132828374Y-72843144D01*
X132838530Y-72862144D01*
X132844784Y-72882762D01*
X132847500Y-72910340D01*
X132847500Y-73419060D01*
X132844784Y-73446638D01*
X132838530Y-73467256D01*
X132828374Y-73486256D01*
X132814708Y-73502908D01*
X132798056Y-73516574D01*
X132779056Y-73526730D01*
X132758438Y-73532984D01*
X132730860Y-73535700D01*
X132272140Y-73535700D01*
X132244562Y-73532984D01*
X132223944Y-73526730D01*
X132204944Y-73516574D01*
X132188292Y-73502908D01*
X132174626Y-73486256D01*
X132164470Y-73467256D01*
X132158216Y-73446638D01*
X132155500Y-73419060D01*
X132155500Y-72910340D01*
X132158216Y-72882762D01*
X132164470Y-72862144D01*
X132174626Y-72843144D01*
X132188292Y-72826492D01*
X132204944Y-72812826D01*
X132223944Y-72802670D01*
X132244562Y-72796416D01*
X132272140Y-72793700D01*
X132730860Y-72793700D01*
X132758438Y-72796416D01*
X132758438Y-72796416D01*
G37*
G36*
X131788438Y-72796416D02*
X131809056Y-72802670D01*
X131828056Y-72812826D01*
X131844708Y-72826492D01*
X131858374Y-72843144D01*
X131868530Y-72862144D01*
X131874784Y-72882762D01*
X131877500Y-72910340D01*
X131877500Y-73419060D01*
X131874784Y-73446638D01*
X131868530Y-73467256D01*
X131858374Y-73486256D01*
X131844708Y-73502908D01*
X131828056Y-73516574D01*
X131809056Y-73526730D01*
X131788438Y-73532984D01*
X131760860Y-73535700D01*
X131302140Y-73535700D01*
X131274562Y-73532984D01*
X131253944Y-73526730D01*
X131234944Y-73516574D01*
X131218292Y-73502908D01*
X131204626Y-73486256D01*
X131194470Y-73467256D01*
X131188216Y-73446638D01*
X131185500Y-73419060D01*
X131185500Y-72910340D01*
X131188216Y-72882762D01*
X131194470Y-72862144D01*
X131204626Y-72843144D01*
X131218292Y-72826492D01*
X131234944Y-72812826D01*
X131253944Y-72802670D01*
X131274562Y-72796416D01*
X131302140Y-72793700D01*
X131760860Y-72793700D01*
X131788438Y-72796416D01*
X131788438Y-72796416D01*
G37*
G36*
X130650238Y-72796416D02*
X130670856Y-72802670D01*
X130689856Y-72812826D01*
X130706508Y-72826492D01*
X130720174Y-72843144D01*
X130730330Y-72862144D01*
X130736584Y-72882762D01*
X130739300Y-72910340D01*
X130739300Y-73419060D01*
X130736584Y-73446638D01*
X130730330Y-73467256D01*
X130720174Y-73486256D01*
X130706508Y-73502908D01*
X130689856Y-73516574D01*
X130670856Y-73526730D01*
X130650238Y-73532984D01*
X130622660Y-73535700D01*
X130163940Y-73535700D01*
X130136362Y-73532984D01*
X130115744Y-73526730D01*
X130096744Y-73516574D01*
X130080092Y-73502908D01*
X130066426Y-73486256D01*
X130056270Y-73467256D01*
X130050016Y-73446638D01*
X130047300Y-73419060D01*
X130047300Y-72910340D01*
X130050016Y-72882762D01*
X130056270Y-72862144D01*
X130066426Y-72843144D01*
X130080092Y-72826492D01*
X130096744Y-72812826D01*
X130115744Y-72802670D01*
X130136362Y-72796416D01*
X130163940Y-72793700D01*
X130622660Y-72793700D01*
X130650238Y-72796416D01*
X130650238Y-72796416D01*
G37*
G36*
X125307043Y-71545519D02*
X125373227Y-71552037D01*
X125483223Y-71585404D01*
X125543067Y-71603557D01*
X125673122Y-71673074D01*
X125699591Y-71687222D01*
X125735329Y-71716552D01*
X125836786Y-71799814D01*
X125920048Y-71901271D01*
X125949378Y-71937009D01*
X125949379Y-71937011D01*
X126033043Y-72093533D01*
X126033043Y-72093534D01*
X126084563Y-72263373D01*
X126101959Y-72440000D01*
X126084563Y-72616627D01*
X126050216Y-72729853D01*
X126033043Y-72786467D01*
X125958948Y-72925087D01*
X125949378Y-72942991D01*
X125929920Y-72966700D01*
X125836786Y-73080186D01*
X125735329Y-73163448D01*
X125699591Y-73192778D01*
X125699589Y-73192779D01*
X125543067Y-73276443D01*
X125486453Y-73293616D01*
X125373227Y-73327963D01*
X125326288Y-73332586D01*
X125240860Y-73341000D01*
X125152340Y-73341000D01*
X125066912Y-73332586D01*
X125019973Y-73327963D01*
X124906747Y-73293616D01*
X124850133Y-73276443D01*
X124693611Y-73192779D01*
X124693609Y-73192778D01*
X124657871Y-73163448D01*
X124556414Y-73080186D01*
X124463280Y-72966700D01*
X124443822Y-72942991D01*
X124434252Y-72925087D01*
X124360157Y-72786467D01*
X124342984Y-72729853D01*
X124308637Y-72616627D01*
X124291241Y-72440000D01*
X124308637Y-72263373D01*
X124360157Y-72093534D01*
X124360157Y-72093533D01*
X124443821Y-71937011D01*
X124443822Y-71937009D01*
X124473152Y-71901271D01*
X124556414Y-71799814D01*
X124657871Y-71716552D01*
X124693609Y-71687222D01*
X124720078Y-71673074D01*
X124850133Y-71603557D01*
X124909977Y-71585404D01*
X125019973Y-71552037D01*
X125086157Y-71545519D01*
X125152340Y-71539000D01*
X125240860Y-71539000D01*
X125307043Y-71545519D01*
X125307043Y-71545519D01*
G37*
G36*
X140620343Y-71545519D02*
X140686527Y-71552037D01*
X140796523Y-71585404D01*
X140856367Y-71603557D01*
X140986422Y-71673074D01*
X141012891Y-71687222D01*
X141048629Y-71716552D01*
X141150086Y-71799814D01*
X141233348Y-71901271D01*
X141262678Y-71937009D01*
X141262679Y-71937011D01*
X141346343Y-72093533D01*
X141346343Y-72093534D01*
X141397863Y-72263373D01*
X141415259Y-72440000D01*
X141397863Y-72616627D01*
X141363516Y-72729853D01*
X141346343Y-72786467D01*
X141272248Y-72925087D01*
X141262678Y-72942991D01*
X141243220Y-72966700D01*
X141150086Y-73080186D01*
X141048629Y-73163448D01*
X141012891Y-73192778D01*
X141012889Y-73192779D01*
X140856367Y-73276443D01*
X140799753Y-73293616D01*
X140686527Y-73327963D01*
X140639588Y-73332586D01*
X140554160Y-73341000D01*
X140465640Y-73341000D01*
X140380212Y-73332586D01*
X140333273Y-73327963D01*
X140220047Y-73293616D01*
X140163433Y-73276443D01*
X140006911Y-73192779D01*
X140006909Y-73192778D01*
X139971171Y-73163448D01*
X139869714Y-73080186D01*
X139776580Y-72966700D01*
X139757122Y-72942991D01*
X139747552Y-72925087D01*
X139673457Y-72786467D01*
X139656284Y-72729853D01*
X139621937Y-72616627D01*
X139604541Y-72440000D01*
X139621937Y-72263373D01*
X139673457Y-72093534D01*
X139673457Y-72093533D01*
X139757121Y-71937011D01*
X139757122Y-71937009D01*
X139786452Y-71901271D01*
X139869714Y-71799814D01*
X139971171Y-71716552D01*
X140006909Y-71687222D01*
X140033378Y-71673074D01*
X140163433Y-71603557D01*
X140223277Y-71585404D01*
X140333273Y-71552037D01*
X140399457Y-71545519D01*
X140465640Y-71539000D01*
X140554160Y-71539000D01*
X140620343Y-71545519D01*
X140620343Y-71545519D01*
G37*
G36*
X136464038Y-71972916D02*
X136484656Y-71979170D01*
X136503656Y-71989326D01*
X136520308Y-72002992D01*
X136533974Y-72019644D01*
X136544130Y-72038644D01*
X136550384Y-72059262D01*
X136553100Y-72086840D01*
X136553100Y-72545560D01*
X136550384Y-72573138D01*
X136544130Y-72593756D01*
X136533974Y-72612756D01*
X136520308Y-72629408D01*
X136503656Y-72643074D01*
X136484656Y-72653230D01*
X136464038Y-72659484D01*
X136436460Y-72662200D01*
X135927740Y-72662200D01*
X135900162Y-72659484D01*
X135879544Y-72653230D01*
X135860544Y-72643074D01*
X135843892Y-72629408D01*
X135830226Y-72612756D01*
X135820070Y-72593756D01*
X135813816Y-72573138D01*
X135811100Y-72545560D01*
X135811100Y-72086840D01*
X135813816Y-72059262D01*
X135820070Y-72038644D01*
X135830226Y-72019644D01*
X135843892Y-72002992D01*
X135860544Y-71989326D01*
X135879544Y-71979170D01*
X135900162Y-71972916D01*
X135927740Y-71970200D01*
X136436460Y-71970200D01*
X136464038Y-71972916D01*
X136464038Y-71972916D01*
G37*
G36*
X134050500Y-72077700D02*
X132903500Y-72077700D01*
X132903500Y-71330700D01*
X134050500Y-71330700D01*
X134050500Y-72077700D01*
X134050500Y-72077700D01*
G37*
G36*
X136464038Y-71002916D02*
X136484656Y-71009170D01*
X136503656Y-71019326D01*
X136520308Y-71032992D01*
X136533974Y-71049644D01*
X136544130Y-71068644D01*
X136550384Y-71089262D01*
X136553100Y-71116840D01*
X136553100Y-71575560D01*
X136550384Y-71603138D01*
X136544130Y-71623756D01*
X136533974Y-71642756D01*
X136520308Y-71659408D01*
X136503656Y-71673074D01*
X136484656Y-71683230D01*
X136464038Y-71689484D01*
X136436460Y-71692200D01*
X135927740Y-71692200D01*
X135900162Y-71689484D01*
X135879544Y-71683230D01*
X135860544Y-71673074D01*
X135843892Y-71659408D01*
X135830226Y-71642756D01*
X135820070Y-71623756D01*
X135813816Y-71603138D01*
X135811100Y-71575560D01*
X135811100Y-71116840D01*
X135813816Y-71089262D01*
X135820070Y-71068644D01*
X135830226Y-71049644D01*
X135843892Y-71032992D01*
X135860544Y-71019326D01*
X135879544Y-71009170D01*
X135900162Y-71002916D01*
X135927740Y-71000200D01*
X136436460Y-71000200D01*
X136464038Y-71002916D01*
X136464038Y-71002916D01*
G37*
G36*
X133758938Y-70296516D02*
X133779556Y-70302770D01*
X133798556Y-70312926D01*
X133815208Y-70326592D01*
X133828874Y-70343244D01*
X133839030Y-70362244D01*
X133845284Y-70382862D01*
X133848000Y-70410440D01*
X133848000Y-70869160D01*
X133845284Y-70896738D01*
X133839030Y-70917356D01*
X133828874Y-70936356D01*
X133815208Y-70953008D01*
X133798556Y-70966674D01*
X133779556Y-70976830D01*
X133758938Y-70983084D01*
X133731360Y-70985800D01*
X133222640Y-70985800D01*
X133195062Y-70983084D01*
X133174444Y-70976830D01*
X133155444Y-70966674D01*
X133138792Y-70953008D01*
X133125126Y-70936356D01*
X133114970Y-70917356D01*
X133108716Y-70896738D01*
X133106000Y-70869160D01*
X133106000Y-70410440D01*
X133108716Y-70382862D01*
X133114970Y-70362244D01*
X133125126Y-70343244D01*
X133138792Y-70326592D01*
X133155444Y-70312926D01*
X133174444Y-70302770D01*
X133195062Y-70296516D01*
X133222640Y-70293800D01*
X133731360Y-70293800D01*
X133758938Y-70296516D01*
X133758938Y-70296516D01*
G37*
G36*
X140620342Y-69005518D02*
X140686527Y-69012037D01*
X140799753Y-69046384D01*
X140856367Y-69063557D01*
X140994987Y-69137652D01*
X141012891Y-69147222D01*
X141048629Y-69176552D01*
X141150086Y-69259814D01*
X141229508Y-69356592D01*
X141262678Y-69397009D01*
X141262679Y-69397011D01*
X141346343Y-69553533D01*
X141346343Y-69553534D01*
X141397863Y-69723373D01*
X141415259Y-69900000D01*
X141397863Y-70076627D01*
X141363516Y-70189853D01*
X141346343Y-70246467D01*
X141294614Y-70343244D01*
X141262678Y-70402991D01*
X141238010Y-70433049D01*
X141150086Y-70540186D01*
X141048629Y-70623448D01*
X141012891Y-70652778D01*
X141012889Y-70652779D01*
X140856367Y-70736443D01*
X140799753Y-70753616D01*
X140686527Y-70787963D01*
X140620343Y-70794481D01*
X140554160Y-70801000D01*
X140465640Y-70801000D01*
X140399457Y-70794481D01*
X140333273Y-70787963D01*
X140220047Y-70753616D01*
X140163433Y-70736443D01*
X140006911Y-70652779D01*
X140006909Y-70652778D01*
X139971171Y-70623448D01*
X139869714Y-70540186D01*
X139781790Y-70433049D01*
X139757122Y-70402991D01*
X139725186Y-70343244D01*
X139673457Y-70246467D01*
X139656284Y-70189853D01*
X139621937Y-70076627D01*
X139604541Y-69900000D01*
X139621937Y-69723373D01*
X139673457Y-69553534D01*
X139673457Y-69553533D01*
X139757121Y-69397011D01*
X139757122Y-69397009D01*
X139790292Y-69356592D01*
X139869714Y-69259814D01*
X139971171Y-69176552D01*
X140006909Y-69147222D01*
X140024813Y-69137652D01*
X140163433Y-69063557D01*
X140220047Y-69046384D01*
X140333273Y-69012037D01*
X140399458Y-69005518D01*
X140465640Y-68999000D01*
X140554160Y-68999000D01*
X140620342Y-69005518D01*
X140620342Y-69005518D01*
G37*
G36*
X125307042Y-69005518D02*
X125373227Y-69012037D01*
X125486453Y-69046384D01*
X125543067Y-69063557D01*
X125681687Y-69137652D01*
X125699591Y-69147222D01*
X125735329Y-69176552D01*
X125836786Y-69259814D01*
X125916208Y-69356592D01*
X125949378Y-69397009D01*
X125949379Y-69397011D01*
X126033043Y-69553533D01*
X126033043Y-69553534D01*
X126084563Y-69723373D01*
X126101959Y-69900000D01*
X126084563Y-70076627D01*
X126050216Y-70189853D01*
X126033043Y-70246467D01*
X125981314Y-70343244D01*
X125949378Y-70402991D01*
X125924710Y-70433049D01*
X125836786Y-70540186D01*
X125735329Y-70623448D01*
X125699591Y-70652778D01*
X125699589Y-70652779D01*
X125543067Y-70736443D01*
X125486453Y-70753616D01*
X125373227Y-70787963D01*
X125307043Y-70794481D01*
X125240860Y-70801000D01*
X125152340Y-70801000D01*
X125086157Y-70794481D01*
X125019973Y-70787963D01*
X124906747Y-70753616D01*
X124850133Y-70736443D01*
X124693611Y-70652779D01*
X124693609Y-70652778D01*
X124657871Y-70623448D01*
X124556414Y-70540186D01*
X124468490Y-70433049D01*
X124443822Y-70402991D01*
X124411886Y-70343244D01*
X124360157Y-70246467D01*
X124342984Y-70189853D01*
X124308637Y-70076627D01*
X124291241Y-69900000D01*
X124308637Y-69723373D01*
X124360157Y-69553534D01*
X124360157Y-69553533D01*
X124443821Y-69397011D01*
X124443822Y-69397009D01*
X124476992Y-69356592D01*
X124556414Y-69259814D01*
X124657871Y-69176552D01*
X124693609Y-69147222D01*
X124711513Y-69137652D01*
X124850133Y-69063557D01*
X124906747Y-69046384D01*
X125019973Y-69012037D01*
X125086158Y-69005518D01*
X125152340Y-68999000D01*
X125240860Y-68999000D01*
X125307042Y-69005518D01*
X125307042Y-69005518D01*
G37*
G36*
X133758938Y-69326516D02*
X133779556Y-69332770D01*
X133798556Y-69342926D01*
X133815208Y-69356592D01*
X133828874Y-69373244D01*
X133839030Y-69392244D01*
X133845284Y-69412862D01*
X133848000Y-69440440D01*
X133848000Y-69899160D01*
X133845284Y-69926738D01*
X133839030Y-69947356D01*
X133828874Y-69966356D01*
X133815208Y-69983008D01*
X133798556Y-69996674D01*
X133779556Y-70006830D01*
X133758938Y-70013084D01*
X133731360Y-70015800D01*
X133222640Y-70015800D01*
X133195062Y-70013084D01*
X133174444Y-70006830D01*
X133155444Y-69996674D01*
X133138792Y-69983008D01*
X133125126Y-69966356D01*
X133114970Y-69947356D01*
X133108716Y-69926738D01*
X133106000Y-69899160D01*
X133106000Y-69440440D01*
X133108716Y-69412862D01*
X133114970Y-69392244D01*
X133125126Y-69373244D01*
X133138792Y-69356592D01*
X133155444Y-69342926D01*
X133174444Y-69332770D01*
X133195062Y-69326516D01*
X133222640Y-69323800D01*
X133731360Y-69323800D01*
X133758938Y-69326516D01*
X133758938Y-69326516D01*
G37*
G36*
X133758938Y-68340716D02*
X133779556Y-68346970D01*
X133798556Y-68357126D01*
X133815208Y-68370792D01*
X133828874Y-68387444D01*
X133839030Y-68406444D01*
X133845284Y-68427062D01*
X133848000Y-68454640D01*
X133848000Y-68913360D01*
X133845284Y-68940938D01*
X133839030Y-68961556D01*
X133828874Y-68980556D01*
X133815208Y-68997208D01*
X133798556Y-69010874D01*
X133779556Y-69021030D01*
X133758938Y-69027284D01*
X133731360Y-69030000D01*
X133222640Y-69030000D01*
X133195062Y-69027284D01*
X133174444Y-69021030D01*
X133155444Y-69010874D01*
X133138792Y-68997208D01*
X133125126Y-68980556D01*
X133114970Y-68961556D01*
X133108716Y-68940938D01*
X133106000Y-68913360D01*
X133106000Y-68454640D01*
X133108716Y-68427062D01*
X133114970Y-68406444D01*
X133125126Y-68387444D01*
X133138792Y-68370792D01*
X133155444Y-68357126D01*
X133174444Y-68346970D01*
X133195062Y-68340716D01*
X133222640Y-68338000D01*
X133731360Y-68338000D01*
X133758938Y-68340716D01*
X133758938Y-68340716D01*
G37*
G36*
X140602813Y-66463792D02*
X140686527Y-66472037D01*
X140776876Y-66499444D01*
X140856367Y-66523557D01*
X140901422Y-66547640D01*
X141012891Y-66607222D01*
X141048629Y-66636552D01*
X141150086Y-66719814D01*
X141233348Y-66821271D01*
X141262678Y-66857009D01*
X141262679Y-66857011D01*
X141346343Y-67013533D01*
X141346343Y-67013534D01*
X141397863Y-67183373D01*
X141415259Y-67360000D01*
X141397863Y-67536627D01*
X141396536Y-67541000D01*
X141346343Y-67706467D01*
X141272248Y-67845087D01*
X141262678Y-67862991D01*
X141242974Y-67887000D01*
X141150086Y-68000186D01*
X141077201Y-68060000D01*
X141012891Y-68112778D01*
X141012889Y-68112779D01*
X140856367Y-68196443D01*
X140799753Y-68213616D01*
X140686527Y-68247963D01*
X140620342Y-68254482D01*
X140554160Y-68261000D01*
X140465640Y-68261000D01*
X140399458Y-68254482D01*
X140333273Y-68247963D01*
X140220047Y-68213616D01*
X140163433Y-68196443D01*
X140006911Y-68112779D01*
X140006909Y-68112778D01*
X139942599Y-68060000D01*
X139869714Y-68000186D01*
X139776826Y-67887000D01*
X139757122Y-67862991D01*
X139747552Y-67845087D01*
X139673457Y-67706467D01*
X139623264Y-67541000D01*
X139621937Y-67536627D01*
X139604541Y-67360000D01*
X139621937Y-67183373D01*
X139673457Y-67013534D01*
X139673457Y-67013533D01*
X139757121Y-66857011D01*
X139757122Y-66857009D01*
X139786452Y-66821271D01*
X139869714Y-66719814D01*
X139971171Y-66636552D01*
X140006909Y-66607222D01*
X140118378Y-66547640D01*
X140163433Y-66523557D01*
X140242924Y-66499444D01*
X140333273Y-66472037D01*
X140416987Y-66463792D01*
X140465640Y-66459000D01*
X140554160Y-66459000D01*
X140602813Y-66463792D01*
X140602813Y-66463792D01*
G37*
G36*
X125289513Y-66463792D02*
X125373227Y-66472037D01*
X125463576Y-66499444D01*
X125543067Y-66523557D01*
X125588122Y-66547640D01*
X125699591Y-66607222D01*
X125735329Y-66636552D01*
X125836786Y-66719814D01*
X125920048Y-66821271D01*
X125949378Y-66857009D01*
X125949379Y-66857011D01*
X126033043Y-67013533D01*
X126033043Y-67013534D01*
X126084563Y-67183373D01*
X126101959Y-67360000D01*
X126084563Y-67536627D01*
X126083236Y-67541000D01*
X126033043Y-67706467D01*
X125958948Y-67845087D01*
X125949378Y-67862991D01*
X125929674Y-67887000D01*
X125836786Y-68000186D01*
X125763901Y-68060000D01*
X125699591Y-68112778D01*
X125699589Y-68112779D01*
X125543067Y-68196443D01*
X125486453Y-68213616D01*
X125373227Y-68247963D01*
X125307042Y-68254482D01*
X125240860Y-68261000D01*
X125152340Y-68261000D01*
X125086158Y-68254482D01*
X125019973Y-68247963D01*
X124906747Y-68213616D01*
X124850133Y-68196443D01*
X124693611Y-68112779D01*
X124693609Y-68112778D01*
X124629299Y-68060000D01*
X124556414Y-68000186D01*
X124463526Y-67887000D01*
X124443822Y-67862991D01*
X124434252Y-67845087D01*
X124360157Y-67706467D01*
X124309964Y-67541000D01*
X124308637Y-67536627D01*
X124291241Y-67360000D01*
X124308637Y-67183373D01*
X124360157Y-67013534D01*
X124360157Y-67013533D01*
X124443821Y-66857011D01*
X124443822Y-66857009D01*
X124473152Y-66821271D01*
X124556414Y-66719814D01*
X124657871Y-66636552D01*
X124693609Y-66607222D01*
X124805078Y-66547640D01*
X124850133Y-66523557D01*
X124929624Y-66499444D01*
X125019973Y-66472037D01*
X125103687Y-66463792D01*
X125152340Y-66459000D01*
X125240860Y-66459000D01*
X125289513Y-66463792D01*
X125289513Y-66463792D01*
G37*
G36*
X133731538Y-66433716D02*
X133752156Y-66439970D01*
X133771156Y-66450126D01*
X133787808Y-66463792D01*
X133801474Y-66480444D01*
X133811630Y-66499444D01*
X133817884Y-66520062D01*
X133820600Y-66547640D01*
X133820600Y-67056360D01*
X133817884Y-67083938D01*
X133811630Y-67104556D01*
X133801474Y-67123556D01*
X133787808Y-67140208D01*
X133769621Y-67155133D01*
X133752535Y-67166549D01*
X133735208Y-67183876D01*
X133721594Y-67204251D01*
X133712216Y-67226889D01*
X133707435Y-67250923D01*
X133707435Y-67275427D01*
X133712215Y-67299461D01*
X133721592Y-67322100D01*
X133735205Y-67342475D01*
X133752532Y-67359802D01*
X133772908Y-67373417D01*
X133798556Y-67387126D01*
X133815208Y-67400792D01*
X133828874Y-67417444D01*
X133839030Y-67436444D01*
X133845284Y-67457062D01*
X133848000Y-67484640D01*
X133848000Y-67943360D01*
X133845284Y-67970938D01*
X133839030Y-67991556D01*
X133828874Y-68010556D01*
X133815208Y-68027208D01*
X133798556Y-68040874D01*
X133779556Y-68051030D01*
X133758938Y-68057284D01*
X133731360Y-68060000D01*
X133222640Y-68060000D01*
X133195062Y-68057284D01*
X133174444Y-68051030D01*
X133155444Y-68040874D01*
X133138792Y-68027208D01*
X133125126Y-68010556D01*
X133114970Y-67991556D01*
X133108716Y-67970938D01*
X133106000Y-67943360D01*
X133106000Y-67484640D01*
X133108716Y-67457062D01*
X133114970Y-67436444D01*
X133125126Y-67417444D01*
X133138792Y-67400792D01*
X133155444Y-67387126D01*
X133178692Y-67374700D01*
X133199066Y-67361086D01*
X133216393Y-67343759D01*
X133230007Y-67323385D01*
X133239385Y-67300745D01*
X133244165Y-67276712D01*
X133244165Y-67252208D01*
X133239385Y-67228174D01*
X133230007Y-67205535D01*
X133216393Y-67185161D01*
X133199066Y-67167834D01*
X133178691Y-67154220D01*
X133178045Y-67153875D01*
X133161392Y-67140208D01*
X133147726Y-67123556D01*
X133137570Y-67104556D01*
X133131316Y-67083938D01*
X133128600Y-67056360D01*
X133128600Y-66547640D01*
X133131316Y-66520062D01*
X133137570Y-66499444D01*
X133147726Y-66480444D01*
X133161392Y-66463792D01*
X133178044Y-66450126D01*
X133197044Y-66439970D01*
X133217662Y-66433716D01*
X133245240Y-66431000D01*
X133703960Y-66431000D01*
X133731538Y-66433716D01*
X133731538Y-66433716D01*
G37*
G36*
X134701538Y-66433716D02*
X134722156Y-66439970D01*
X134741156Y-66450126D01*
X134757808Y-66463792D01*
X134771474Y-66480444D01*
X134781630Y-66499444D01*
X134787884Y-66520062D01*
X134790600Y-66547640D01*
X134790600Y-67056360D01*
X134787884Y-67083938D01*
X134781630Y-67104556D01*
X134771474Y-67123556D01*
X134757808Y-67140208D01*
X134741156Y-67153874D01*
X134722156Y-67164030D01*
X134701538Y-67170284D01*
X134673960Y-67173000D01*
X134215240Y-67173000D01*
X134187662Y-67170284D01*
X134167044Y-67164030D01*
X134148044Y-67153874D01*
X134131392Y-67140208D01*
X134117726Y-67123556D01*
X134107570Y-67104556D01*
X134101316Y-67083938D01*
X134098600Y-67056360D01*
X134098600Y-66547640D01*
X134101316Y-66520062D01*
X134107570Y-66499444D01*
X134117726Y-66480444D01*
X134131392Y-66463792D01*
X134148044Y-66450126D01*
X134167044Y-66439970D01*
X134187662Y-66433716D01*
X134215240Y-66431000D01*
X134673960Y-66431000D01*
X134701538Y-66433716D01*
X134701538Y-66433716D01*
G37*
G36*
X140620342Y-63925518D02*
X140686527Y-63932037D01*
X140799753Y-63966384D01*
X140856367Y-63983557D01*
X140994987Y-64057652D01*
X141012891Y-64067222D01*
X141048629Y-64096552D01*
X141150086Y-64179814D01*
X141233348Y-64281271D01*
X141262678Y-64317009D01*
X141262679Y-64317011D01*
X141346343Y-64473533D01*
X141346343Y-64473534D01*
X141397863Y-64643373D01*
X141415259Y-64820000D01*
X141397863Y-64996627D01*
X141363516Y-65109853D01*
X141346343Y-65166467D01*
X141272248Y-65305087D01*
X141262678Y-65322991D01*
X141233348Y-65358729D01*
X141150086Y-65460186D01*
X141048629Y-65543448D01*
X141012891Y-65572778D01*
X141012889Y-65572779D01*
X140856367Y-65656443D01*
X140799753Y-65673616D01*
X140686527Y-65707963D01*
X140620342Y-65714482D01*
X140554160Y-65721000D01*
X140465640Y-65721000D01*
X140399458Y-65714482D01*
X140333273Y-65707963D01*
X140220047Y-65673616D01*
X140163433Y-65656443D01*
X140006911Y-65572779D01*
X140006909Y-65572778D01*
X139971171Y-65543448D01*
X139869714Y-65460186D01*
X139786452Y-65358729D01*
X139757122Y-65322991D01*
X139747552Y-65305087D01*
X139673457Y-65166467D01*
X139656284Y-65109853D01*
X139621937Y-64996627D01*
X139604541Y-64820000D01*
X139621937Y-64643373D01*
X139673457Y-64473534D01*
X139673457Y-64473533D01*
X139757121Y-64317011D01*
X139757122Y-64317009D01*
X139786452Y-64281271D01*
X139869714Y-64179814D01*
X139971171Y-64096552D01*
X140006909Y-64067222D01*
X140024813Y-64057652D01*
X140163433Y-63983557D01*
X140220047Y-63966384D01*
X140333273Y-63932037D01*
X140399458Y-63925518D01*
X140465640Y-63919000D01*
X140554160Y-63919000D01*
X140620342Y-63925518D01*
X140620342Y-63925518D01*
G37*
G36*
X125307042Y-63925518D02*
X125373227Y-63932037D01*
X125486453Y-63966384D01*
X125543067Y-63983557D01*
X125681687Y-64057652D01*
X125699591Y-64067222D01*
X125735329Y-64096552D01*
X125836786Y-64179814D01*
X125920048Y-64281271D01*
X125949378Y-64317009D01*
X125949379Y-64317011D01*
X126033043Y-64473533D01*
X126033043Y-64473534D01*
X126084563Y-64643373D01*
X126101959Y-64820000D01*
X126084563Y-64996627D01*
X126050216Y-65109853D01*
X126033043Y-65166467D01*
X125958948Y-65305087D01*
X125949378Y-65322991D01*
X125920048Y-65358729D01*
X125836786Y-65460186D01*
X125735329Y-65543448D01*
X125699591Y-65572778D01*
X125699589Y-65572779D01*
X125543067Y-65656443D01*
X125486453Y-65673616D01*
X125373227Y-65707963D01*
X125307042Y-65714482D01*
X125240860Y-65721000D01*
X125152340Y-65721000D01*
X125086158Y-65714482D01*
X125019973Y-65707963D01*
X124906747Y-65673616D01*
X124850133Y-65656443D01*
X124693611Y-65572779D01*
X124693609Y-65572778D01*
X124657871Y-65543448D01*
X124556414Y-65460186D01*
X124473152Y-65358729D01*
X124443822Y-65322991D01*
X124434252Y-65305087D01*
X124360157Y-65166467D01*
X124342984Y-65109853D01*
X124308637Y-64996627D01*
X124291241Y-64820000D01*
X124308637Y-64643373D01*
X124360157Y-64473534D01*
X124360157Y-64473533D01*
X124443821Y-64317011D01*
X124443822Y-64317009D01*
X124473152Y-64281271D01*
X124556414Y-64179814D01*
X124657871Y-64096552D01*
X124693609Y-64067222D01*
X124711513Y-64057652D01*
X124850133Y-63983557D01*
X124906747Y-63966384D01*
X125019973Y-63932037D01*
X125086158Y-63925518D01*
X125152340Y-63919000D01*
X125240860Y-63919000D01*
X125307042Y-63925518D01*
X125307042Y-63925518D01*
G37*
G36*
X134028000Y-65519700D02*
X132926000Y-65519700D01*
X132926000Y-64367700D01*
X134028000Y-64367700D01*
X134028000Y-65519700D01*
X134028000Y-65519700D01*
G37*
G36*
X132578000Y-64569700D02*
X131426000Y-64569700D01*
X131426000Y-62267700D01*
X132578000Y-62267700D01*
X132578000Y-64569700D01*
X132578000Y-64569700D01*
G37*
G36*
X135528000Y-64569700D02*
X134376000Y-64569700D01*
X134376000Y-62267700D01*
X135528000Y-62267700D01*
X135528000Y-64569700D01*
X135528000Y-64569700D01*
G37*
G36*
X140620342Y-61385518D02*
X140686527Y-61392037D01*
X140799753Y-61426384D01*
X140856367Y-61443557D01*
X140994987Y-61517652D01*
X141012891Y-61527222D01*
X141048629Y-61556552D01*
X141150086Y-61639814D01*
X141233348Y-61741271D01*
X141262678Y-61777009D01*
X141262679Y-61777011D01*
X141346343Y-61933533D01*
X141346343Y-61933534D01*
X141397863Y-62103373D01*
X141415259Y-62280000D01*
X141397863Y-62456627D01*
X141363516Y-62569853D01*
X141346343Y-62626467D01*
X141272248Y-62765087D01*
X141262678Y-62782991D01*
X141233348Y-62818729D01*
X141150086Y-62920186D01*
X141048629Y-63003448D01*
X141012891Y-63032778D01*
X141012889Y-63032779D01*
X140856367Y-63116443D01*
X140799753Y-63133616D01*
X140686527Y-63167963D01*
X140620343Y-63174481D01*
X140554160Y-63181000D01*
X140465640Y-63181000D01*
X140399457Y-63174481D01*
X140333273Y-63167963D01*
X140220047Y-63133616D01*
X140163433Y-63116443D01*
X140006911Y-63032779D01*
X140006909Y-63032778D01*
X139971171Y-63003448D01*
X139869714Y-62920186D01*
X139786452Y-62818729D01*
X139757122Y-62782991D01*
X139747552Y-62765087D01*
X139673457Y-62626467D01*
X139656284Y-62569853D01*
X139621937Y-62456627D01*
X139604541Y-62280000D01*
X139621937Y-62103373D01*
X139673457Y-61933534D01*
X139673457Y-61933533D01*
X139757121Y-61777011D01*
X139757122Y-61777009D01*
X139786452Y-61741271D01*
X139869714Y-61639814D01*
X139971171Y-61556552D01*
X140006909Y-61527222D01*
X140024813Y-61517652D01*
X140163433Y-61443557D01*
X140220047Y-61426384D01*
X140333273Y-61392037D01*
X140399458Y-61385518D01*
X140465640Y-61379000D01*
X140554160Y-61379000D01*
X140620342Y-61385518D01*
X140620342Y-61385518D01*
G37*
G36*
X125307042Y-61385518D02*
X125373227Y-61392037D01*
X125486453Y-61426384D01*
X125543067Y-61443557D01*
X125681687Y-61517652D01*
X125699591Y-61527222D01*
X125735329Y-61556552D01*
X125836786Y-61639814D01*
X125920048Y-61741271D01*
X125949378Y-61777009D01*
X125949379Y-61777011D01*
X126033043Y-61933533D01*
X126033043Y-61933534D01*
X126084563Y-62103373D01*
X126101959Y-62280000D01*
X126084563Y-62456627D01*
X126050216Y-62569853D01*
X126033043Y-62626467D01*
X125958948Y-62765087D01*
X125949378Y-62782991D01*
X125920048Y-62818729D01*
X125836786Y-62920186D01*
X125735329Y-63003448D01*
X125699591Y-63032778D01*
X125699589Y-63032779D01*
X125543067Y-63116443D01*
X125486453Y-63133616D01*
X125373227Y-63167963D01*
X125307043Y-63174481D01*
X125240860Y-63181000D01*
X125152340Y-63181000D01*
X125086157Y-63174481D01*
X125019973Y-63167963D01*
X124906747Y-63133616D01*
X124850133Y-63116443D01*
X124693611Y-63032779D01*
X124693609Y-63032778D01*
X124657871Y-63003448D01*
X124556414Y-62920186D01*
X124473152Y-62818729D01*
X124443822Y-62782991D01*
X124434252Y-62765087D01*
X124360157Y-62626467D01*
X124342984Y-62569853D01*
X124308637Y-62456627D01*
X124291241Y-62280000D01*
X124308637Y-62103373D01*
X124360157Y-61933534D01*
X124360157Y-61933533D01*
X124443821Y-61777011D01*
X124443822Y-61777009D01*
X124473152Y-61741271D01*
X124556414Y-61639814D01*
X124657871Y-61556552D01*
X124693609Y-61527222D01*
X124711513Y-61517652D01*
X124850133Y-61443557D01*
X124906747Y-61426384D01*
X125019973Y-61392037D01*
X125086158Y-61385518D01*
X125152340Y-61379000D01*
X125240860Y-61379000D01*
X125307042Y-61385518D01*
X125307042Y-61385518D01*
G37*
M02*
