M48
;DRILL file {KiCad (5.0.1)-3} date 11/05/18 23:25:54
;FORMAT={-:-/ absolute / inch / decimal}
FMAT,2
INCH,TZ
T1C0.0118
T2C0.0394
%
G90
G05
M72
T1
X5.0144Y-2.9794
X5.0632Y-3.0878
X5.102Y-3.292
X5.1268Y-3.149
X5.133Y-2.8375
X5.1448Y-3.0476
X5.1455Y-3.292
X5.1658Y-2.9236
X5.1885Y-3.292
X5.1898Y-3.0475
X5.1965Y-2.577
X5.1965Y-2.6164
X5.1965Y-2.6557
X5.1965Y-2.6951
X5.1965Y-2.7345
X5.1965Y-2.7739
X5.1968Y-2.4174
X5.2095Y-2.8445
X5.2259Y-3.149
X5.2259Y-3.245
X5.232Y-3.0475
X5.275Y-3.292
X5.2752Y-3.0475
X5.3126Y-2.4168
X5.3135Y-2.5765
X5.3135Y-2.6845
X5.3135Y-2.7239
X5.3135Y-2.7632
X5.3135Y-2.8026
X5.3135Y-2.842
X5.318Y-2.9345
X5.318Y-3.0475
X5.325Y-3.149
X5.362Y-3.292
T2
X4.929Y-2.452
X4.929Y-2.552
X4.929Y-2.652
X4.929Y-2.752
X4.929Y-2.852
X4.929Y-2.952
X4.929Y-3.052
X4.929Y-3.152
X4.929Y-3.252
X4.929Y-3.352
X5.5319Y-2.452
X5.5319Y-2.552
X5.5319Y-2.652
X5.5319Y-2.752
X5.5319Y-2.852
X5.5319Y-2.952
X5.5319Y-3.052
X5.5319Y-3.152
X5.5319Y-3.252
X5.5319Y-3.352
T0
M30
